  0
SECTION
  2
HEADER
  9
$ACADVER
  1
AC1027
  9
$ACADMAINTVER
 70
   105
  9
$DWGCODEPAGE
  3
ANSI_1251
  9
$REQUIREDVERSIONS
160
                 0
  9
$INSBASE
 10
0.0
 20
0.0
 30
0.0
  9
$EXTMIN
 10
-201.89025556654
 20
-93.75
 30
0.0
  9
$EXTMAX
 10
93.74999999999997
 20
109.375
 30
0.0
  9
$LIMMIN
 10
0.0
 20
0.0
  9
$LIMMAX
 10
420.0
 20
297.0
  9
$ORTHOMODE
 70
     0
  9
$REGENMODE
 70
     1
  9
$FILLMODE
 70
     1
  9
$QTEXTMODE
 70
     0
  9
$MIRRTEXT
 70
     1
  9
$LTSCALE
 40
1.0
  9
$ATTMODE
 70
     1
  9
$TEXTSIZE
 40
2.5
  9
$TRACEWID
 40
1.0
  9
$TEXTSTYLE
  7
Standard
  9
$CLAYER
  8
0
  9
$CELTYPE
  6
ByLayer
  9
$CECOLOR
 62
   256
  9
$CELTSCALE
 40
1.0
  9
$DISPSILH
 70
     0
  9
$DIMSCALE
 40
1.0
  9
$DIMASZ
 40
2.5
  9
$DIMEXO
 40
0.625
  9
$DIMDLI
 40
3.75
  9
$DIMRND
 40
0.0
  9
$DIMDLE
 40
0.0
  9
$DIMEXE
 40
1.25
  9
$DIMTP
 40
0.0
  9
$DIMTM
 40
0.0
  9
$DIMTXT
 40
2.5
  9
$DIMCEN
 40
2.5
  9
$DIMTSZ
 40
0.0
  9
$DIMTOL
 70
     0
  9
$DIMLIM
 70
     0
  9
$DIMTIH
 70
     0
  9
$DIMTOH
 70
     0
  9
$DIMSE1
 70
     0
  9
$DIMSE2
 70
     0
  9
$DIMTAD
 70
     1
  9
$DIMZIN
 70
     8
  9
$DIMBLK
  1

  9
$DIMASO
 70
     1
  9
$DIMSHO
 70
     1
  9
$DIMPOST
  1

  9
$DIMAPOST
  1

  9
$DIMALT
 70
     0
  9
$DIMALTD
 70
     3
  9
$DIMALTF
 40
0.03937007874016
  9
$DIMLFAC
 40
1.0
  9
$DIMTOFL
 70
     1
  9
$DIMTVP
 40
0.0
  9
$DIMTIX
 70
     0
  9
$DIMSOXD
 70
     0
  9
$DIMSAH
 70
     0
  9
$DIMBLK1
  1

  9
$DIMBLK2
  1

  9
$DIMSTYLE
  2
ISO-25
  9
$DIMCLRD
 70
     0
  9
$DIMCLRE
 70
     0
  9
$DIMCLRT
 70
     0
  9
$DIMTFAC
 40
1.0
  9
$DIMGAP
 40
0.625
  9
$DIMJUST
 70
     0
  9
$DIMSD1
 70
     0
  9
$DIMSD2
 70
     0
  9
$DIMTOLJ
 70
     0
  9
$DIMTZIN
 70
     8
  9
$DIMALTZ
 70
     0
  9
$DIMALTTZ
 70
     0
  9
$DIMUPT
 70
     0
  9
$DIMDEC
 70
     2
  9
$DIMTDEC
 70
     2
  9
$DIMALTU
 70
     2
  9
$DIMALTTD
 70
     3
  9
$DIMTXSTY
  7
Standard
  9
$DIMAUNIT
 70
     0
  9
$DIMADEC
 70
     0
  9
$DIMALTRND
 40
0.0
  9
$DIMAZIN
 70
     0
  9
$DIMDSEP
 70
    44
  9
$DIMATFIT
 70
     3
  9
$DIMFRAC
 70
     0
  9
$DIMLDRBLK
  1

  9
$DIMLUNIT
 70
     2
  9
$DIMLWD
 70
    -2
  9
$DIMLWE
 70
    -2
  9
$DIMTMOVE
 70
     0
  9
$DIMFXL
 40
1.0
  9
$DIMFXLON
 70
     0
  9
$DIMJOGANG
 40
0.7853981633974483
  9
$DIMTFILL
 70
     0
  9
$DIMTFILLCLR
 70
     0
  9
$DIMARCSYM
 70
     0
  9
$DIMLTYPE
  6

  9
$DIMLTEX1
  6

  9
$DIMLTEX2
  6

  9
$DIMTXTDIRECTION
 70
     0
  9
$LUNITS
 70
     2
  9
$LUPREC
 70
     4
  9
$SKETCHINC
 40
1.0
  9
$FILLETRAD
 40
10.0
  9
$AUNITS
 70
     0
  9
$AUPREC
 70
     0
  9
$MENU
  1
.
  9
$ELEVATION
 40
0.0
  9
$PELEVATION
 40
0.0
  9
$THICKNESS
 40
0.0
  9
$LIMCHECK
 70
     0
  9
$CHAMFERA
 40
0.0
  9
$CHAMFERB
 40
0.0
  9
$CHAMFERC
 40
0.0
  9
$CHAMFERD
 40
0.0
  9
$SKPOLY
 70
     0
  9
$TDCREATE
 40
2458940.905531736
  9
$TDUCREATE
 40
2458940.780531736
  9
$TDUPDATE
 40
2458940.90553397
  9
$TDUUPDATE
 40
2458940.78053397
  9
$TDINDWG
 40
0.0000000116
  9
$TDUSRTIMER
 40
0.0000000116
  9
$USRTIMER
 70
     1
  9
$ANGBASE
 50
0.0
  9
$ANGDIR
 70
     0
  9
$PDMODE
 70
     0
  9
$PDSIZE
 40
0.0
  9
$PLINEWID
 40
0.0
  9
$SPLFRAME
 70
     0
  9
$SPLINETYPE
 70
     6
  9
$SPLINESEGS
 70
     8
  9
$HANDSEED
  5
8C
  9
$SURFTAB1
 70
     6
  9
$SURFTAB2
 70
     6
  9
$SURFTYPE
 70
     6
  9
$SURFU
 70
     6
  9
$SURFV
 70
     6
  9
$UCSBASE
  2

  9
$UCSNAME
  2

  9
$UCSORG
 10
0.0
 20
0.0
 30
0.0
  9
$UCSXDIR
 10
1.0
 20
0.0
 30
0.0
  9
$UCSYDIR
 10
0.0
 20
1.0
 30
0.0
  9
$UCSORTHOREF
  2

  9
$UCSORTHOVIEW
 70
     0
  9
$UCSORGTOP
 10
0.0
 20
0.0
 30
0.0
  9
$UCSORGBOTTOM
 10
0.0
 20
0.0
 30
0.0
  9
$UCSORGLEFT
 10
0.0
 20
0.0
 30
0.0
  9
$UCSORGRIGHT
 10
0.0
 20
0.0
 30
0.0
  9
$UCSORGFRONT
 10
0.0
 20
0.0
 30
0.0
  9
$UCSORGBACK
 10
0.0
 20
0.0
 30
0.0
  9
$PUCSBASE
  2

  9
$PUCSNAME
  2

  9
$PUCSORG
 10
0.0
 20
0.0
 30
0.0
  9
$PUCSXDIR
 10
1.0
 20
0.0
 30
0.0
  9
$PUCSYDIR
 10
0.0
 20
1.0
 30
0.0
  9
$PUCSORTHOREF
  2

  9
$PUCSORTHOVIEW
 70
     0
  9
$PUCSORGTOP
 10
0.0
 20
0.0
 30
0.0
  9
$PUCSORGBOTTOM
 10
0.0
 20
0.0
 30
0.0
  9
$PUCSORGLEFT
 10
0.0
 20
0.0
 30
0.0
  9
$PUCSORGRIGHT
 10
0.0
 20
0.0
 30
0.0
  9
$PUCSORGFRONT
 10
0.0
 20
0.0
 30
0.0
  9
$PUCSORGBACK
 10
0.0
 20
0.0
 30
0.0
  9
$USERI1
 70
     0
  9
$USERI2
 70
     0
  9
$USERI3
 70
     0
  9
$USERI4
 70
     0
  9
$USERI5
 70
     0
  9
$USERR1
 40
0.0
  9
$USERR2
 40
0.0
  9
$USERR3
 40
0.0
  9
$USERR4
 40
0.0
  9
$USERR5
 40
0.0
  9
$WORLDVIEW
 70
     1
  9
$SHADEDGE
 70
     3
  9
$SHADEDIF
 70
    70
  9
$TILEMODE
 70
     1
  9
$MAXACTVP
 70
    64
  9
$PINSBASE
 10
0.0
 20
0.0
 30
0.0
  9
$PLIMCHECK
 70
     0
  9
$PEXTMIN
 10
1.000000000000000E+20
 20
1.000000000000000E+20
 30
1.000000000000000E+20
  9
$PEXTMAX
 10
-1.000000000000000E+20
 20
-1.000000000000000E+20
 30
-1.000000000000000E+20
  9
$PLIMMIN
 10
0.0
 20
0.0
  9
$PLIMMAX
 10
420.0
 20
297.0
  9
$UNITMODE
 70
     0
  9
$VISRETAIN
 70
     1
  9
$PLINEGEN
 70
     0
  9
$PSLTSCALE
 70
     1
  9
$TREEDEPTH
 70
  3020
  9
$CMLSTYLE
  2
Standard
  9
$CMLJUST
 70
     0
  9
$CMLSCALE
 40
20.0
  9
$PROXYGRAPHICS
 70
     1
  9
$MEASUREMENT
 70
     1
  9
$CELWEIGHT
370
    -1
  9
$ENDCAPS
280
     0
  9
$JOINSTYLE
280
     0
  9
$LWDISPLAY
290
     0
  9
$INSUNITS
 70
     4
  9
$HYPERLINKBASE
  1

  9
$STYLESHEET
  1

  9
$XEDIT
290
     1
  9
$CEPSNTYPE
380
     0
  9
$PSTYLEMODE
290
     1
  9
$FINGERPRINTGUID
  2
{FB29CD2A-C3EF-40A0-A5F7-B50ED3E24EAC}
  9
$VERSIONGUID
  2
{FAEB1C32-E019-11D5-929B-00C0DF256EC4}
  9
$EXTNAMES
290
     1
  9
$PSVPSCALE
 40
0.0
  9
$OLESTARTUP
290
     0
  9
$SORTENTS
280
   127
  9
$INDEXCTL
280
     0
  9
$HIDETEXT
280
     1
  9
$XCLIPFRAME
280
     2
  9
$HALOGAP
280
     0
  9
$OBSCOLOR
 70
   257
  9
$OBSLTYPE
280
     0
  9
$INTERSECTIONDISPLAY
280
     0
  9
$INTERSECTIONCOLOR
 70
   257
  9
$DIMASSOC
280
     2
  9
$PROJECTNAME
  1

  9
$CAMERADISPLAY
290
     0
  9
$LENSLENGTH
 40
50.0
  9
$CAMERAHEIGHT
 40
0.0
  9
$STEPSPERSEC
 40
2.0
  9
$STEPSIZE
 40
6.0
  9
$3DDWFPREC
 40
2.0
  9
$PSOLWIDTH
 40
5.0
  9
$PSOLHEIGHT
 40
80.0
  9
$LOFTANG1
 40
1.570796326794897
  9
$LOFTANG2
 40
1.570796326794897
  9
$LOFTMAG1
 40
0.0
  9
$LOFTMAG2
 40
0.0
  9
$LOFTPARAM
 70
     7
  9
$LOFTNORMALS
280
     1
  9
$LATITUDE
 40
37.795
  9
$LONGITUDE
 40
-122.394
  9
$NORTHDIRECTION
 40
0.0
  9
$TIMEZONE
 70
 -8000
  9
$LIGHTGLYPHDISPLAY
280
     1
  9
$TILEMODELIGHTSYNCH
280
     1
  9
$CMATERIAL
347
44
  9
$SOLIDHIST
280
     0
  9
$SHOWHIST
280
     1
  9
$DWFFRAME
280
     2
  9
$DGNFRAME
280
     2
  9
$REALWORLDSCALE
290
     1
  9
$INTERFERECOLOR
 62
   256
  9
$CSHADOW
280
     0
  9
$SHADOWPLANELOCATION
 40
0.0
  0
ENDSEC
  0
SECTION
  2
CLASSES
  0
CLASS
  1
ACDBDICTIONARYWDFLT
  2
AcDbDictionaryWithDefault
  3
ObjectDBX Classes
 90
        0
 91
        3
280
     0
281
     0
  0
CLASS
  1
VISUALSTYLE
  2
AcDbVisualStyle
  3
ObjectDBX Classes
 90
     4095
 91
        3
280
     0
281
     0
  0
CLASS
  1
MATERIAL
  2
AcDbMaterial
  3
ObjectDBX Classes
 90
     1153
 91
        3
280
     0
281
     0
  0
CLASS
  1
SCALE
  2
AcDbScale
  3
ObjectDBX Classes
 90
     1153
 91
        3
280
     0
281
     0
  0
CLASS
  1
TABLESTYLE
  2
AcDbTableStyle
  3
ObjectDBX Classes
 90
     4095
 91
        3
280
     0
281
     0
  0
CLASS
  1
MLEADERSTYLE
  2
AcDbMLeaderStyle
  3
ACDB_MLEADERSTYLE_CLASS
 90
     4095
 91
        3
280
     0
281
     0
  0
CLASS
  1
SUN
  2
AcDbSun
  3
SCENEOE
 90
     1153
 91
        3
280
     0
281
     0
  0
CLASS
  1
DICTIONARYVAR
  2
AcDbDictionaryVar
  3
ObjectDBX Classes
 90
        0
 91
        3
280
     0
281
     0
  0
CLASS
  1
CELLSTYLEMAP
  2
AcDbCellStyleMap
  3
ObjectDBX Classes
 90
     1152
 91
        3
280
     0
281
     0
  0
ENDSEC
  0
SECTION
  2
TABLES
  0
TABLE
  2
VPORT
  5
8
330
0
100
AcDbSymbolTable
 70
     1
  0
VPORT
  5
29
330
8
100
AcDbSymbolTableRecord
100
AcDbViewportTableRecord
  2
*Active
 70
     0
 10
0.0
 20
0.0
 11
1.0
 21
1.0
 12
-54.11512778327
 22
7.8125
 13
0.0
 23
0.0
 14
10.0
 24
10.0
 15
10.0
 25
10.0
 16
0.0
 26
0.0
 36
1.0
 17
0.0
 27
0.0
 37
0.0
 40
207.1875
 41
1.455902796635273
 42
50.0
 43
0.0
 44
0.0
 50
0.0
 51
0.0
 71
     0
 72
   100
 73
     1
 74
     3
 75
     0
 76
     0
 77
     0
 78
     0
281
     0
 65
     1
110
0.0
120
0.0
130
0.0
111
1.0
121
0.0
131
0.0
112
0.0
122
1.0
132
0.0
 79
     0
146
0.0
348
2F
 60
     3
 61
     5
292
     1
282
     1
141
0.0
142
0.0
 63
   250
361
6D
  0
ENDTAB
  0
TABLE
  2
LTYPE
  5
5
330
0
100
AcDbSymbolTable
 70
     3
  0
LTYPE
  5
14
330
5
100
AcDbSymbolTableRecord
100
AcDbLinetypeTableRecord
  2
ByBlock
 70
     0
  3

 72
    65
 73
     0
 40
0.0
  0
LTYPE
  5
15
330
5
100
AcDbSymbolTableRecord
100
AcDbLinetypeTableRecord
  2
ByLayer
 70
     0
  3

 72
    65
 73
     0
 40
0.0
  0
LTYPE
  5
16
330
5
100
AcDbSymbolTableRecord
100
AcDbLinetypeTableRecord
  2
Continuous
 70
     0
  3
Solid line
 72
    65
 73
     0
 40
0.0
  0
LTYPE
  5
72
330
5
100
AcDbSymbolTableRecord
100
AcDbLinetypeTableRecord
  2
K5LT32770
 70
     0
  3

 72
    65
 73
     0
 40
0.0
  0
LTYPE
  5
74
330
5
100
AcDbSymbolTableRecord
100
AcDbLinetypeTableRecord
  2
K5LT32771
 70
     0
  3

 72
    65
 73
     0
 40
0.0
  0
ENDTAB
  0
TABLE
  2
LAYER
  5
2
330
0
100
AcDbSymbolTable
 70
     4
  0
LAYER
  5
10
330
2
100
AcDbSymbolTableRecord
100
AcDbLayerTableRecord
  2
0
 70
     0
 62
     7
  6
Continuous
370
    -3
390
F
347
46
348
0
  0
LAYER
  5
6F
330
2
100
AcDbSymbolTableRecord
100
AcDbLayerTableRecord
  2
0 (1)
 70
     0
 62
     7
  6
Continuous
370
    -3
390
F
347
46
348
0
  0
LAYER
  5
70
330
2
100
AcDbSymbolTableRecord
100
AcDbLayerTableRecord
  2
LOGO
 70
     0
 62
     1
420
 16711680
  6
Continuous
370
    -3
390
F
347
46
348
0
  0
LAYER
  5
71
330
2
100
AcDbSymbolTableRecord
100
AcDbLayerTableRecord
  2
SUPPORT
 70
     0
 62
   150
420
    32767
  6
Continuous
370
    -3
390
F
347
46
348
0
  0
ENDTAB
  0
TABLE
  2
STYLE
  5
3
330
0
100
AcDbSymbolTable
 70
     1
  0
STYLE
  5
11
330
3
100
AcDbSymbolTableRecord
100
AcDbTextStyleTableRecord
  2
Standard
 70
     0
 40
0.0
 41
1.0
 50
0.0
 71
     0
 42
2.5
  3
txt
  4

  0
ENDTAB
  0
TABLE
  2
VIEW
  5
6
330
0
100
AcDbSymbolTable
 70
     0
  0
ENDTAB
  0
TABLE
  2
UCS
  5
7
330
0
100
AcDbSymbolTable
 70
     0
  0
ENDTAB
  0
TABLE
  2
APPID
  5
9
330
0
100
AcDbSymbolTable
 70
     2
  0
APPID
  5
12
330
9
100
AcDbSymbolTableRecord
100
AcDbRegAppTableRecord
  2
ACAD
 70
     0
  0
APPID
  5
6E
330
9
100
AcDbSymbolTableRecord
100
AcDbRegAppTableRecord
  2
KOMPAS
 70
     0
  0
ENDTAB
  0
TABLE
  2
DIMSTYLE
  5
A
330
0
100
AcDbSymbolTable
 70
     1
100
AcDbDimStyleTable
  0
DIMSTYLE
105
27
330
A
100
AcDbSymbolTableRecord
100
AcDbDimStyleTableRecord
  2
ISO-25
 70
     0
 41
2.5
 42
0.625
 43
3.75
 44
1.25
 73
     0
 74
     0
 77
     1
 78
     8
140
2.5
141
2.5
143
0.03937007874016
147
0.625
171
     3
172
     1
178
     0
271
     2
272
     2
274
     3
278
    44
283
     0
284
     8
340
11
  0
ENDTAB
  0
TABLE
  2
BLOCK_RECORD
  5
1
330
0
100
AcDbSymbolTable
 70
     1
  0
BLOCK_RECORD
  5
1F
330
1
100
AcDbSymbolTableRecord
100
AcDbBlockTableRecord
  2
*Model_Space
340
22
 70
     0
280
     1
281
     0
  0
BLOCK_RECORD
  5
1B
330
1
100
AcDbSymbolTableRecord
100
AcDbBlockTableRecord
  2
*Paper_Space
340
1E
 70
     0
280
     1
281
     0
  0
BLOCK_RECORD
  5
23
330
1
100
AcDbSymbolTableRecord
100
AcDbBlockTableRecord
  2
*Paper_Space0
340
26
 70
     0
280
     1
281
     0
  0
ENDTAB
  0
ENDSEC
  0
SECTION
  2
BLOCKS
  0
BLOCK
  5
20
330
1F
100
AcDbEntity
  8
0
100
AcDbBlockBegin
  2
*Model_Space
 70
     0
 10
0.0
 20
0.0
 30
0.0
  3
*Model_Space
  1

  0
ENDBLK
  5
21
330
1F
100
AcDbEntity
  8
0
100
AcDbBlockEnd
  0
BLOCK
  5
1C
330
1B
100
AcDbEntity
 67
     1
  8
0
100
AcDbBlockBegin
  2
*Paper_Space
 70
     0
 10
0.0
 20
0.0
 30
0.0
  3
*Paper_Space
  1

  0
ENDBLK
  5
1D
330
1B
100
AcDbEntity
 67
     1
  8
0
100
AcDbBlockEnd
  0
BLOCK
  5
24
330
23
100
AcDbEntity
  8
0
100
AcDbBlockBegin
  2
*Paper_Space0
 70
     0
 10
0.0
 20
0.0
 30
0.0
  3
*Paper_Space0
  1

  0
ENDBLK
  5
25
330
23
100
AcDbEntity
  8
0
100
AcDbBlockEnd
  0
ENDSEC
  0
SECTION
  2
ENTITIES
  0
CIRCLE
  5
73
330
1F
100
AcDbEntity
  8
LOGO
  6
K5LT32770
 62
     1
420
 16711680
370
    18
100
AcDbCircle
 10
0.0
 20
0.0
 30
0.0
 40
31.25
  0
LWPOLYLINE
  5
75
330
1F
100
AcDbEntity
  8
LOGO
  6
K5LT32771
 62
     1
420
 16711680
370
    18
100
AcDbPolyline
 90
        4
 70
     1
 43
0.0
 10
-0.0000000000000317
 20
-78.125
 42
0.9999999999999999
 10
0.0
 20
78.125
 10
-0.0000000000000151
 20
93.75
 42
-0.9999999999999999
 10
0.0
 20
-93.75
  0
LWPOLYLINE
  5
76
330
1F
100
AcDbEntity
  8
LOGO
  6
K5LT32771
 62
     1
420
 16711680
370
    18
100
AcDbPolyline
 90
        4
 70
     1
 43
0.0
 10
-43.44058190275246
 20
-44.93512928600559
 42
2.385638399092337
 10
-44.19417382415668
 20
44.19417382416032
 10
-33.14563036811858
 20
33.14563036811951
 42
-2.385638399092332
 10
-32.58043642706434
 20
-33.7013469645035
  0
LWPOLYLINE
  5
77
330
1F
100
AcDbEntity
  8
LOGO
  6
K5LT32771
 62
     1
420
 16711680
370
    18
100
AcDbPolyline
 90
        4
 70
     1
 43
0.0
 10
-93.75
 20
0.0000000000000115
 42
-0.4142135623730951
 10
0.0
 20
93.75
 10
0.0000000000000084
 20
109.375
 42
0.4142135623730944
 10
-109.3749999999995
 20
0.0
  0
LWPOLYLINE
  5
78
330
1F
100
AcDbEntity
  8
LOGO
  6
K5LT32770
 62
     1
420
 16711680
100
AcDbPolyline
 90
        4
 70
     1
 43
0.18
 10
-157.2086335259996
 20
-7.722246214740153
 10
-152.2857317409198
 20
-7.722246214740153
 10
-152.2857317409198
 20
-45.30349656677936
 10
-157.2086335259996
 20
-45.30349656677936
  0
LWPOLYLINE
  5
79
330
1F
100
AcDbEntity
  8
LOGO
  6
K5LT32770
 62
     1
420
 16711680
100
AcDbPolyline
 90
        4
 70
     1
 43
0.18
 10
-105.4707024194377
 20
-30.47881547323959
 10
-105.1429363039915
 20
-30.84659315098361
 10
-102.2407425859051
 20
-29.22852091553523
 10
-103.2368523579298
 20
-28.10248358812896
  0
LWPOLYLINE
  5
7A
330
1F
100
AcDbEntity
  8
LOGO
  6
K5LT32770
 62
     1
420
 16711680
100
AcDbPolyline
 90
        4
 70
     1
 43
0.18
 10
-103.5510939712099
 20
-32.8649976002207
 10
-97.91045804329224
 20
-39.85805310105752
 10
-96.14114758805408
 20
-36.95897615362082
 10
-100.6538396490605
 20
-31.20983482395422
  0
LWPOLYLINE
  5
7B
330
1F
100
AcDbEntity
  8
LOGO
  6
K5LT32770
 62
     1
420
 16711680
100
AcDbPolyline
 90
      581
 70
     1
 43
0.18
 10
-63.0256591041034
 20
-18.695519575449
 10
-63.04866210317959
 20
-18.35255561525173
 10
-63.07646393058803
 20
-18.01009693407377
 10
-63.11386341465186
 20
-17.66864881094079
 10
-63.16555518342648
 20
-17.32874067115699
 10
-63.23413235501084
 20
-16.99138892200335
 10
-63.32023847635355
 20
-16.65806174402223
 10
-63.4244433355525
 20
-16.33024440986082
 10
-63.54722033181224
 20
-16.00935245518576
 10
-63.68775697565434
 20
-15.69587108028645
 10
-63.84432523602118
 20
-15.38962309471663
 10
-64.01517745203182
 20
-15.09041710594465
 10
-64.19856596281261
 20
-14.79806172143799
 10
-64.39284837036757
 20
-14.51244477300133
 10
-64.59777858042344
 20
-14.234504996949
 10
-64.81410071834398
 20
-13.96592640175459
 10
-65.04257993678402
 20
-13.70840882172979
 10
-65.2839813883993
 20
-13.46365209118721
 10
-65.53906984916557
 20
-13.23335571866482
 10
-65.80813559714443
 20
-13.01880885522496
 10
-66.09006691659124
 20
-12.82008817309543
 10
-66.38349440246293
 20
-12.63704748845612
 10
-66.6870486497146
 20
-12.46954061748147
 10
-66.99936025330953
 20
-12.31742137634865
 10
-67.31905980820648
 20
-12.18054358123936
 10
-67.6447779093578
 20
-12.05876104831896
 10
-67.97514515172679
 20
-11.95192759377096
 10
-68.30879324835223
 20
-11.85989551629245
 10
-68.64465532959548
 20
-11.78210802502326
 10
-68.98237179020362
 20
-11.71704841591509
 10
-69.32168435270341
 20
-11.66306246084605
 10
-69.66233473961984
 20
-11.61849593169791
 10
-70.00406467348421
 20
-11.58169460034878
 10
-70.34661587681603
 20
-11.55100423868498
 10
-70.68973951013413
 20
-11.52491532886779
 10
-71.03326755159196
 20
-11.50315751003109
 10
-71.37707303565276
 20
-11.48608992738991
 10
-71.7210293198259
 20
-11.47407667950483
 10
-72.0650097616317
 20
-11.46748186493278
 10
-72.40888771857954
 20
-11.46666958223886
 10
-72.7525365481888
 20
-11.4720039299782
 10
-73.09582960797161
 20
-11.48384900670862
 10
-73.43864025544462
 20
-11.50256891099161
 10
-73.78084287809179
 20
-11.52852302580231
 10
-74.12234675969376
 20
-11.5619109659965
 10
-74.46310374582117
 20
-11.60273748284999
 10
-74.80306826408832
 20
-11.6509955060792
 10
-75.1421947421095
 20
-11.70667796539874
 10
-75.48043760750352
 20
-11.76977779052595
 10
-75.81775128788468
 20
-11.84028791118089
 10
-76.15409021086907
 20
-11.91820125707727
 10
-76.48921376588987
 20
-12.00378256548902
 10
-76.82163886305625
 20
-12.09902810782478
 10
-77.14939485579907
 20
-12.20661362035571
 10
-77.47050994645542
 20
-12.32921644352609
 10
-77.78301233736784
 20
-12.46951391776929
 10
-78.08498631616749
 20
-12.63006042186862
 10
-78.37552243256687
 20
-12.81120420092884
 10
-78.65458131643209
 20
-13.01138593225551
 10
-78.92215226589178
 20
-13.22898344074019
 10
-79.17822457906459
 20
-13.46237455128085
 10
-79.4227875540737
 20
-13.70993708876904
 10
-79.65583048904136
 20
-13.97004887809999
 10
-79.87734268207168
 20
-14.24108774418073
 10
-80.08581898425382
 20
-14.52195643011692
 10
-80.27381584938212
 20
-14.81364351602315
 10
-80.43241491482149
 20
-15.11765560506137
 10
-80.55271282395461
 20
-15.43549468459241
 10
-80.63097061821554
 20
-15.76707419036848
 10
-80.67614372363823
 20
-16.10840280778393
 10
-80.69910286521099
 20
-16.45490008267279
 10
-80.71071876792485
 20
-16.80198556086452
 10
-80.71962254929531
 20
-17.14605534934708
 10
-80.72296811386059
 20
-17.4885100929796
 10
-80.71424274515994
 20
-17.83234923449436
 10
-80.68660375531454
 20
-18.17930692857772
 10
-80.63114145905911
 20
-18.52314797782765
 10
-80.53814389796025
 20
-18.8545440037451
 10
-80.39801955770417
 20
-19.16423747031968
 10
-80.20950507347152
 20
-19.44826384968837
 10
-79.98485298421383
 20
-19.71124873224471
 10
-79.7375524793697
 20
-19.95860366941452
 10
-79.48003256335596
 20
-20.19518430242169
 10
-79.21584268983588
 20
-20.42119026164528
 10
-78.94410371264803
 20
-20.63449903195578
 10
-78.66390395647886
 20
-20.83297104150734
 10
-78.37433174602756
 20
-21.01446671845224
 10
-78.07447563526966
 20
-21.17684694573472
 10
-77.76414223914162
 20
-21.31939692343076
 10
-77.44544591729846
 20
-21.44597940210224
 10
-77.12096371977987
 20
-21.56137490652236
 10
-76.79327269661553
 20
-21.67036396145704
 10
-76.46494926799096
 20
-21.77772585474486
 10
-76.13786018849623
 20
-21.88684619812648
 10
-75.81180128321557
 20
-21.997043610334
 10
-75.48619265477555
 20
-22.10689884791282
 10
-75.16045440579728
 20
-22.21499266740739
 10
-74.83400663890825
 20
-22.31990582536309
 10
-74.50626945672957
 20
-22.42021907831986
 10
-74.17668113041418
 20
-22.5145619310606
 10
-73.84513410949057
 20
-22.6027825011397
 10
-73.5119961549999
 20
-22.68600422149211
 10
-73.1776574258738
 20
-22.7654106211512
 10
-72.84250808103843
 20
-22.84218522915398
 10
-72.50693827942177
 20
-22.91751157454382
 10
-72.17133810497944
 20
-22.99257297302574
 10
-71.83601053435632
 20
-23.06830488819105
 10
-71.501003464512
 20
-23.14491698878373
 10
-71.16631834531381
 20
-23.22248678458163
 10
-70.83195662662911
 20
-23.30109178536804
 10
-70.4979197583225
 20
-23.3808095009208
 10
-70.1642091902595
 20
-23.46171744102594
 10
-69.83082637230928
 20
-23.54389311546038
 10
-69.49776670279971
 20
-23.62738454724877
 10
-69.16499427162125
 20
-23.71208720558298
 10
-68.83246307385798
 20
-23.79784737159207
 10
-68.50012709966086
 20
-23.88451130240628
 10
-68.16794033918723
 20
-23.97192525515402
 10
-67.83585678259169
 20
-24.05993548696551
 10
-67.50383042003159
 20
-24.14838825496554
 10
-67.17181524165971
 20
-24.23712981628432
 10
-66.83976535050897
 20
-24.32600676661605
 10
-66.50772898127889
 20
-24.4151480482451
 10
-66.17601926090083
 20
-24.50547714383993
 10
-65.84499557140771
 20
-24.59805627756123
 10
-65.51501729482152
 20
-24.69394767357335
 10
-65.18644381316972
 20
-24.7942135560279
 10
-64.85963450848158
 20
-24.89991614909195
 10
-64.53494876278455
 20
-25.01211767692803
 10
-64.21274690167684
 20
-25.13185452210564
 10
-63.89340724276826
 20
-25.25967031830351
 10
-63.57732424807455
 20
-25.39566655121507
 10
-63.26489295229567
 20
-25.53992902239952
 10
-62.95650839012251
 20
-25.69254353341694
 10
-62.65256559625868
 20
-25.85359588582742
 10
-62.35345960539871
 20
-26.02317188118559
 10
-62.05955744940911
 20
-26.20132838696736
 10
-61.77095495643789
 20
-26.38784204781405
 10
-61.48759574375163
 20
-26.58233223557818
 10
-61.20942174284482
 20
-26.78441658027805
 10
-60.93637488520471
 20
-26.99371271193468
 10
-60.66839710232944
 20
-27.20983826056909
 10
-60.40543032571259
 20
-27.43241085620684
 10
-60.14741728678928
 20
-27.66104873736822
 10
-59.89461795451916
 20
-27.89561146122196
 10
-59.64809179745862
 20
-28.13656675433776
 10
-59.40902226893832
 20
-28.38447665695821
 10
-59.1785928222871
 20
-28.63990320932953
 10
-58.95798691083837
 20
-28.90340845169339
 10
-58.74838798791916
 20
-29.17555442429784
 10
-58.55091755520152
 20
-29.45683007413299
 10
-58.36602947450956
 20
-29.74693663772086
 10
-58.19377057866222
 20
-30.04509512112872
 10
-58.03418190640059
 20
-30.35051969430333
 10
-57.8873044964721
 20
-30.66242452719507
 10
-57.753179387616
 20
-30.98002378975616
 10
-57.63184093837572
 20
-31.30254374918513
 10
-57.52323861815967
 20
-31.62936439942041
 10
-57.42726348737415
 20
-31.9599715079521
 10
-57.34380545541899
 20
-32.29385292662573
 10
-57.27275443169947
 20
-32.63049650729772
 10
-57.21400032561723
 20
-32.96939010180722
 10
-57.16741778956475
 20
-33.3100348632488
 10
-57.13274492822711
 20
-33.65205098863407
 10
-57.10964791458355
 20
-33.99512138587306
 10
-57.09779227692252
 20
-34.33892952493898
 10
-57.09684354352976
 20
-34.68315887580229
 10
-57.10646724269191
 20
-35.02749290842985
 10
-57.12635012647115
 20
-35.37160889440111
 10
-57.15658711281594
 20
-35.71506490064166
 10
-57.19764125087659
 20
-36.05731148153518
 10
-57.24998877988764
 20
-36.39779533931232
 10
-57.31410593907003
 20
-36.73596317620468
 10
-57.39046896765376
 20
-37.07126169443927
 10
-57.47955410486884
 20
-37.40313759624678
 10
-57.58173639497181
 20
-37.73107741828971
 10
-57.69653296830711
 20
-38.05490540683786
 10
-57.82302872572473
 20
-38.37461595116838
 10
-57.96030527006496
 20
-38.69020473878936
 10
-58.10744420416631
 20
-39.00166745720253
 10
-58.2635271308709
 20
-39.30899979391688
 10
-58.4276369045001
 20
-39.61219681636067
 10
-58.5992458321407
 20
-39.91106062708332
 10
-58.77876587203082
 20
-40.20492775313778
 10
-58.96674786117092
 20
-40.49306591034929
 10
-59.16374263657053
 20
-40.77474281453397
 10
-59.37030103523466
 20
-41.04922618152068
 10
-59.58697017380746
 20
-41.31578609265034
 10
-59.81385940364817
 20
-41.5739709740692
 10
-60.05023445891948
 20
-41.82386565002344
 10
-60.29526506072216
 20
-42.06561599286033
 10
-60.54812093015516
 20
-42.29936787491806
 10
-60.80797178831745
 20
-42.52526716853845
 10
-61.07398746304079
 20
-42.74345979196187
 10
-61.34547327013115
 20
-42.95414992789028
 10
-61.62213518835142
 20
-43.15771405777014
 10
-61.90375290406973
 20
-43.35456035984589
 10
-62.19011481642337
 20
-43.54505365148543
 10
-62.48115086426787
 20
-43.7288543485929
 10
-62.77690595580862
 20
-43.90505069855408
 10
-63.07742832583335
 20
-44.07271439334272
 10
-63.38276620912438
 20
-44.23091712493533
 10
-63.69296784046401
 20
-44.37873058531113
 10
-64.00805714551097
 20
-44.51529705901794
 10
-64.32738561649512
 20
-44.64171154575524
 10
-64.64956259017163
 20
-44.76122422996559
 10
-64.97315972767774
 20
-44.87719489157462
 10
-65.29721590792451
 20
-44.9917675398674
 10
-65.62206738983605
 20
-45.10371020691673
 10
-65.94827380195966
 20
-45.21120968358173
 10
-66.27639468278085
 20
-45.31245300975206
 10
-66.60683706982945
 20
-45.40604890774011
 10
-66.9395434379876
 20
-45.49189066827421
 10
-67.27436811886764
 20
-45.57011530822547
 10
-67.61116544407378
 20
-45.64085984446319
 10
-67.94978974521655
 20
-45.70426129385669
 10
-68.29009535390651
 20
-45.76045667328162
 10
-68.63193660174875
 20
-45.80958299960184
 10
-68.97516782035564
 20
-45.85177728969302
 10
-69.31964334133409
 20
-45.88717656042445
 10
-69.665217496291
 20
-45.9159178286618
 10
-70.01174461684059
 20
-45.93813811128166
 10
-70.3590790345861
 20
-45.95397442515423
 10
-70.70707508113901
 20
-45.96356378714609
 10
-71.05558708810804
 20
-45.96704321413017
 10
-71.40446938710193
 20
-45.96454972297488
 10
-71.7535763097303
 20
-45.95622033055588
 10
-72.10276218759918
 20
-45.94219205373793
 10
-72.45188135232183
 20
-45.92260190939578
 10
-72.80078813550153
 20
-45.89758691439602
 10
-73.14933686875156
 20
-45.86728408561248
 10
-73.49738188368065
 20
-45.83183043991266
 10
-73.84477751189206
 20
-45.79136299417132
 10
-74.1913780850009
 20
-45.74601876525503
 10
-74.537037934615
 20
-45.69593477003582
 10
-74.88161139234035
 20
-45.64124802538299
 10
-75.22495278978658
 20
-45.58209554816676
 10
-75.56691645856245
 20
-45.5186143552628
 10
-75.9073567302803
 20
-45.45094146353495
 10
-76.24612793654796
 20
-45.37921388985706
 10
-76.5830844089678
 20
-45.30356865110025
 10
-76.91813617070329
 20
-45.22405649083794
 10
-77.25141663307932
 20
-45.14038209594401
 10
-77.58311521040287
 20
-45.05216339755953
 10
-77.91342131697184
 20
-44.95901832682102
 10
-78.24252040884767
 20
-44.86056171636028
 10
-78.57021278824504
 20
-44.75610690009489
 10
-78.8955965183568
 20
-44.64441749878461
 10
-79.21769502261122
 20
-44.52419870510312
 10
-79.53553172442844
 20
-44.39415571173231
 10
-79.84818680663011
 20
-44.25308637262242
 10
-80.15557618818002
 20
-44.10115290389422
 10
-80.45825227763362
 20
-43.93955660837855
 10
-80.75678346479344
 20
-43.76952487871858
 10
-81.05173813945567
 20
-43.59228510756202
 10
-81.34368469141555
 20
-43.40906468755384
 10
-81.63319151047926
 20
-43.22109101134174
 10
-81.92070446423168
 20
-43.02944601403033
 10
-82.20533228106524
 20
-42.83362418809702
 10
-82.4853606891511
 20
-42.63214296571005
 10
-82.75906337697688
 20
-42.42350548560898
 10
-83.02471403303116
 20
-42.20621488654433
 10
-83.28058634580339
 20
-41.97877430725566
 10
-83.52500751431671
 20
-41.73974033796003
 10
-83.75766084043153
 20
-41.48902417505633
 10
-83.97965926151574
 20
-41.22796507264502
 10
-84.1921839448496
 20
-40.95797043943276
 10
-84.39641605771521
 20
-40.68044768413347
 10
-84.59353676739647
 20
-40.39680421545472
 10
-84.7847272411791
 20
-40.1084474421059
 10
-84.97116864634063
 20
-39.81678477280093
 10
-85.15403709930706
 20
-39.52322002487654
 10
-85.33340789706108
 20
-39.2283742873442
 10
-85.50688534584788
 20
-38.93111167218831
 10
-85.67173708648352
 20
-38.63005690830505
 10
-85.8252307597977
 20
-38.32383472458605
 10
-85.96484433316255
 20
-38.01118286809287
 10
-86.0906462401781
 20
-37.69223106293521
 10
-86.20444793012848
 20
-37.36804563599435
 10
-86.30809330298416
 20
-37.03971035140239
 10
-86.40342625871654
 20
-36.70830897329324
 10
-86.49229069730427
 20
-36.3749252657999
 10
-86.576143039194
 20
-36.04049657616088
 10
-86.65430235533586
 20
-35.70515261131732
 10
-86.72535476115263
 20
-35.36874611627991
 10
-86.78788571741552
 20
-35.03112958869679
 10
-86.8404806848921
 20
-34.69215552621699
 10
-86.8818038462041
 20
-34.35168606746174
 10
-86.9125900580575
 20
-34.00983694426395
 10
-86.9358005512795
 20
-33.66699655008506
 10
-86.95450646986865
 20
-33.32356673933373
 10
-83.51623297473907
 20
-32.87508301886373
 10
-82.22573250673759
 20
-33.04475684719
 10
-82.18100448429777
 20
-33.38537294999423
 10
-82.12871718363658
 20
-33.72483349363574
 10
-82.06562619074612
 20
-34.06255905445596
 10
-81.99149642314478
 20
-34.39816372741006
 10
-81.90669226419959
 20
-34.73130015682
 10
-81.81155507357198
 20
-35.06161742467702
 10
-81.70600161465609
 20
-35.38869891753438
 10
-81.58957527969415
 20
-35.71207025227613
 10
-81.46180673534491
 20
-36.03125507683399
 10
-81.32222950292999
 20
-36.34575755970491
 10
-81.17041913116282
 20
-36.65479508547924
 10
-81.00598317384174
 20
-36.95736664432116
 10
-80.82852998822
 20
-37.25246574388802
 10
-80.63766793154718
 20
-37.53908589183266
 10
-80.43300536633797
 20
-37.81622059722213
 10
-80.21437310346755
 20
-38.08292328987955
 10
-79.98241631989276
 20
-38.33846676481426
 10
-79.73796650098666
 20
-38.58217400280228
 10
-79.48185513212047
 20
-38.81336798461416
 10
-79.2149136986709
 20
-39.03137169102411
 10
-78.93797368600372
 20
-39.23550810280176
 10
-78.6519006553599
 20
-39.42539472056251
 10
-78.3577305544095
 20
-39.60212170573323
 10
-78.05655247716186
 20
-39.76723856686294
 10
-77.74945553513408
 20
-39.92229496385789
 10
-77.43752883984052
 20
-40.06884055661976
 10
-77.1218615028074
 20
-40.20842500505114
 10
-76.80354232993886
 20
-40.34259726753771
 10
-76.48337550864744
 20
-40.47225295692078
 10
-76.16135314178791
 20
-40.5964235352285
 10
-75.83732344144755
 20
-40.71381016129999
 10
-75.51113461970544
 20
-40.82311399397986
 10
-75.1826348886425
 20
-40.92303619210543
 10
-74.85167246033961
 20
-41.01227791452129
 10
-74.51809554764623
 20
-41.08954032438396
 10
-74.18184986353208
 20
-41.15407418809809
 10
-73.84324811153147
 20
-41.20719897917388
 10
-73.50268932594918
 20
-41.2507208132738
 10
-73.16057254108546
 20
-41.28644580605305
 10
-72.8172967912451
 20
-41.31618007316683
 10
-72.47326111072744
 20
-41.34172973027671
 10
-72.1288629797964
 20
-41.36488182007361
 10
-71.78440243450495
 20
-41.38622743840551
 10
-71.44002600551539
 20
-41.40447368726473
 10
-71.09586672613386
 20
-41.41816201366055
 10
-70.75205762966925
 20
-41.4258338645941
 10
-70.40873174942499
 20
-41.42603068707558
 10
-70.06602211870995
 20
-41.41729392810976
 10
-69.72406177083212
 20
-41.39816503470865
 10
-69.38298026572284
 20
-41.36730250117398
 10
-69.04286643912201
 20
-41.32473716291315
 10
-68.70378268777495
 20
-41.27139080790585
 10
-68.36579096028981
 20
-41.20820032567372
 10
-68.0289532052775
 20
-41.13610260573205
 10
-67.69333137134345
 20
-41.05603453759704
 10
-67.35898750039996
 20
-40.96893275856837
 10
-67.02614072191955
 20
-40.87530928043725
 10
-66.6954884324141
 20
-40.77438330482164
 10
-66.36781871922994
 20
-40.66512888572015
 10
-66.0439196697098
 20
-40.54652007712502
 10
-65.72457937120726
 20
-40.41753093304033
 10
-65.4105859110623
 20
-40.27713550745466
 10
-65.10272737662308
 20
-40.12430785436845
 10
-64.80179185523593
 20
-39.95802202777577
 10
-64.50858519485064
 20
-39.77728254801787
 10
-64.22424857278293
 20
-39.58166915542461
 10
-63.95022227477875
 20
-39.37127467742084
 10
-63.68795707333902
 20
-39.14620993026892
 10
-63.43890374095918
 20
-38.90658573022847
 10
-63.20451305013194
 20
-38.65251289355729
 10
-62.98623577335729
 20
-38.38410223651317
 10
-62.78550647867996
 20
-38.10163996495703
 10
-62.60366641278688
 20
-37.80642235282085
 10
-62.44202348361796
 20
-37.50010651747016
 10
-62.30188555746099
 20
-37.18435002712522
 10
-62.18456050059558
 20
-36.8608104500081
 10
-62.09133007579476
 20
-36.53113756681796
 10
-62.02205218157997
 20
-36.19655637400501
 10
-61.97445590304869
 20
-35.85765677484414
 10
-61.94609604331163
 20
-35.51497667872627
 10
-61.9345274054831
 20
-35.16905399503503
 10
-61.93730479266742
 20
-34.82042663316133
 10
-61.95216646006793
 20
-34.4697098628003
 10
-61.98027782474128
 20
-34.11896416094896
 10
-62.02584175235188
 20
-33.77153087288843
 10
-62.09316626179771
 20
-33.43079568619032
 10
-62.186559371974
 20
-33.10014428841987
 10
-62.31032910177055
 20
-32.78296236715596
 10
-62.46866625884559
 20
-32.48258372490727
 10
-62.66120811033124
 20
-32.20032648129109
 10
-62.88167847505883
 20
-31.93489109246184
 10
-63.12340614333789
 20
-31.68480315014767
 10
-63.37972277473091
 20
-31.448588879417
 10
-63.64547711022988
 20
-31.22510937390416
 10
-63.9195233369519
 20
-31.01410985778512
 10
-64.20136901802289
 20
-30.81547977629361
 10
-64.49052171656058
 20
-30.62910857466159
 10
-64.78648899569089
 20
-30.45488569812187
 10
-65.08877841853518
 20
-30.29270059191003
 10
-65.39689650871242
 20
-30.14243591189552
 10
-65.71028431379455
 20
-30.0035466664458
 10
-66.02827956612145
 20
-29.87481307516828
 10
-66.35021089363181
 20
-29.75495589359889
 10
-66.6754069242661
 20
-29.64269587728813
 10
-67.00319628597117
 20
-29.53675378177286
 10
-67.3329076066857
 20
-29.43585036259901
 10
-67.66386951435379
 20
-29.33870637531163
 10
-67.99546484513394
 20
-29.24413724713941
 10
-68.32747259500775
 20
-29.15165027677631
 10
-68.65984758472132
 20
-29.06105983125326
 10
-68.99254542786457
 20
-28.97218166226503
 10
-69.3255217380347
 20
-28.88483152150911
 10
-69.65873212881979
 20
-28.79882516067664
 10
-69.99213221381706
 20
-28.7139783314642
 10
-70.3256776066155
 20
-28.63010678556111
 10
-70.65932392080776
 20
-28.54702627467213
 10
-70.99302676999105
 20
-28.46455255048568
 10
-71.32674176775163
 20
-28.38250136469378
 10
-71.66042452768761
 20
-28.30068846900031
 10
-71.99403066339164
 20
-28.21892961509002
 10
-72.32751578845091
 20
-28.13704055466405
 10
-72.66083551646352
 20
-28.05483703941627
 10
-72.99394546102121
 20
-27.9721348210378
 10
-73.32680123571572
 20
-27.88874965122795
 10
-73.65935845413969
 20
-27.8044972816806
 10
-73.9915727298876
 20
-27.71919346408686
 10
-74.32339967654752
 20
-27.63265395014514
 10
-74.6547949077194
 20
-27.54469449154931
 10
-74.98571403698952
 20
-27.45513083999322
 10
-75.31611267795597
 20
-27.36377874717255
 10
-75.64594644420504
 20
-27.27045396478115
 10
-75.97517094933482
 20
-27.17497224451563
 10
-76.3037449821386
 20
-27.07715505804117
 10
-76.63166207642371
 20
-26.97688646849292
 10
-76.95893719442847
 20
-26.87408914127991
 10
-77.28558561366299
 20
-26.76868630977697
 10
-77.61162261164645
 20
-26.66060120734619
 10
-77.93706346588624
 20
-26.54975706735695
 10
-78.261923453897
 20
-26.43607712318135
 10
-78.58621785319428
 20
-26.3194846081833
 10
-78.90986596148014
 20
-26.19978172412448
 10
-79.23214618433849
 20
-26.07596250065399
 10
-79.55207443701511
 20
-25.94668996418841
 10
-79.86866584340714
 20
-25.81062614324583
 10
-80.18093552741539
 20
-25.66643306634523
 10
-80.48789861294517
 20
-25.51277276200381
 10
-80.78857022389366
 20
-25.34830725874053
 10
-81.0819713163537
 20
-25.17170884499228
 10
-81.36760572685307
 20
-24.98249928627229
 10
-81.64581425267534
 20
-24.78167271873099
 10
-81.91702112655184
 20
-24.57037005711118
 10
-82.18165058121576
 20
-24.34973221613018
 10
-82.44012684939935
 20
-24.12090011052169
 10
-82.69287416383122
 20
-23.88501465501122
 10
-82.94025657933162
 20
-23.64315738667119
 10
-83.18176982694786
 20
-23.39555306586135
 10
-83.4162572544601
 20
-23.14178274514597
 10
-83.64254632974644
 20
-22.88141180836828
 10
-83.85946452069311
 20
-22.61400563935877
 10
-84.0658392951791
 20
-22.33912962196428
 10
-84.26049812108249
 20
-22.05634914001803
 10
-84.44226846628862
 20
-21.76522957735779
 10
-84.61014557649196
 20
-21.46551391590401
 10
-84.7639621083872
 20
-21.15783156338784
 10
-84.90381146112486
 20
-20.84308793160562
 10
-85.0297871178509
 20
-20.52218852126862
 10
-85.14198256171221
 20
-20.19603883309173
 10
-85.24049128885872
 20
-19.86554399059878
 10
-85.32541028152082
 20
-19.53150801620814
 10
-85.39684469247914
 20
-19.19449797457401
 10
-85.45490084357971
 20
-18.85504702585695
 10
-85.4996850566713
 20
-18.51368833021388
 10
-85.53130365359812
 20
-18.17095504779627
 10
-85.54986295620984
 20
-17.82738033876103
 10
-85.55554582472905
 20
-17.48348011066628
 10
-85.5489617217354
 20
-17.13967411016984
 10
-85.53086786085532
 20
-16.7963487792158
 10
-85.50202159944274
 20
-16.45389052734299
 10
-85.46311757975218
 20
-16.1126572453195
 10
-85.41380948580081
 20
-15.77253417901102
 10
-85.35308121840262
 20
-15.4333917610702
 10
-85.28036683601385
 20
-15.0960379920125
 10
-85.19517446134432
 20
-14.76142864833218
 10
-85.09701221711293
 20
-14.43051950651989
 10
-84.98538822603587
 20
-14.10426634307169
 10
-84.85981061082839
 20
-13.7836249344773
 10
-84.71978749420578
 20
-13.46955105722463
 10
-84.56512145903889
 20
-13.16279723772914
 10
-84.39710227432897
 20
-12.8630894773878
 10
-84.21748813871181
 20
-12.56983044569733
 10
-84.02803742516971
 20
-12.28242269180464
 10
-83.83050850668405
 20
-12.00026876486118
 10
-83.62629336836562
 20
-11.72298926315671
 10
-83.41527864288219
 20
-11.45110066832967
 10
-83.19696440580356
 20
-11.18534951449874
 10
-82.97085073243761
 20
-10.92648233594991
 10
-82.73643769809223
 20
-10.67524566696375
 10
-82.49322882773595
 20
-10.43238431493228
 10
-82.2410573945208
 20
-10.19847801629021
 10
-81.98035464595796
 20
-9.973807163321908
 10
-81.71161495781871
 20
-9.758620546486782
 10
-81.43533270587704
 20
-9.55316695624424
 10
-81.15200226590332
 20
-9.357695183051874
 10
-80.8621177914838
 20
-9.172451414344323
 10
-80.56615927579969
 20
-8.997515942101927
 10
-80.26458427290345
 20
-8.832706173901897
 10
-79.95784834810729
 20
-8.677816218370026
 10
-79.64641388641849
 20
-8.532614719666526
 10
-79.33082953561734
 20
-8.396548220134719
 10
-79.01170310321686
 20
-8.268842361921088
 10
-78.68964355294702
 20
-8.148718469939013
 10
-78.36525944699224
 20
-8.035398261335104
 10
-78.03897064123521
 20
-7.928287785629436
 10
-77.71070786149994
 20
-7.827270885079997
 10
-77.3803236207832
 20
-7.732307801925344
 10
-77.04770526803259
 20
-7.643363139406574
 10
-76.71293431411777
 20
-7.560425807361753
 10
-76.37615951554562
 20
-7.483493133928278
 10
-76.03752969423476
 20
-7.412562455417174
 10
-75.69719367210564
 20
-7.347631108154019
 10
-75.35530027107416
 20
-7.288696428454386
 10
-75.01199831305621
 20
-7.235755752635669
 10
-74.66743661997589
 20
-7.188806417026171
 10
-74.32176401374727
 20
-7.14784575793783
 10
-73.97512931628899
 20
-7.112871111689856
 10
-73.62768134952057
 20
-7.083879814607826
 10
-73.27956893535884
 20
-7.060869203007314
 10
-72.93094089572423
 20
-7.043836613206622
 10
-72.58194605253266
 20
-7.032779381524961
 10
-72.23273322770274
 20
-7.027694844285179
 10
-71.8834512431531
 20
-7.02858033780376
 10
-71.5342489208033
 20
-7.035433198399915
 10
-71.18527508256739
 20
-7.048250762396492
 10
-70.83667855036765
 20
-7.067030366109066
 10
-70.4886081461218
 20
-7.091769345856846
 10
-70.14121269174575
 20
-7.122465037965412
 10
-69.79464100916084
 20
-7.159114778748517
 10
-69.44904192028298
 20
-7.201715904527191
 10
-69.10456424702988
 20
-7.250265751617917
 10
-68.76135681132018
 20
-7.304761656346273
 10
-68.41956843507523
 20
-7.365200955025102
 10
-68.07934794021003
 20
-7.431580983979075
 10
-67.74084414864046
 20
-7.50389907952831
 10
-67.40420588228972
 20
-7.582152577985653
 10
-67.0695819630746
 20
-7.666338815673953
 10
-66.73712057342982
 20
-7.75645900476502
 10
-66.40694035744855
 20
-7.852693386997089
 10
-66.07911863791287
 20
-7.955472649327021
 10
-65.75372965796032
 20
-8.065246144149569
 10
-65.43084766073844
 20
-8.182463223864033
 10
-65.11056008951618
 20
-8.307563479578675
 10
-64.79316893442592
 20
-8.440827848402478
 10
-64.47915051409382
 20
-8.582408354287509
 10
-64.16898619479161
 20
-8.732453288535908
 10
-63.86315734278378
 20
-8.891110942447085
 10
-63.56214532434024
 20
-9.058529607326818
 10
-63.26643150572545
 20
-9.234857574477246
 10
-62.97649725320753
 20
-9.42024313519596
 10
-62.69282294101686
 20
-9.614833298369376
 10
-62.41578108166414
 20
-9.818635639000604
 10
-62.14554095261792
 20
-10.03139500821271
 10
-61.88224932999674
 20
-10.2528271693991
 10
-61.62605298991093
 20
-10.48264788596134
 10
-61.37709870847721
 20
-10.7205729212983
 10
-61.13553326180318
 20
-10.966318038807
 10
-60.901503443396
 20
-11.2195990067512
 10
-60.67526549704053
 20
-11.48016221366288
 10
-60.45744459805974
 20
-11.74785726191294
 10
-60.24874357499175
 20
-12.02255547846016
 10
-60.04986525637923
 20
-12.30412819026333
 10
-59.86151247076577
 20
-12.59244672428304
 10
-59.68438804669222
 20
-12.88738240747716
 10
-59.51919481270215
 20
-13.18880656680903
 10
-59.36657734669097
 20
-13.49656806452549
 10
-59.2262550262958
 20
-13.81015895385008
 10
-59.09720655992714
 20
-14.12878564448511
 10
-58.97838988502826
 20
-14.4516465356819
 10
-58.86876293904697
 20
-14.77794002668998
 10
-58.76734202275293
 20
-15.10688956284685
 10
-58.67397743260244
 20
-15.43807649100199
 10
-58.58914195577472
 20
-15.77134929413842
 10
-58.51332330401783
 20
-16.10656285997356
 10
-58.44700918907802
 20
-16.44357207622306
 10
-58.39066150810959
 20
-16.78223001121114
 10
-58.34364904350878
 20
-17.12231269113909
 10
-58.30386647492833
 20
-17.46349224827827
 10
-58.26910432770364
 20
-17.80543347415005
 10
-58.23715312716922
 20
-18.14780116028669
  0
LWPOLYLINE
  5
7C
330
1F
100
AcDbEntity
  8
LOGO
  6
K5LT32770
 62
     1
420
 16711680
100
AcDbPolyline
 90
      581
 70
     1
 43
0.18
 10
-121.2443818107049
 20
-18.695519575449
 10
-121.2673848097838
 20
-18.35255561525173
 10
-121.2951866371909
 20
-18.01009693407377
 10
-121.3325861212561
 20
-17.66864881094079
 10
-121.3842778900316
 20
-17.32874067115699
 10
-121.4528550616137
 20
-16.99138892200335
 10
-121.5389611829569
 20
-16.65806174402223
 10
-121.6431660421558
 20
-16.33024440986082
 10
-121.7659430384138
 20
-16.00935245518576
 10
-121.9064796822558
 20
-15.69587108028645
 10
-122.0630479426218
 20
-15.38962309471663
 10
-122.2339001586329
 20
-15.09041710594465
 10
-122.417288669415
 20
-14.79806172143799
 10
-122.61157107697
 20
-14.51244477300133
 10
-122.8165012870259
 20
-14.234504996949
 10
-123.032823424945
 20
-13.96592640175459
 10
-123.261302643386
 20
-13.70840882172979
 10
-123.5027040950035
 20
-13.46365209118721
 10
-123.7577925557689
 20
-13.23335571866482
 10
-124.0268583037482
 20
-13.01880885522496
 10
-124.3087896231928
 20
-12.82008817309543
 10
-124.6022171090635
 20
-12.63704748845612
 10
-124.9057713563175
 20
-12.46954061748147
 10
-125.2180829599129
 20
-12.31742137634865
 10
-125.5377825148089
 20
-12.18054358123936
 10
-125.8635006159607
 20
-12.05876104831896
 10
-126.1938678583301
 20
-11.95192759377096
 10
-126.527515954956
 20
-11.85989551629245
 10
-126.8633780361997
 20
-11.78210802502417
 10
-127.2010944968074
 20
-11.71704841591509
 10
-127.5404070593049
 20
-11.66306246084605
 10
-127.8810574462236
 20
-11.61849593169791
 10
-128.2227873800848
 20
-11.58169460034878
 10
-128.5653385834189
 20
-11.55100423868498
 10
-128.9084622167375
 20
-11.52491532886779
 10
-129.2519902581953
 20
-11.50315751003109
 10
-129.5957957422552
 20
-11.48608992738991
 10
-129.9397520264288
 20
-11.47407667950483
 10
-130.2837324682355
 20
-11.46748186493278
 10
-130.6276104251829
 20
-11.46666958223886
 10
-130.9712592547917
 20
-11.4720039299782
 10
-131.3145523145749
 20
-11.48384900670862
 10
-131.6573629620475
 20
-11.50256891099161
 10
-131.9995655846965
 20
-11.52852302580231
 10
-132.341069466298
 20
-11.5619109659965
 10
-132.6818264524236
 20
-11.60273748284999
 10
-133.0217909706903
 20
-11.6509955060792
 10
-133.3609174487128
 20
-11.70667796539874
 10
-133.6991603141068
 20
-11.76977779052595
 10
-134.0364739944889
 20
-11.84028791118089
 10
-134.3728129174729
 20
-11.91820125707727
 10
-134.7079364724918
 20
-12.00378256548902
 10
-135.0403615696582
 20
-12.09902810782478
 10
-135.3681175624015
 20
-12.20661362035571
 10
-135.6892326530578
 20
-12.32921644352609
 10
-136.0017350439703
 20
-12.46951391776929
 10
-136.3037090227699
 20
-12.63006042186862
 10
-136.5942451391688
 20
-12.81120420092884
 10
-136.8733040230354
 20
-13.01138593225551
 10
-137.1408749724956
 20
-13.22898344074019
 10
-137.3969472856675
 20
-13.46237455128085
 10
-137.6415102606757
 20
-13.70993708876904
 10
-137.8745531956451
 20
-13.97004887809999
 10
-138.0960653886759
 20
-14.24108774418073
 10
-138.3045416908567
 20
-14.52195643011692
 10
-138.4925385559854
 20
-14.81364351602315
 10
-138.6511376214239
 20
-15.11765560506137
 10
-138.7714355305584
 20
-15.43549468459241
 10
-138.849693324818
 20
-15.76707419036848
 10
-138.8948664302416
 20
-16.10840280778393
 10
-138.9178255718125
 20
-16.45490008267279
 10
-138.9294414745282
 20
-16.80198556086452
 10
-138.9383452558977
 20
-17.14605534934708
 10
-138.9416908204639
 20
-17.4885100929796
 10
-138.9329654517619
 20
-17.83234923449527
 10
-138.9053264619179
 20
-18.17930692857772
 10
-138.8498641656611
 20
-18.52314797782765
 10
-138.7568666045618
 20
-18.8545440037451
 10
-138.6167422643061
 20
-19.16423747031968
 10
-138.4282277800758
 20
-19.44826384968837
 10
-138.2035756908158
 20
-19.71124873224471
 10
-137.9562751859703
 20
-19.95860366941452
 10
-137.6987552699588
 20
-20.19518430242169
 10
-137.4345653964392
 20
-20.42119026164528
 10
-137.16282641925
 20
-20.63449903195578
 10
-136.8826266630817
 20
-20.83297104150734
 10
-136.5930544526332
 20
-21.01446671845406
 10
-136.2931983418721
 20
-21.17684694573472
 10
-135.9828649457431
 20
-21.31939692343076
 10
-135.6641686239032
 20
-21.44597940210224
 10
-135.3396864263837
 20
-21.56137490652236
 10
-135.0119954032175
 20
-21.67036396145704
 10
-134.6836719745916
 20
-21.77772585474486
 10
-134.3565828950977
 20
-21.88684619812921
 10
-134.030523989818
 20
-21.997043610334
 10
-133.7049153613771
 20
-22.10689884791282
 10
-133.3791771123997
 20
-22.21499266740739
 10
-133.0527293455089
 20
-22.31990582536309
 10
-132.7249921633329
 20
-22.42021907831986
 10
-132.395403837018
 20
-22.5145619310606
 10
-132.063856816093
 20
-22.6027825011397
 10
-131.7307188616023
 20
-22.68600422149211
 10
-131.3963801324762
 20
-22.7654106211512
 10
-131.0612307876409
 20
-22.84218522915398
 10
-130.7256609860246
 20
-22.91751157454382
 10
-130.3900608115819
 20
-22.99257297302574
 10
-130.0547332409592
 20
-23.06830488819105
 10
-129.7197261711149
 20
-23.14491698878373
 10
-129.3850410519144
 20
-23.22248678458163
 10
-129.0506793332315
 20
-23.30109178536804
 10
-128.7166424649272
 20
-23.38080950092262
 10
-128.3829318968637
 20
-23.46171744102594
 10
-128.0495490789131
 20
-23.54389311546038
 10
-127.7164894094017
 20
-23.62738454724877
 10
-127.3837169782232
 20
-23.71208720558298
 10
-127.0511857804599
 20
-23.79784737159207
 10
-126.7188498062633
 20
-23.88451130240628
 10
-126.3866630457915
 20
-23.97192525515402
 10
-126.0545794891937
 20
-24.05993548696551
 10
-125.7225531266349
 20
-24.14838825496554
 10
-125.390537948264
 20
-24.23712981628432
 10
-125.0584880571109
 20
-24.32600676661605
 10
-124.7264516878809
 20
-24.4151480482451
 10
-124.3947419675046
 20
-24.50547714383993
 10
-124.0637182780115
 20
-24.59805627756123
 10
-123.7337400014239
 20
-24.69394767357335
 10
-123.4051665197717
 20
-24.7942135560279
 10
-123.0783572150849
 20
-24.89991614909195
 10
-122.7536714693888
 20
-25.01211767692803
 10
-122.4314696082802
 20
-25.13185452210564
 10
-122.1121299493707
 20
-25.25967031830351
 10
-121.7960469546797
 20
-25.39566655121507
 10
-121.4836156588958
 20
-25.53992902239952
 10
-121.1752310967249
 20
-25.69254353341694
 10
-120.8712883028625
 20
-25.85359588582742
 10
-120.572182312003
 20
-26.02317188118559
 10
-120.2782801560111
 20
-26.20132838696736
 10
-119.9896776630403
 20
-26.38784204781405
 10
-119.706318450355
 20
-26.58233223557818
 10
-119.428144449445
 20
-26.78441658027805
 10
-119.1550975918071
 20
-26.99371271193468
 10
-118.8871198089319
 20
-27.20983826057
 10
-118.6241530323155
 20
-27.43241085620684
 10
-118.3661399933917
 20
-27.66104873736822
 10
-118.1133406611216
 20
-27.89561146122196
 10
-117.8668145040606
 20
-28.13656675433776
 10
-117.6277449755403
 20
-28.38447665695821
 10
-117.3973155288891
 20
-28.63990320932953
 10
-117.1767096174408
 20
-28.90340845169339
 10
-116.967110694522
 20
-29.17555442429784
 10
-116.7696402618049
 20
-29.45683007413299
 10
-116.584752181112
 20
-29.74693663772086
 10
-116.4124932852637
 20
-30.04509512112872
 10
-116.2529046130048
 20
-30.35051969430333
 10
-116.1060272030736
 20
-30.66242452719507
 10
-115.9719020942171
 20
-30.98002378975616
 10
-115.8505636449781
 20
-31.30254374918513
 10
-115.7419613247639
 20
-31.62936439942041
 10
-115.6459861939775
 20
-31.9599715079521
 10
-115.5625281620219
 20
-32.29385292662573
 10
-115.4914771383019
 20
-32.63049650729772
 10
-115.4327230322215
 20
-32.96939010180722
 10
-115.3861404961681
 20
-33.3100348632488
 10
-115.3514676348309
 20
-33.65205098863407
 10
-115.3283706211878
 20
-33.99512138587306
 10
-115.3165149835272
 20
-34.33892952493898
 10
-115.3155662501331
 20
-34.68315887580229
 10
-115.3251899492957
 20
-35.02749290842985
 10
-115.3450728330736
 20
-35.37160889440111
 10
-115.3753098194184
 20
-35.71506490064166
 10
-115.4163639574808
 20
-36.05731148153518
 10
-115.4687114864887
 20
-36.39779533931232
 10
-115.5328286456734
 20
-36.73596317620468
 10
-115.6091916742575
 20
-37.07126169443927
 10
-115.6982768114722
 20
-37.40313759624678
 10
-115.8004591015751
 20
-37.73107741828971
 10
-115.91525567491
 20
-38.05490540683786
 10
-116.0417514323276
 20
-38.37461595116838
 10
-116.1790279766678
 20
-38.69020473878936
 10
-116.3261669107692
 20
-39.00166745720253
 10
-116.4822498374738
 20
-39.30899979391688
 10
-116.6463596111034
 20
-39.61219681636067
 10
-116.8179685387431
 20
-39.91106062708332
 10
-116.9974885786328
 20
-40.20492775313778
 10
-117.1854705677738
 20
-40.49306591034929
 10
-117.3824653431739
 20
-40.77474281453397
 10
-117.5890237418357
 20
-41.04922618152068
 10
-117.8056928804099
 20
-41.31578609265034
 10
-118.0325821102501
 20
-41.5739709740692
 10
-118.2689571655219
 20
-41.82386565002344
 10
-118.5139877673246
 20
-42.06561599286033
 10
-118.7668436367571
 20
-42.29936787491897
 10
-119.0266944949208
 20
-42.52526716853845
 10
-119.2927101696423
 20
-42.74345979196187
 10
-119.5641959767327
 20
-42.95414992789028
 10
-119.8408578949525
 20
-43.15771405777014
 10
-120.1224756106731
 20
-43.3545603598468
 10
-120.4088375230235
 20
-43.54505365148543
 10
-120.6998735708689
 20
-43.7288543485929
 10
-120.9956286624115
 20
-43.90505069855408
 10
-121.2961510324358
 20
-44.07271439334272
 10
-121.6014889157254
 20
-44.23091712493533
 10
-121.911690547066
 20
-44.37873058531113
 10
-122.2267798521134
 20
-44.51529705901794
 10
-122.546108323098
 20
-44.64171154575524
 10
-122.8682852967759
 20
-44.76122422996559
 10
-123.1918824342811
 20
-44.87719489157462
 10
-123.5159386145269
 20
-44.9917675398674
 10
-123.8407900964385
 20
-45.10371020691673
 10
-124.1669965085639
 20
-45.21120968358173
 10
-124.4951173893842
 20
-45.31245300975206
 10
-124.8255597764319
 20
-45.40604890774011
 10
-125.1582661445918
 20
-45.49189066827421
 10
-125.493090825471
 20
-45.57011530822547
 10
-125.8298881506767
 20
-45.64085984446319
 10
-126.1685124518199
 20
-45.70426129385669
 10
-126.5088180605076
 20
-45.76045667328162
 10
-126.8506593083525
 20
-45.80958299960184
 10
-127.1938905269567
 20
-45.85177728969393
 10
-127.5383660479351
 20
-45.88717656042445
 10
-127.8839402028934
 20
-45.9159178286618
 10
-128.2304673234412
 20
-45.93813811128166
 10
-128.5778017411876
 20
-45.95397442515423
 10
-128.925797787741
 20
-45.96356378714609
 10
-129.2743097947105
 20
-45.96704321413017
 10
-129.6231920937048
 20
-45.96454972297488
 10
-129.9722990163318
 20
-45.95622033055588
 10
-130.3214848942016
 20
-45.94219205374065
 10
-130.6706040589252
 20
-45.92260190939578
 10
-131.0195108421049
 20
-45.89758691439602
 10
-131.368059575354
 20
-45.86728408561248
 10
-131.7161045902831
 20
-45.83183043991266
 10
-132.0635002184958
 20
-45.79136299417132
 10
-132.4101007916038
 20
-45.74601876525503
 10
-132.7557606412174
 20
-45.69593477003582
 10
-133.1003340989441
 20
-45.64124802538299
 10
-133.4436754963917
 20
-45.58209554816676
 10
-133.7856391651676
 20
-45.5186143552628
 10
-134.1260794368845
 20
-45.45094146353495
 10
-134.4648506431486
 20
-45.37921388985706
 10
-134.8018071155707
 20
-45.30356865110025
 10
-135.1368588773057
 20
-45.22405649083794
 10
-135.4701393396831
 20
-45.14038209594401
 10
-135.8018379170062
 20
-45.05216339755953
 10
-136.1321440235761
 20
-44.95901832682102
 10
-136.4612431154492
 20
-44.86056171636028
 10
-136.7889354948461
 20
-44.75610690009489
 10
-137.1143192249597
 20
-44.64441749878461
 10
-137.4364177292127
 20
-44.52419870510312
 10
-137.7542544310309
 20
-44.39415571173231
 10
-138.0669095132316
 20
-44.25308637262242
 10
-138.3742988947824
 20
-44.10115290389422
 10
-138.6769749842356
 20
-43.93955660837855
 10
-138.9755061713954
 20
-43.76952487871858
 10
-139.2704608460572
 20
-43.59228510756202
 10
-139.562407398018
 20
-43.40906468755384
 10
-139.8519142170808
 20
-43.22109101134174
 10
-140.1394271708336
 20
-43.02944601403033
 10
-140.4240549876695
 20
-42.83362418809702
 10
-140.7040833957535
 20
-42.63214296571005
 10
-140.9777860835788
 20
-42.42350548560898
 10
-141.2434367396318
 20
-42.20621488654433
 10
-141.4993090524058
 20
-41.97877430725566
 10
-141.7437302209196
 20
-41.73974033796003
 10
-141.9763835470349
 20
-41.48902417505633
 10
-142.1983819681195
 20
-41.22796507264502
 10
-142.4109066514502
 20
-40.95797043943276
 10
-142.6151387643181
 20
-40.68044768413347
 10
-142.8122594739989
 20
-40.39680421545472
 10
-143.0034499477806
 20
-40.1084474421059
 10
-143.1898913529435
 20
-39.81678477280093
 10
-143.3727598059081
 20
-39.52322002487836
 10
-143.552130603663
 20
-39.2283742873442
 10
-143.7256080524485
 20
-38.93111167218831
 10
-143.8904597930878
 20
-38.63005690830505
 10
-144.0439534664006
 20
-38.32383472458605
 10
-144.183567039765
 20
-38.01118286809287
 10
-144.3093689467787
 20
-37.69223106293521
 10
-144.4231706367291
 20
-37.36804563599435
 10
-144.5268160095848
 20
-37.03971035140239
 10
-144.622148965319
 20
-36.70830897329324
 10
-144.7110134039062
 20
-36.3749252657999
 10
-144.7948657457978
 20
-36.04049657616088
 10
-144.8730250619378
 20
-35.70515261131732
 10
-144.9440774677555
 20
-35.36874611627991
 10
-145.0066084240166
 20
-35.03112958869679
 10
-145.0592033914945
 20
-34.69215552621699
 10
-145.1005265528083
 20
-34.35168606746174
 10
-145.1313127646581
 20
-34.00983694426395
 10
-145.154523257881
 20
-33.66699655008506
 10
-145.173229176472
 20
-33.32356673933373
 10
-141.734955681341
 20
-32.87508301886373
 10
-140.4444552133396
 20
-33.04475684719
 10
-140.3997271908997
 20
-33.38537294999423
 10
-140.3474398902408
 20
-33.72483349363574
 10
-140.2843488973481
 20
-34.06255905445596
 10
-140.2102191297477
 20
-34.39816372741006
 10
-140.1254149708025
 20
-34.73130015682
 10
-140.0302777801721
 20
-35.06161742467702
 10
-139.9247243212581
 20
-35.38869891753438
 10
-139.8082979862938
 20
-35.71207025227613
 10
-139.6805294419451
 20
-36.03125507683399
 10
-139.5409522095329
 20
-36.34575755970491
 10
-139.3891418377648
 20
-36.65479508547924
 10
-139.2247058804451
 20
-36.95736664432116
 10
-139.0472526948242
 20
-37.25246574388802
 10
-138.856390638151
 20
-37.53908589183266
 10
-138.6517280729404
 20
-37.81622059722304
 10
-138.4330958100718
 20
-38.08292328987955
 10
-138.2011390264961
 20
-38.33846676481426
 10
-137.9566892075891
 20
-38.58217400280228
 10
-137.7005778387238
 20
-38.81336798461416
 10
-137.4336364052729
 20
-39.03137169102411
 10
-137.1566963926061
 20
-39.23550810280176
 10
-136.8706233619614
 20
-39.42539472056251
 10
-136.5764532610119
 20
-39.60212170573323
 10
-136.2752751837647
 20
-39.76723856686294
 10
-135.968178241737
 20
-39.92229496385789
 10
-135.6562515464457
 20
-40.06884055661976
 10
-135.3405842094098
 20
-40.20842500505114
 10
-135.0222650365417
 20
-40.34259726753771
 10
-134.7020982152476
 20
-40.47225295692078
 10
-134.3800758483917
 20
-40.5964235352285
 10
-134.0560461480509
 20
-40.71381016129999
 10
-133.7298573263079
 20
-40.82311399397986
 10
-133.4013575952445
 20
-40.92303619210543
 10
-133.0703951669434
 20
-41.01227791452129
 10
-132.7368182542482
 20
-41.08954032438396
 10
-132.4005725701359
 20
-41.15407418809809
 10
-132.0619708181339
 20
-41.20719897917388
 10
-131.7214120325516
 20
-41.2507208132738
 10
-131.3792952476897
 20
-41.28644580605305
 10
-131.0360194978471
 20
-41.31618007316683
 10
-130.6919838173303
 20
-41.34172973027671
 10
-130.3475856864002
 20
-41.36488182007361
 10
-130.0031251411078
 20
-41.38622743840551
 10
-129.6587487121178
 20
-41.40447368726473
 10
-129.3145894327367
 20
-41.41816201366055
 10
-128.9707803362721
 20
-41.4258338645941
 10
-128.627454456027
 20
-41.42603068707558
 10
-128.2847448253119
 20
-41.41729392810976
 10
-127.9427844774341
 20
-41.39816503470865
 10
-127.6017029723248
 20
-41.36730250117398
 10
-127.2615891457222
 20
-41.32473716291315
 10
-126.922505394376
 20
-41.27139080790585
 10
-126.5845136668922
 20
-41.20820032567372
 10
-126.2476759118799
 20
-41.13610260573296
 10
-125.9120540779463
 20
-41.05603453759704
 10
-125.5777102070024
 20
-40.96893275856837
 10
-125.2448634285211
 20
-40.87530928043725
 10
-124.9142111390161
 20
-40.77438330482164
 10
-124.5865414258319
 20
-40.66512888572015
 10
-124.2626423763127
 20
-40.54652007712502
 10
-123.9433020778088
 20
-40.41753093304033
 10
-123.6293086176661
 20
-40.27713550745466
 10
-123.321450083225
 20
-40.12430785436845
 10
-123.0205145618379
 20
-39.95802202777577
 10
-122.7273079014549
 20
-39.77728254801787
 10
-122.442971279384
 20
-39.58166915542461
 10
-122.1689449813834
 20
-39.37127467742084
 10
-121.9066797799405
 20
-39.14620993026892
 10
-121.6576264475616
 20
-38.90658573022847
 10
-121.4232357567339
 20
-38.65251289355729
 10
-121.2049584799611
 20
-38.38410223651317
 10
-121.0042291852819
 20
-38.10163996495703
 10
-120.8223891193898
 20
-37.80642235282085
 10
-120.6607461902195
 20
-37.50010651747016
 10
-120.5206082640639
 20
-37.18435002712522
 10
-120.4032832071989
 20
-36.8608104500081
 10
-120.3100527823985
 20
-36.53113756681796
 10
-120.2407748881797
 20
-36.19655637400501
 10
-120.1931786096502
 20
-35.85765677484414
 10
-120.1648187499159
 20
-35.51497667872627
 10
-120.153250112086
 20
-35.16905399503503
 10
-120.1560274992717
 20
-34.82042663316133
 10
-120.1708891666717
 20
-34.4697098628003
 10
-120.1990005313442
 20
-34.11896416094896
 10
-120.2445644589538
 20
-33.77153087288843
 10
-120.3118889684019
 20
-33.43079568619032
 10
-120.405282078576
 20
-33.10014428841987
 10
-120.5290518083757
 20
-32.78296236715596
 10
-120.6873889654471
 20
-32.48258372490727
 10
-120.8799308169328
 20
-32.20032648129109
 10
-121.1004011816608
 20
-31.93489109246184
 10
-121.3421288499403
 20
-31.68480315014767
 10
-121.5984454813356
 20
-31.448588879417
 10
-121.8641998168328
 20
-31.22510937390416
 10
-122.1382460435557
 20
-31.01410985778512
 10
-122.4200917246258
 20
-30.81547977629361
 10
-122.7092444231639
 20
-30.62910857466159
 10
-123.0052117022938
 20
-30.45488569812187
 10
-123.3075011251367
 20
-30.29270059191003
 10
-123.6156192153148
 20
-30.14243591189552
 10
-123.9290070203992
 20
-30.0035466664458
 10
-124.2470022727239
 20
-29.87481307516828
 10
-124.5689336002338
 20
-29.75495589359889
 10
-124.8941296308699
 20
-29.64269587728813
 10
-125.2219189925731
 20
-29.53675378177286
 10
-125.5516303132881
 20
-29.43585036259901
 10
-125.8825922209558
 20
-29.33870637531163
 10
-126.2141875517368
 20
-29.24413724713941
 10
-126.5461953016111
 20
-29.15165027677631
 10
-126.8785702913251
 20
-29.06105983125508
 10
-127.2112681344679
 20
-28.97218166226776
 10
-127.5442444446367
 20
-28.88483152150911
 10
-127.877454835424
 20
-28.79882516067664
 10
-128.210854920419
 20
-28.7139783314642
 10
-128.5444003132179
 20
-28.63010678556111
 10
-128.8780466274097
 20
-28.54702627467213
 10
-129.211749476593
 20
-28.46455255048568
 10
-129.5454644743559
 20
-28.38250136469378
 10
-129.8791472342918
 20
-28.30068846900031
 10
-130.2127533699927
 20
-28.21892961509002
 10
-130.5462384950538
 20
-28.13704055466496
 10
-130.8795582230682
 20
-28.05483703941627
 10
-131.212668167625
 20
-27.9721348210378
 10
-131.5455239423191
 20
-27.88874965122795
 10
-131.8780811607439
 20
-27.8044972816806
 10
-132.2102954364909
 20
-27.71919346408686
 10
-132.5421223831513
 20
-27.63265395014514
 10
-132.8735176143218
 20
-27.54469449154931
 10
-133.2044367435929
 20
-27.45513083999322
 10
-133.5348353845588
 20
-27.36377874717255
 10
-133.8646691508079
 20
-27.27045396478115
 10
-134.1938936559382
 20
-27.17497224451563
 10
-134.5224676887401
 20
-27.07715505804117
 10
-134.8503847830279
 20
-26.97688646849292
 10
-135.17765990103
 20
-26.87408914127991
 10
-135.504308320265
 20
-26.76868630977697
 10
-135.8303453182475
 20
-26.66060120734619
 10
-136.1557861724878
 20
-26.54975706735695
 10
-136.4806461604999
 20
-26.43607712318135
 10
-136.8049405597967
 20
-26.3194846081833
 10
-137.1285886680839
 20
-26.19978172412448
 10
-137.4508688909409
 20
-26.07596250065399
 10
-137.7707971436157
 20
-25.94668996418841
 10
-138.0873885500077
 20
-25.81062614324583
 10
-138.3996582340187
 20
-25.66643306634523
 10
-138.7066213195476
 20
-25.51277276200472
 10
-139.0072929304979
 20
-25.34830725874053
 10
-139.300694022957
 20
-25.17170884499228
 10
-139.5863284334559
 20
-24.98249928627229
 10
-139.8645369592768
 20
-24.78167271873099
 10
-140.1357438331543
 20
-24.57037005711118
 10
-140.4003732878195
 20
-24.34973221613018
 10
-140.6588495560009
 20
-24.12090011052169
 10
-140.9115968704327
 20
-23.88501465501122
 10
-141.1589792859354
 20
-23.64315738667119
 10
-141.4004925335498
 20
-23.39555306586135
 10
-141.6349799610607
 20
-23.14178274514597
 10
-141.8612690363489
 20
-22.88141180836828
 10
-142.0781872272955
 20
-22.61400563935877
 10
-142.2845620017797
 20
-22.33912962196428
 10
-142.4792208276849
 20
-22.05634914001803
 10
-142.660991172892
 20
-21.76522957735779
 10
-142.8288682830939
 20
-21.46551391590492
 10
-142.9826848149901
 20
-21.15783156338784
 10
-143.1225341677277
 20
-20.84308793160562
 10
-143.2485098244524
 20
-20.52218852126862
 10
-143.3607052683155
 20
-20.19603883309173
 10
-143.4592139954607
 20
-19.86554399059878
 10
-143.5441329881223
 20
-19.53150801620814
 10
-143.615567399082
 20
-19.19449797457401
 10
-143.6736235501817
 20
-18.85504702585695
 10
-143.7184077632728
 20
-18.51368833021388
 10
-143.7500263602005
 20
-18.17095504779627
 10
-143.7685856628104
 20
-17.82738033876103
 10
-143.774268531331
 20
-17.48348011066628
 10
-143.7676844283378
 20
-17.13967411016984
 10
-143.7495905674564
 20
-16.7963487792158
 10
-143.7207443060447
 20
-16.45389052734299
 10
-143.6818402863537
 20
-16.1126572453195
 10
-143.6325321924019
 20
-15.77253417901102
 10
-143.5718039250069
 20
-15.4333917610702
 10
-143.4990895426158
 20
-15.0960379920125
 10
-143.4138971679463
 20
-14.76142864833218
 10
-143.3157349237158
 20
-14.43051950651989
 10
-143.2041109326397
 20
-14.10426634307169
 10
-143.0785333174326
 20
-13.7836249344773
 10
-142.9385102008087
 20
-13.46955105722463
 10
-142.7838441656427
 20
-13.16279723772914
 10
-142.6158249809318
 20
-12.8630894773878
 10
-142.4362108453142
 20
-12.56983044569733
 10
-142.2467601317717
 20
-12.28242269180464
 10
-142.0492312132865
 20
-12.00026876486118
 10
-141.8450160749676
 20
-11.72298926315671
 10
-141.6340013494842
 20
-11.45110066832967
 10
-141.4156871124078
 20
-11.18534951449874
 10
-141.1895734390419
 20
-10.92648233594991
 10
-140.9551604046956
 20
-10.67524566696375
 10
-140.7119515343384
 20
-10.43238431493228
 10
-140.4597801011237
 20
-10.19847801629021
 10
-140.1990773525599
 20
-9.973807163321908
 10
-139.930337664423
 20
-9.758620546486782
 10
-139.654055412479
 20
-9.55316695624424
 10
-139.3707249725062
 20
-9.357695183051874
 10
-139.0808404980876
 20
-9.172451414344323
 10
-138.7848819824039
 20
-8.997515942101927
 10
-138.483306979505
 20
-8.832706173901897
 10
-138.1765710547102
 20
-8.677816218370026
 10
-137.8651365930236
 20
-8.532614719666526
 10
-137.5495522422198
 20
-8.396548220134719
 10
-137.2304258098197
 20
-8.268842361921088
 10
-136.9083662595499
 20
-8.148718469939013
 10
-136.5839821535942
 20
-8.035398261335104
 10
-136.2576933478367
 20
-7.928287785629436
 10
-135.9294305681019
 20
-7.827270885079997
 10
-135.5990463273856
 20
-7.732307801925344
 10
-135.2664279746364
 20
-7.643363139406574
 10
-134.9316570207202
 20
-7.560425807361753
 10
-134.5948822221476
 20
-7.483493133928278
 10
-134.256252400839
 20
-7.412562455417174
 10
-133.9159163787067
 20
-7.347631108154019
 10
-133.5740229776743
 20
-7.288696428454386
 10
-133.23072101966
 20
-7.235755752635669
 10
-132.8861593265779
 20
-7.188806417026171
 10
-132.5404867203497
 20
-7.14784575793783
 10
-132.193852022891
 20
-7.112871111689856
 10
-131.8464040561234
 20
-7.083879814607826
 10
-131.4982916419617
 20
-7.060869203007314
 10
-131.1496636023262
 20
-7.043836613206622
 10
-130.8006687591355
 20
-7.032779381524961
 10
-130.451455934307
 20
-7.027694844285179
 10
-130.102173949756
 20
-7.02858033780376
 10
-129.7529716274048
 20
-7.035433198399915
 10
-129.4039977891703
 20
-7.048250762396492
 10
-129.0554012569714
 20
-7.067030366109066
 10
-128.7073308527238
 20
-7.091769345856846
 10
-128.3599353983491
 20
-7.122465037965412
 10
-128.0133637157624
 20
-7.159114778748517
 10
-127.6677646268845
 20
-7.201715904527191
 10
-127.3232869536328
 20
-7.250265751617917
 10
-126.980079517924
 20
-7.304761656346273
 10
-126.6382911416772
 20
-7.365200955025102
 10
-126.298070646812
 20
-7.431580983979075
 10
-125.9595668552442
 20
-7.50389907952831
 10
-125.6229285888921
 20
-7.582152577985653
 10
-125.2883046696775
 20
-7.666338815673953
 10
-124.9558432800327
 20
-7.75645900476502
 10
-124.6256630640519
 20
-7.852693386997089
 10
-124.2978413445148
 20
-7.955472649327021
 10
-123.9724523645623
 20
-8.065246144149569
 10
-123.6495703673418
 20
-8.182463223864033
 10
-123.3292827961182
 20
-8.307563479578675
 10
-123.011891641027
 20
-8.440827848402478
 10
-122.6978732206981
 20
-8.582408354287509
 10
-122.387708901394
 20
-8.732453288535908
 10
-122.0818800493871
 20
-8.891110942447085
 10
-121.7808680309417
 20
-9.058529607326818
 10
-121.4851542123279
 20
-9.234857574477246
 10
-121.195219959809
 20
-9.42024313519596
 10
-120.9115456476206
 20
-9.614833298369376
 10
-120.6345037882679
 20
-9.818635639000604
 10
-120.3642636592235
 20
-10.03139500821271
 10
-120.1009720365996
 20
-10.2528271693991
 10
-119.8447756965138
 20
-10.48264788596134
 10
-119.5958214150792
 20
-10.7205729212983
 10
-119.3542559684074
 20
-10.966318038807
 10
-119.1202261499989
 20
-11.2195990067512
 10
-118.8939882036461
 20
-11.48016221366288
 10
-118.6761673046635
 20
-11.74785726191294
 10
-118.4674662815942
 20
-12.02255547846016
 10
-118.2685879629821
 20
-12.30412819026333
 10
-118.0802351773686
 20
-12.59244672428304
 10
-117.9031107532951
 20
-12.88738240747716
 10
-117.7379175193041
 20
-13.18880656680903
 10
-117.5853000532929
 20
-13.49656806452549
 10
-117.4449777328969
 20
-13.81015895385008
 10
-117.3159292665277
 20
-14.12878564448602
 10
-117.1971125916302
 20
-14.4516465356819
 10
-117.087485645648
 20
-14.77794002668998
 10
-116.986064729354
 20
-15.10688956284685
 10
-116.8927001392049
 20
-15.43807649100199
 10
-116.8078646623781
 20
-15.77134929413842
 10
-116.7320460106225
 20
-16.10656285997356
 10
-116.6657318956809
 20
-16.44357207622306
 10
-116.6093842147125
 20
-16.78223001121114
 10
-116.5623717501117
 20
-17.12231269113909
 10
-116.5225891815321
 20
-17.46349224827827
 10
-116.4878270343047
 20
-17.80543347415005
 10
-116.4558758337707
 20
-18.14780116028669
  0
LWPOLYLINE
  5
7D
330
1F
100
AcDbEntity
  8
LOGO
  6
K5LT32770
 62
     1
420
 16711680
100
AcDbPolyline
 90
      563
 70
     1
 43
0.18
 10
-105.4707024194367
 20
-30.47881547323959
 10
-103.4985225992209
 20
-28.38084396176419
 10
-103.2368523579298
 20
-28.10248358812896
 10
-103.5038129115956
 20
-27.78739599970504
 10
-103.6443824515568
 20
-27.61697229616493
 10
-103.7819168369201
 20
-27.44441228480628
 10
-103.9153575338
 20
-27.26897091158298
 10
-104.0436508820408
 20
-27.08990715117307
 10
-104.1659979115025
 20
-26.90669051045097
 10
-104.2819741304515
 20
-26.71910004812344
 10
-104.3911850002155
 20
-26.52693958273358
 10
-104.4932359821169
 20
-26.33001293282086
 10
-104.587441915929
 20
-26.12814850071572
 10
-104.6699644829291
 20
-25.92144141563949
 10
-104.7350331863281
 20
-25.71015025049655
 10
-104.7768518934449
 20
-25.49453628171523
 10
-104.7920718058103
 20
-25.27522923733613
 10
-104.7844479534415
 20
-25.05392834258419
 10
-104.7590170180101
 20
-24.83252577819712
 10
-104.7207612395196
 20
-24.61290291771729
 10
-104.6721280516899
 20
-24.39643795129541
 10
-104.6120072544459
 20
-24.18380284461
 10
-104.5390222434098
 20
-23.97561667953414
 10
-104.4517980321211
 20
-23.77250365257987
 10
-104.3491846805737
 20
-23.57579938977688
 10
-104.230486028368
 20
-23.38827403076448
 10
-104.0950604612549
 20
-23.21287014951213
 10
-103.9423143037025
 20
-23.05249859734522
 10
-103.7731521801434
 20
-22.90907875084577
 10
-103.5902367069957
 20
-22.78336666503583
 10
-103.3963307941499
 20
-22.6760520274247
 10
-103.1940612749909
 20
-22.5872709249943
 10
-102.9854261500095
 20
-22.51460116134422
 10
-102.7722418977378
 20
-22.45488205361562
 10
-102.5562694659752
 20
-22.40514279362924
 10
-102.3384543516559
 20
-22.36520274668874
 10
-102.119121996092
 20
-22.33700288076489
 10
-101.8985823279841
 20
-22.32253724230577
 10
-101.6771503346595
 20
-22.32379337835027
 10
-101.4556358883942
 20
-22.34212299899445
 10
-101.2357526429505
 20
-22.37771661994429
 10
-101.0193105095859
 20
-22.43064108355975
 10
-100.8081193995622
 20
-22.50096323220896
 10
-100.603989224137
 20
-22.58874990824552
 10
-100.4086565050206
 20
-22.69396009944376
 10
-100.2233059459354
 20
-22.8157418320443
 10
-100.0488711880503
 20
-22.95287416628435
 10
-99.8862846059692
 20
-23.10413430104109
 10
-99.73647961052802
 20
-23.26829848994657
 10
-99.60044227774415
 20
-23.44409494625779
 10
-99.47923527132389
 20
-23.6301820211138
 10
-99.37392728703298
 20
-23.8252125632871
 10
-99.28558698609959
 20
-24.02783942189035
 10
-99.21463598354603
 20
-24.23672195004838
 10
-99.15919389504506
 20
-24.45054264019745
 10
-99.11686862610713
 20
-24.66798912839749
 10
-99.0852680822527
 20
-24.88774905071386
 10
-99.06269312252061
 20
-25.10858456193819
 10
-99.05108968517106
 20
-25.32964980084398
 10
-99.05359800662791
 20
-25.55022733845999
 10
-99.07330736251424
 20
-25.76959834459194
 10
-99.11138597543959
 20
-25.98698910836811
 10
-99.16655571383308
 20
-26.20155603144212
 10
-99.23737980526403
 20
-26.41245098340369
 10
-99.3224214772963
 20
-26.61882583384977
 10
-99.42024395749695
 20
-26.81983245237461
 10
-99.52942555413574
 20
-27.01462792434086
 10
-99.6489964044722
 20
-27.2025256034558
 10
-99.77850586075374
 20
-27.38301841769407
 10
-99.91753191483394
 20
-27.55560920025619
 10
-100.0656525585609
 20
-27.71980078432989
 10
-100.222445783787
 20
-27.87509600311387
 10
-100.3874612883769
 20
-28.02105932574432
 10
-100.559774432661
 20
-28.15828852383765
 10
-100.7380674664237
 20
-28.28823772565829
 10
-100.9210107707299
 20
-28.41238691441413
 10
-101.1072747266489
 20
-28.53221607331307
 10
-101.2955297152503
 20
-28.64920518556573
 10
-101.484446538328
 20
-28.76483380951504
 10
-101.6730344802036
 20
-28.8802396942101
 10
-101.8612509386198
 20
-28.99560315676808
 10
-102.0492180604429
 20
-29.11093814593914
 10
-102.2370579925373
 20
-29.226258610478
 10
-102.428561448156
 20
-29.33566970424636
 10
-102.6202520977658
 20
-29.44478354885814
 10
-102.8120012435384
 20
-29.5538091935432
 10
-103.003838750034
 20
-29.66270160881231
 10
-103.195794481815
 20
-29.77141576517533
 10
-103.3878983034415
 20
-29.87990663314031
 10
-103.5801800794834
 20
-29.98812918321983
 10
-103.7726696744958
 20
-30.09603838592102
 10
-103.9653969530482
 20
-30.20358921176012
 10
-104.1583917796984
 20
-30.31073663124062
 10
-104.3516840190118
 20
-30.41743561487601
 10
-104.5453035355517
 20
-30.52364113317617
 10
-104.7392801938795
 20
-30.62930815664913
 10
-104.9336438585547
 20
-30.73439165580658
 10
-105.1284243941468
 20
-30.83884660116018
 10
-105.323621956773
 20
-30.94267405077062
 10
-105.5190368223102
 20
-31.04618514261438
 10
-105.7143868412177
 20
-31.14981888356488
 10
-105.9093896061358
 20
-31.25401468046402
 10
-106.1037627096998
 20
-31.35921194014736
 10
-106.297223744552
 20
-31.46585006945588
 10
-106.4894903033301
 20
-31.57436847522877
 10
-106.6802799786728
 20
-31.68520656430519
 10
-106.8693103632172
 20
-31.79880374351615
 10
-107.0562990496051
 20
-31.91559941971173
 10
-107.2409636304728
 20
-32.03603299972383
 10
-107.4230358270224
 20
-32.16051215446714
 10
-107.6024082212566
 20
-32.28908322533516
 10
-107.7790755918909
 20
-32.42156299693579
 10
-107.9530343511265
 20
-32.55776458470245
 10
-108.1242809111682
 20
-32.69750110406494
 10
-108.2928116842099
 20
-32.84058567045304
 10
-108.4586230824598
 20
-32.98683139929835
 10
-108.621711358589
 20
-33.13605167665901
 10
-108.7820294762378
 20
-33.28813332528171
 10
-108.9394286898796
 20
-33.44313571009661
 10
-109.0937456609672
 20
-33.60114295202402
 10
-109.2448170509479
 20
-33.76223917199513
 10
-109.3924795212733
 20
-33.92650849094116
 10
-109.5365697333905
 20
-34.09403502978603
 10
-109.6769243487511
 20
-34.26490290945912
 10
-109.8133800288047
 20
-34.43919625089438
 10
-109.9457719943453
 20
-34.61699891570515
 10
-110.0737698012431
 20
-34.79836494731717
 10
-110.1967258124182
 20
-34.98329129725244
 10
-110.3139565748356
 20
-35.17176847048086
 10
-110.4247786354517
 20
-35.36378697197688
 10
-110.5285085412329
 20
-35.55933730670768
 10
-110.6244628391382
 20
-35.7584099796486
 10
-110.7119580761278
 20
-35.96099549576684
 10
-110.7903129876568
 20
-36.16708360111352
 10
-110.8591808804326
 20
-36.37654801964618
 10
-110.9189062290557
 20
-36.58902279321592
 10
-110.9699190161668
 20
-36.80411231132985
 10
-111.0126492244099
 20
-37.02142096349144
 10
-111.0475268364298
 20
-37.24055313920599
 10
-111.0749818348718
 20
-37.46111322797969
 10
-111.0954442023808
 20
-37.6827056193215
 10
-111.1093439215979
 20
-37.90493470273032
 10
-111.117110975169
 20
-38.127404867716
 10
-111.1190890509101
 20
-38.34974125548979
 10
-111.1151126249279
 20
-38.57169145968601
 10
-111.1048300483048
 20
-38.7930478322678
 10
-111.0878893963759
 20
-39.01360279150322
 10
-111.0639387444817
 20
-39.2331487556612
 10
-111.032626167962
 20
-39.45147814300799
 10
-110.993599742158
 20
-39.66838337181798
 10
-110.9465341783848
 20
-39.88366173343002
 10
-110.8915606792848
 20
-40.0971940346999
 10
-110.8291940656559
 20
-40.30893126576484
 10
-110.7599610813227
 20
-40.5188265980978
 10
-110.6843884701002
 20
-40.72683320316628
 10
-110.603002975804
 20
-40.93290425244049
 10
-110.5163313422559
 20
-41.13699291738612
 10
-110.4249003132677
 20
-41.3390523694743
 10
-110.3291430293375
 20
-41.53900176438128
 10
-110.228938936234
 20
-41.73655904307634
 10
-110.1239646296413
 20
-41.93136843006596
 10
-110.0138963997197
 20
-42.12307403882551
 10
-109.8984105366399
 20
-42.31131998282763
 10
-109.7771833305637
 20
-42.49575037555314
 10
-109.6498910716559
 20
-42.67600933047288
 10
-109.516248921193
 20
-42.85174808605552
 10
-109.3763114342778
 20
-43.02268009090585
 10
-109.230308372848
 20
-43.18855090866236
 10
-109.0784709604632
 20
-43.34910637086432
 10
-108.9210319858412
 20
-43.50409670482441
 10
-108.7582868008958
 20
-43.65344784704757
 10
-108.5906130371695
 20
-43.79731681697831
 10
-108.41839392765
 20
-43.93587636577922
 10
-108.2420127053228
 20
-44.06929924461292
 10
-108.061852603184
 20
-44.1977582046411
 10
-107.8782968542187
 20
-44.32142599702274
 10
-107.691726346377
 20
-44.44047207105268
 10
-107.5023801756438
 20
-44.55486622933677
 10
-107.31027703157
 20
-44.66426793668234
 10
-107.1154165703279
 20
-44.76830985840206
 10
-106.9177984480839
 20
-44.86662465981772
 10
-106.7174223210131
 20
-44.95884500624106
 10
-106.5143085961436
 20
-45.044686115275
 10
-106.3085817043871
 20
-45.12427703838966
 10
-106.100398604317
 20
-45.19787623050888
 10
-105.8899162655757
 20
-45.26574219056238
 10
-105.6772918797919
 20
-45.32813053338668
 10
-105.4626910100169
 20
-45.38518811489212
 10
-105.246289946756
 20
-45.43692242310499
 10
-105.028265682819
 20
-45.48333182189981
 10
-104.8087952110209
 20
-45.52441467515655
 10
-104.5880555241688
 20
-45.56016934675426
 10
-104.366223615074
 20
-45.59059420056929
 10
-104.1434764765509
 20
-45.61568760047885
 10
-103.9199911014075
 20
-45.63544791036657
 10
-103.6959444824561
 20
-45.64987349410239
 10
-103.4715136125092
 20
-45.65896271556994
 10
-103.2468754843749
 20
-45.66271393864645
 10
-103.0222070908667
 20
-45.66112552721006
 10
-102.7976854247959
 20
-45.65419584513711
 10
-102.5734874789728
 20
-45.64192325630756
 10
-102.3497902462091
 20
-45.62430612459775
 10
-102.1267707193147
 20
-45.60134281388946
 10
-101.904605891104
 20
-45.57303168805811
 10
-101.6834727543846
 20
-45.53937111097912
 10
-101.4635483019688
 20
-45.50035944653519
 10
-101.2450095266686
 20
-45.45599505860264
 10
-101.0280334212953
 20
-45.40627631106054
 10
-100.8127969786583
 20
-45.35120156778521
 10
-100.5994769144927
 20
-45.29076939415427
 10
-100.3881936851208
 20
-45.22501926886798
 10
-100.1789434218358
 20
-45.15408108305746
 10
-99.97170561792655
 20
-45.0780968274521
 10
-99.76645976667851
 20
-44.99720849277674
 10
-99.5631853613836
 20
-44.91155806976712
 10
-99.36187086295695
 20
-44.82128670566181
 10
-99.1625396150448
 20
-44.72653226668081
 10
-98.96522344181722
 20
-44.62743182138638
 10
-98.76995416744194
 20
-44.52412243832714
 10
-98.57676361608719
 20
-44.41674118605806
 10
-98.38570744310346
 20
-44.30539954911274
 10
-98.19698199002505
 20
-44.1900579780322
 10
-98.01083504276903
 20
-44.070621695113
 10
-97.82751446370094
 20
-43.94699584058981
 10
-97.64726811517994
 20
-43.81908555469818
 10
-97.47034385956704
 20
-43.68679597767368
 10
-97.29698955922504
 20
-43.55003224974462
 10
-97.12745194905528
 20
-43.40870060467569
 10
-96.96182342011252
 20
-43.26285697466301
 10
-96.79988644696004
 20
-43.11285788060468
 10
-96.64138643687693
 20
-42.95909579503495
 10
-96.48606879715226
 20
-42.80196319048082
 10
-96.33367893506784
 20
-42.6418525394738
 10
-96.18396225791093
 20
-42.47915631454816
 10
-96.0366641729679
 20
-42.31426698822816
 10
-95.89155872120955
 20
-42.14753182459572
 10
-95.74856336427638
 20
-41.97907164727621
 10
-95.60764037410536
 20
-41.80893653090789
 10
-95.46875203771924
 20
-41.63717652632477
 10
-95.33186064214351
 20
-41.46384168434724
 10
-95.19692847440183
 20
-41.2889820558039
 10
-95.06391782151695
 20
-41.11264769151967
 10
-94.93279097051254
 20
-40.93488864232222
 10
-94.80351020841408
 20
-40.75575495904195
 10
-94.6760378222416
 20
-40.57529669249834
 10
-94.5503360990233
 20
-40.39356389352452
 10
-94.42636732577921
 20
-40.21060661294086
 10
-94.30409378953209
 20
-40.02647490158051
 10
-94.18347777731105
 20
-39.84121881026567
 10
-94.06448157613522
 20
-39.65488838982401
 10
-93.94706913792561
 20
-39.46753290342258
 10
-93.83133640665619
 20
-39.27913916902253
 10
-93.71760487874053
 20
-39.08958729612186
 10
-93.60621812862337
 20
-38.89874694914761
 10
-93.49751973073944
 20
-38.70648779252406
 10
-93.39185325953258
 20
-38.51267949067733
 10
-93.28956228943571
 20
-38.31719170803444
 10
-93.19099039489356
 20
-38.11989410902243
 10
-93.0964554296961
 20
-37.92066770476231
 10
-93.00577060562227
 20
-37.71961612993437
 10
-92.91828852860453
 20
-37.51704621613771
 10
-92.833344914201
 20
-37.31327224619781
 10
-92.75027547795617
 20
-37.10860850293557
 10
-92.66841593542904
 20
-36.90336926916825
 10
-92.58715135080547
 20
-36.69784970885485
 10
-92.50656951857673
 20
-36.49207273113188
 10
-92.42728151365736
 20
-36.28585851356183
 10
-92.34991088864626
 20
-36.07902239955092
 10
-92.27508119613685
 20
-35.87137973250265
 10
-92.20341598872801
 20
-35.66274585582505
 10
-92.1355388190168
 20
-35.45293611292436
 10
-92.07198468954357
 20
-35.24179264928534
 10
-92.01244773456983
 20
-35.02941212202222
 10
-91.95615747798092
 20
-34.81603181521223
 10
-91.90233855150382
 20
-34.60189049366818
 10
-91.85021558687095
 20
-34.38722692220563
 10
-91.79901321580746
 20
-34.17227986563921
 10
-94.08384547372953
 20
-33.629330508762
 10
-95.01695447729708
 20
-33.57858574257534
 10
-95.06206502244731
 20
-33.79467312737506
 10
-95.11060837692185
 20
-34.00991133632306
 10
-95.16409777339595
 20
-34.22392384169507
 10
-95.22220502326218
 20
-34.43678199163423
 10
-95.28420232895223
 20
-34.64865432834631
 10
-95.34936189290329
 20
-34.85970939402978
 10
-95.41695591755342
 20
-35.0701157308913
 10
-95.48637635304476
 20
-35.2800023872087
 10
-95.55763584293709
 20
-35.48929370070982
 10
-95.63094752504912
 20
-35.69784788422203
 10
-95.7065246370239
 20
-35.90552311764895
 10
-95.78458041649628
 20
-36.11217758090243
 10
-95.86532810111021
 20
-36.31766945388154
 10
-95.94898092850599
 20
-36.52185691649629
 10
-96.03575213632303
 20
-36.72459814865033
 10
-96.12585496213069
 20
-36.92575133028913
 10
-96.21944616007386
 20
-37.125206191703
 10
-96.31646382730378
 20
-37.3229745999588
 10
-96.41679315769125
 20
-37.51909797268218
 10
-96.52031934509796
 20
-37.71361772749788
 10
-96.62692758339381
 20
-37.90657528204429
 10
-96.7365030664414
 20
-38.09801205393615
 10
-96.84893098810971
 20
-38.28796946081002
 10
-96.96409654226318
 20
-38.47648892028883
 10
-97.08188492276622
 20
-38.6636118500046
 10
-97.202181323486
 20
-38.84937966758298
 10
-97.32487093828968
 20
-39.03383379065144
 10
-97.44983896104259
 20
-39.21701563683746
 10
-97.5769705856128
 20
-39.39896662376759
 10
-97.70615100585655
 20
-39.57972816907295
 10
-97.83726541565284
 20
-39.7593416903801
 10
-97.97020737993444
 20
-39.93783867688489
 10
-98.10507974842767
 20
-40.11500239761699
 10
-98.24220440719637
 20
-40.29035633570584
 10
-98.38191356495372
 20
-40.46341173119708
 10
-98.52453943041019
 20
-40.63367982414184
 10
-98.67041421227623
 20
-40.8006718545912
 10
-98.81987011926594
 20
-40.96389906259265
 10
-98.97323936009252
 20
-41.1228726882
 10
-99.13085414346824
 20
-41.27710397145984
 10
-99.29304667810402
 20
-41.42610415242416
 10
-99.46014917271168
 20
-41.56938447113771
 10
-99.63249363812793
 20
-41.70645630041054
 10
-99.8102552355299
 20
-41.83693624143143
 10
-99.99317062674027
 20
-41.96073507889196
 10
-100.1809004334277
 20
-42.07781461183185
 10
-100.3731052772619
 20
-42.18813663928995
 10
-100.5694457799123
 20
-42.2916629603078
 10
-100.7695825630485
 20
-42.3883553739206
 10
-100.9731762483398
 20
-42.47817567917173
 10
-101.1798874574515
 20
-42.56108567509818
 10
-101.3893768120611
 20
-42.63704716073789
 10
-101.6013049338312
 20
-42.70602193513332
 10
-101.8153376241853
 20
-42.76794158095072
 10
-102.0311912264115
 20
-42.82244284198805
 10
-102.2486106180418
 20
-42.86899600592187
 10
-102.467340998634
 20
-42.90706948188472
 10
-102.6871275677445
 20
-42.93613167899912
 10
-102.907715524932
 20
-42.95565100639396
 10
-103.1288500697478
 20
-42.9650958731936
 10
-103.3502764017539
 20
-42.96393468852784
 10
-103.5717394324488
 20
-42.95163617511116
 10
-103.7928409875035
 20
-42.92782482451821
 10
-104.0128087440057
 20
-42.89253244115935
 10
-104.2308099806669
 20
-42.8458565814899
 10
-104.4460119762048
 20
-42.78789480196792
 10
-104.6575820093317
 20
-42.71874465904148
 10
-104.8646873587659
 20
-42.63850370917135
 10
-105.0664953032201
 20
-42.54726950880467
 10
-105.2621765922308
 20
-42.44514111632088
 10
-105.4512058084833
 20
-42.33234906717917
 10
-105.6335936447149
 20
-42.20935588660541
 10
-105.8094054695689
 20
-42.07664775962894
 10
-105.9787066516874
 20
-41.93471087127091
 10
-106.1415625597178
 20
-41.78403140655519
 10
-106.2980385623046
 20
-41.62509555050383
 10
-106.4482000280891
 20
-41.45838948814708
 10
-106.5921123257208
 20
-41.28439940450335
 10
-106.729840798178
 20
-41.10361148604716
 10
-106.8613425159806
 20
-40.91651804216508
 10
-106.9862188878801
 20
-40.72363149523881
 10
-107.1039984032423
 20
-40.52546839131264
 10
-107.2142095514337
 20
-40.3225452764309
 10
-107.3163808218219
 20
-40.11537869663516
 10
-107.4100407037731
 20
-39.90448519796882
 10
-107.4947176866526
 20
-39.6903813264762
 10
-107.5699402598289
 20
-39.4735836282016
 10
-107.6352369126648
 20
-39.25460864918387
 10
-107.6901361345303
 20
-39.03397293547096
 10
-107.7341664147916
 20
-38.81219303310172
 10
-107.7668562428134
 20
-38.58978548812411
 10
-107.7877341079638
 20
-38.36726684658061
 10
-107.7963284996085
 20
-38.14515365451007
 10
-107.7921679071137
 20
-37.92396245796044
 10
-107.7747808198469
 20
-37.70420980297331
 10
-107.7436957271739
 20
-37.48641223559116
 10
-107.6985741185545
 20
-37.27106559696131
 10
-107.6399801719722
 20
-37.05852520146982
 10
-107.5688532492059
 20
-36.84908795645788
 10
-107.4861339356839
 20
-36.643050578783
 10
-107.392762816834
 20
-36.44070978529271
 10
-107.2896804780817
 20
-36.24236229284179
 10
-107.1778275048528
 20
-36.04830481828685
 10
-107.0581444825757
 20
-35.8588340784745
 10
-106.9315719966739
 20
-35.67424679026135
 10
-106.7990255238878
 20
-35.49482325910594
 10
-106.6610499291469
 20
-35.32060155338422
 10
-106.5179073600152
 20
-35.15143495342545
 10
-106.3698528390887
 20
-34.98717208257312
 10
-106.21714138895
 20
-34.82766156416983
 10
-106.060028032191
 20
-34.67275202156634
 10
-105.8987677913969
 20
-34.5222920781016
 10
-105.7336156891606
 20
-34.37613035712093
 10
-105.5648328435777
 20
-34.23410556502949
 10
-105.3927267401996
 20
-34.09598097187791
 10
-105.2176261737104
 20
-33.96148517933943
 10
-105.0398600511376
 20
-33.83034660632075
 10
-104.8597572795115
 20
-33.70229367172942
 10
-104.677646765861
 20
-33.57705479447031
 10
-104.4938574172102
 20
-33.45435839344827
 10
-104.3087029021699
 20
-33.33393153399447
 10
-104.1223909242058
 20
-33.21549186893299
 10
-103.9350841779742
 20
-33.09875305312107
 10
-103.7469451939555
 20
-32.98342872682315
 10
-103.5581365026328
 20
-32.86923253030545
 10
-103.3688002093518
 20
-32.75591463171713
 10
-103.1789923187316
 20
-32.64337917985904
 10
-102.9887461515759
 20
-32.53157089080196
 10
-102.7980950285578
 20
-32.42043448081768
 10
-102.6070722703648
 20
-32.3099146661807
 10
-102.4157111976806
 20
-32.199956163161
 10
-102.2240451311809
 20
-32.09050368803855
 10
-102.032107391552
 20
-31.98150195708331
 10
-101.8399312994743
 20
-31.87289568656797
 10
-101.6475501756317
 20
-31.76462959276432
 10
-101.4549973407038
 20
-31.65664839195233
 10
-101.262306115374
 20
-31.54889680039832
 10
-101.0695098203241
 20
-31.44131953438136
 10
-100.876641776234
 20
-31.33386131017051
 10
-100.6837353037904
 20
-31.22646684404299
 10
-100.4890999869194
 20
-31.12230192629795
 10
-100.2947981147618
 20
-31.01757296765663
 10
-100.1019328959319
 20
-30.91029066980991
 10
-99.91119595388227
 20
-30.79924141798529
 10
-99.72275035817984
 20
-30.68424647273787
 10
-99.53655922273674
 20
-30.56551859525371
 10
-99.35258528621262
 20
-30.44327128143232
 10
-99.17079128726346
 20
-30.31771802718322
 10
-98.99113996454798
 20
-30.18907232841229
 10
-98.81359405672629
 20
-30.05754768102452
 10
-98.63813835839028
 20
-29.92332509236894
 10
-98.46497755232213
 20
-29.78626167286347
 10
-98.29444257526575
 20
-29.64602855989779
 10
-98.12686586630389
 20
-29.50229467791814
 10
-97.96257986450837
 20
-29.35472895136809
 10
-97.80191700896194
 20
-29.20300030468843
 10
-97.64520973874278
 20
-29.04677766232453
 10
-97.49279870163991
 20
-28.88577220540265
 10
-97.34508039794582
 20
-28.71998263168553
 10
-97.20247459386428
 20
-28.54952740683439
 10
-97.06540113237861
 20
-28.37452539175774
 10
-96.93427985647122
 20
-28.19509544735502
 10
-96.80953060912452
 20
-28.01135643452835
 10
-96.69157323332274
 20
-27.8234272141799
 10
-96.58082757204465
 20
-27.63142664720999
 10
-96.47771346827176
 20
-27.43547359452896
 10
-96.38265076499192
 20
-27.23568691703167
 10
-96.2960426669124
 20
-27.03219927599093
 10
-96.21812871548354
 20
-26.8252790807137
 10
-96.14905546530554
 20
-26.61527186707281
 10
-96.08896840030502
 20
-26.40252405898536
 10
-96.03801300442046
 20
-26.18738208035211
 10
-95.99632999834739
 20
-25.97019967339293
 10
-95.96402807684899
 20
-25.75137978543717
 10
-95.94120273597309
 20
-25.53134564248194
 10
-95.92794943061381
 20
-25.31052053377334
 10
-95.92436361566979
 20
-25.08932774853565
 10
-95.93053602652253
 20
-24.86819004030076
 10
-95.946405431102
 20
-24.64751291264565
 10
-95.97172969342319
 20
-24.42768133460777
 10
-96.00625611552186
 20
-24.209079076335
 10
-96.04973199943379
 20
-23.99208990796615
 10
-96.1019046471938
 20
-23.77709759964455
 10
-96.16254036520331
 20
-23.56449019941556
 10
-96.23184724144176
 20
-23.35475520083946
 10
-96.31047776193554
 20
-23.14848013195297
 10
-96.39905323372204
 20
-22.94624081146776
 10
-96.49751407604981
 20
-22.74839680017067
 10
-96.60531371682373
 20
-22.55515298469709
 10
-96.72189502726906
 20
-22.36671089875836
 10
-96.84670087861195
 20
-22.18327207606853
 10
-96.9791741420795
 20
-22.00503805033713
 10
-97.11875768890059
 20
-21.83221035527731
 10
-97.26489678183952
 20
-21.66499090150319
 10
-97.41717621453154
 20
-21.50360358924172
 10
-97.57539480588002
 20
-21.34830604843228
 10
-97.73936952534132
 20
-21.19935876947056
 10
-97.90891734238357
 20
-21.05702224276956
 10
-98.0838552264695
 20
-20.92155695872952
 10
-98.26400014706178
 20
-20.79322340775434
 10
-98.44916907362585
 20
-20.67228208025062
 10
-98.63914787788963
 20
-20.55896925098023
 10
-98.83359364982607
 20
-20.45342091303519
 10
-99.03213014777066
 20
-20.35574710435139
 10
-99.23438113002885
 20
-20.26605786282744
 10
-99.4399703548961
 20
-20.18446322636191
 10
-99.64852158708345
 20
-20.11107316193466
 10
-99.859667555128
 20
-20.04589853026937
 10
-100.0730677688048
 20
-19.98865409205337
 10
-100.2883867177088
 20
-19.93899954989683
 10
-100.5052888914338
 20
-19.89659460641633
 10
-100.7234387873191
 20
-19.86109899575695
 10
-100.9425264172996
 20
-19.83227632832677
 10
-101.162324111845
 20
-19.81022535363809
 10
-101.3826207714392
 20
-19.79511228184492
 10
-101.6032052965675
 20
-19.78710332310402
 10
-101.8238838443344
 20
-19.78625467207439
 10
-102.0445324379839
 20
-19.79217710859211
 10
-102.2650447797369
 20
-19.80436870434551
 10
-102.4853145718198
 20
-19.82232753101925
 10
-102.7052354551361
 20
-19.84555191390609
 10
-102.9246134867039
 20
-19.87390243508889
 10
-103.1429924508634
 20
-19.90832446575405
 10
-103.3598672478647
 20
-19.94996556720707
 10
-103.5747327779436
 20
-19.99997330075075
 10
-103.7871192113898
 20
-20.05936269978611
 10
-103.9969065364521
 20
-20.1278343495369
 10
-104.20417478833
 20
-20.20433715470608
 10
-104.4090063529279
 20
-20.28781118719144
 10
-104.6114828220939
 20
-20.37719812393789
 10
-104.8114033418183
 20
-20.47201056078393
 10
-105.0078686549846
 20
-20.57317280312782
 10
-105.199873438231
 20
-20.68182355221052
 10
-105.3864314758416
 20
-20.79907367278975
 10
-105.5671690434519
 20
-20.92514173662312
 10
-105.7424399472588
 20
-21.05918643043697
 10
-105.9126403228165
 20
-21.20030477448199
 10
-106.0781663056846
 20
-21.34759378899435
 10
-106.2394140314154
 20
-21.50015049421836
 10
-106.396722419232
 20
-21.657120190569
 10
-106.5496370963933
 20
-21.81831757244527
 10
-106.6971236334248
 20
-21.98404679653504
 10
-106.8381343461515
 20
-22.15462320408187
 10
-106.9716215503977
 20
-22.33036213632204
 10
-107.096537561994
 20
-22.51157893449545
 10
-107.2118811036735
 20
-22.69856733533834
 10
-107.31764529372
 20
-22.89115813971785
 10
-107.4147787243455
 20
-23.08873733240398
 10
-107.5042686064617
 20
-23.29067291942374
 10
-107.5871021509802
 20
-23.49633290680595
 10
-107.6642665688178
 20
-23.70508530057305
 10
-107.736747200594
 20
-23.91629831022237
 10
-107.8046917846964
 20
-24.12943126700611
 10
-107.866093814444
 20
-24.34417785996902
 10
-107.9186052160944
 20
-24.56026893683247
 10
-107.9598779159105
 20
-24.77743534531692
 10
-107.9875638401518
 20
-24.99540793314372
 10
-107.9993149445672
 20
-25.2139175483253
 10
-107.9937478836578
 20
-25.43270448158819
 10
-107.972982392138
 20
-25.65154331271879
 10
-107.9399331070872
 20
-25.8702164022161
 10
-107.8975146655766
 20
-26.08850611057005
 10
-107.8486417046806
 20
-26.30619479827601
 10
-107.7962149699451
 20
-26.52306360375678
 10
-107.7416448692798
 20
-26.73876255666073
 10
-107.6835445621837
 20
-26.95269560562792
 10
-107.620218985775
 20
-27.16423958418363
 10
-107.549973077168
 20
-27.37277132586496
 10
-107.4711117734778
 20
-27.57766766420445
 10
-107.3821789704689
 20
-27.77838490603608
 10
-107.2835566041435
 20
-27.9749906570396
 10
-107.1764794622163
 20
-28.167836165886
 10
-107.0621870182331
 20
-28.35727423967091
 10
-106.9419187457383
 20
-28.5436576854936
 10
-106.8169141182834
 20
-28.72733931044877
 10
-106.688412609416
 20
-28.90867192163387
 10
-106.5576251932116
 20
-29.08800454968059
 10
-106.4252336813565
 20
-29.26561610574208
 10
-106.2914526355539
 20
-29.44172358555807
 10
-106.1564805606567
 20
-29.61654185716179
 10
-106.0205159615111
 20
-29.79028578858924
 10
-105.8837573429651
 20
-29.96317024787822
 10
-105.746403209871
 20
-30.13541010305744
 10
-105.6086520670801
 20
-30.30722022216833
  0
LWPOLYLINE
  5
7E
330
1F
100
AcDbEntity
  8
LOGO
  6
K5LT32770
 62
     1
420
 16711680
100
AcDbPolyline
 90
      137
 70
     1
 43
0.18
 10
-92.16560304111135
 20
-45.79192401466935
 10
-92.23472172659149
 20
-45.74833766019219
 10
-92.30365618054475
 20
-45.70449131746318
 10
-92.37222217143517
 20
-45.66012499822591
 10
-92.44023546773587
 20
-45.61497871422944
 10
-92.50751183791544
 20
-45.56879247721918
 10
-92.5738787026985
 20
-45.52132281218655
 10
-92.63936833945354
 20
-45.47261656125193
 10
-92.70418794494162
 20
-45.4229684574093
 10
-92.76855033383617
 20
-45.3726811951974
 10
-92.83266832080699
 20
-45.32205746915679
 10
-92.89674466026372
 20
-45.27138576233119
 10
-92.96085004142878
 20
-45.22076799764545
 10
-93.02496217669977
 20
-45.17017475555622
 10
-93.08905683896865
 20
-45.11957387669281
 10
-93.15310980112372
 20
-45.06893320169274
 10
-93.21709683605513
 20
-45.01822057118898
 10
-93.28099371665485
 20
-44.96740382580992
 10
-93.34477621580481
 20
-44.91645080619219
 10
-93.40842010640154
 20
-44.86532935296782
 10
-93.47190116133424
 20
-44.81400730676887
 10
-93.53519515348853
 20
-44.76245250823013
 10
-93.59827785575453
 20
-44.71063279798727
 10
-93.6611250410242
 20
-44.658516016666
 10
-93.72371248218587
 20
-44.60607000490745
 10
-93.786015418229
 20
-44.55326290383618
 10
-93.84800276283022
 20
-44.50006641466916
 10
-93.90963929176178
 20
-44.44645456756552
 10
-93.97088970922596
 20
-44.39240143297775
 10
-94.03171871941504
 20
-44.33788108134922
 10
-94.09209102652221
 20
-44.28286758312606
 10
-94.15197133474885
 20
-44.22733500875529
 10
-94.21132434829087
 20
-44.17125742868302
 10
-94.2701147713451
 20
-44.11460891336083
 10
-94.32830730810474
 20
-44.05736353323118
 10
-94.38588448577957
 20
-43.9995117166136
 10
-94.44293385132005
 20
-43.94114027844444
 10
-94.49958128641083
 20
-43.88237121709426
 10
-94.5559527289779
 20
-43.82332658255655
 10
-94.61217411695907
 20
-43.76412842482478
 10
-94.66837138828214
 20
-43.7048987938897
 10
-94.72467048087765
 20
-43.64575973974479
 10
-94.78119733267613
 20
-43.58683331238626
 10
-94.83807788160993
 20
-43.52824156180031
 10
-94.89543806560687
 20
-43.47010653798225
 10
-94.95340382259747
 20
-43.41255029092554
 10
-95.01210109030853
 20
-43.35569487042812
 10
-95.07156061147816
 20
-43.29957284232023
 10
-95.13144706455023
 20
-43.24387266937174
 10
-95.19133714969485
 20
-43.18820011414482
 10
-95.25080756708394
 20
-43.13216093919982
 10
-95.30943501688398
 20
-43.07536090709436
 10
-95.3667961992669
 20
-43.01740578039153
 10
-95.42246781439917
 20
-42.95790132164984
 10
-95.47618706263256
 20
-42.89660073342111
 10
-95.52834646193969
 20
-42.83385921148965
 10
-95.57950575768791
 20
-42.77018557143583
 10
-95.63022469530006
 20
-42.70608862890094
 10
-95.68106302018987
 20
-42.64207719951173
 10
-95.73258047778654
 20
-42.57866009890404
 10
-95.78533681350928
 20
-42.51634614271279
 10
-95.83977016763401
 20
-42.45553430258951
 10
-95.89563566444303
 20
-42.39600659277403
 10
-95.9524501363112
 20
-42.33732978224816
 10
-95.98326829107373
 20
-42.24809997025841
 10
-95.3241016321308
 20
-41.35130621188
 10
-94.66493497318606
 20
-40.45451245350068
 10
-94.0057683142395
 20
-39.55771869512228
 10
-93.94008204731472
 20
-39.59784640262114
 10
-93.88962431971595
 20
-39.66203534322085
 10
-93.83911408841504
 20
-39.72618226503891
 10
-93.78852476845714
 20
-39.79026589211117
 10
-93.73782997820945
 20
-39.85426511626883
 10
-93.68700611042459
 20
-39.91816111920707
 10
-93.63603156444515
 20
-39.98193673875812
 10
-93.58488478428444
 20
-40.04557484962788
 10
-93.53354421395943
 20
-40.10905832652861
 10
-93.48198829748071
 20
-40.17237004416074
 10
-93.43019547887161
 20
-40.23549287723654
 10
-93.37814420213999
 20
-40.29840970046189
 10
-93.32581322888564
 20
-40.36110359445684
 10
-93.27319117268325
 20
-40.42356402776477
 10
-93.22027816455557
 20
-40.48578793670276
 10
-93.16707498875621
 20
-40.54777268114412
 10
-93.1135824295252
 20
-40.60951562095124
 10
-93.05980127111252
 20
-40.67101411599288
 10
-93.0057322977691
 20
-40.73226552613505
 10
-92.95137629373858
 20
-40.79326721124562
 10
-92.89673404327277
 20
-40.85401653119061
 10
-92.84180633061351
 20
-40.91451084583696
 10
-92.78659394001261
 20
-40.97474751504978
 10
-92.73109765571553
 20
-41.03472389870149
 10
-92.67531826197592
 20
-41.09443735665627
 10
-92.61925654303195
 20
-41.15388524877471
 10
-92.56291328313546
 20
-41.21306493493194
 10
-92.50628926653371
 20
-41.27197377499033
 10
-92.44938527747672
 20
-41.33060912882047
 10
-92.39220210020903
 20
-41.38896835628384
 10
-92.33474051898065
 20
-41.44704881725011
 10
-92.27700131803704
 20
-41.50484787158894
 10
-92.21898528162728
 20
-41.56236287916181
 10
-92.16069319399776
 20
-41.61959119984112
 10
-92.10212583939665
 20
-41.67653019348836
 10
-92.04328400207305
 20
-41.7331772199741
 10
-91.98416846627151
 20
-41.78952963916072
 10
-91.92478001624295
 20
-41.84558481092245
 10
-91.86512059637607
 20
-41.9013417921733
 10
-91.80519790968629
 20
-41.95680806352448
 10
-91.74502144259532
 20
-42.01199371434359
 10
-91.68460068205877
 20
-42.06690883478132
 10
-91.6239451150359
 20
-42.12156351499016
 10
-91.56306422848047
 20
-42.17596784512079
 10
-91.50196750935174
 20
-42.23013191532482
 10
-91.44066444460168
 20
-42.28406581575291
 10
-91.37916452119407
 20
-42.33777963656121
 10
-91.31747722608088
 20
-42.39128346789585
 10
-91.25561204621772
 20
-42.44458739991023
 10
-91.19357846856474
 20
-42.49770152275232
 10
-91.13138596976023
 20
-42.55063591289581
 10
-91.0690351237563
 20
-42.60338883902205
 10
-91.00650134232274
 20
-42.65592519680195
 10
-90.94375562315508
 20
-42.70820402743993
 10
-90.88076896394432
 20
-42.76018437214498
 10
-90.81751236238506
 20
-42.81182527211877
 10
-90.7539568161692
 20
-42.863085768563
 10
-90.6900733229877
 20
-42.91392490268572
 10
-90.62583288053793
 20
-42.96430171568772
 10
-90.5612064865054
 20
-43.01417524877797
 10
-90.4961714028841
 20
-43.06351296517551
 10
-90.43076101815677
 20
-43.11235778723676
 10
-90.36503831424307
 20
-43.16079242414526
 10
-90.29906653913258
 20
-43.2088999428006
 10
-90.23290894081492
 20
-43.25676341009785
 10
-90.1666287672806
 20
-43.30446589294388
 10
-90.146131423322
 20
-43.39859332854212
 10
-90.81928862925179
 20
-44.19637022391726
 10
-91.49244583518066
 20
-44.99414711929421
  0
LWPOLYLINE
  5
7F
330
1F
100
AcDbEntity
  8
LOGO
  6
K5LT32770
 62
     1
420
 16711680
100
AcDbPolyline
 90
       13
 70
     1
 43
0.18
 10
-170.8290564072636
 20
-13.97371499914607
 10
-181.6993414353715
 20
-45.29400597553013
 10
-186.1159413905793
 20
-45.29400597553013
 10
-196.9673537814579
 20
-13.34846301002199
 10
-196.9673537814579
 20
-45.29400597553013
 10
-201.89025556654
 20
-45.29400597553013
 10
-201.89025556654
 20
-7.71275562349183
 10
-194.301020025468
 20
-7.71275562349183
 10
-183.6408853530279
 20
-39.79918518914474
 10
-172.6747478362372
 20
-7.71275562349183
 10
-165.9061546221837
 20
-7.71275562349183
 10
-165.9061546221837
 20
-45.29400597553013
 10
-170.8290564072636
 20
-45.29400597553013
  0
ENDSEC
  0
SECTION
  2
OBJECTS
  0
DICTIONARY
  5
C
330
0
100
AcDbDictionary
281
     1
  3
ACAD_DETAILVIEWSTYLE
350
87
  3
ACAD_GROUP
350
D
  3
ACAD_LAYOUT
350
1A
  3
ACAD_MATERIAL
350
43
  3
ACAD_MLEADERSTYLE
350
6B
  3
ACAD_MLINESTYLE
350
17
  3
ACAD_PLOTSETTINGS
350
19
  3
ACAD_PLOTSTYLENAME
350
E
  3
ACAD_SCALELIST
350
47
  3
ACAD_SECTIONVIEWSTYLE
350
88
  3
ACAD_TABLESTYLE
350
69
  3
ACAD_VISUALSTYLE
350
2A
  3
ACDB_RECOMPOSE_DATA
350
84
  3
AcDbVariableDictionary
350
80
  0
SUN
  5
6D
330
29
100
AcDbSun
 90
        1
290
     0
 63
     7
421
 16777215
 40
1.0
291
     1
 91
  2455826
 92
 54000000
292
     0
 70
     2
 71
   256
280
     1
  0
DICTIONARY
  5
87
102
{ACAD_REACTORS
330
C
102
}
330
C
100
AcDbDictionary
281
     1
  0
DICTIONARY
  5
D
102
{ACAD_REACTORS
330
C
102
}
330
C
100
AcDbDictionary
281
     1
  0
DICTIONARY
  5
1A
102
{ACAD_REACTORS
330
C
102
}
330
C
100
AcDbDictionary
281
     1
  3
Layout1
350
1E
  3
Layout2
350
26
  3
Model
350
22
  0
DICTIONARY
  5
43
102
{ACAD_REACTORS
330
C
102
}
330
C
100
AcDbDictionary
281
     1
  3
ByBlock
350
45
  3
ByLayer
350
44
  3
Global
350
46
  0
DICTIONARY
  5
6B
102
{ACAD_REACTORS
330
C
102
}
330
C
100
AcDbDictionary
281
     1
  3
Standard
350
6C
  0
DICTIONARY
  5
17
102
{ACAD_REACTORS
330
C
102
}
330
C
100
AcDbDictionary
281
     1
  3
Standard
350
18
  0
DICTIONARY
  5
19
102
{ACAD_REACTORS
330
C
102
}
330
C
100
AcDbDictionary
281
     1
  0
ACDBDICTIONARYWDFLT
  5
E
102
{ACAD_REACTORS
330
C
102
}
330
C
100
AcDbDictionary
281
     1
  3
Normal
350
F
100
AcDbDictionaryWithDefault
340
F
  0
DICTIONARY
  5
47
102
{ACAD_REACTORS
330
C
102
}
330
C
100
AcDbDictionary
281
     1
  3
A0
350
48
  3
A1
350
49
  3
A2
350
4A
  3
A3
350
4B
  3
A4
350
4C
  3
A5
350
4D
  3
A6
350
4E
  3
A7
350
4F
  3
A8
350
50
  3
A9
350
51
  3
B0
350
52
  3
B1
350
53
  3
B2
350
54
  3
B3
350
55
  3
B4
350
56
  3
B5
350
57
  3
B6
350
58
  3
B7
350
59
  3
B8
350
5A
  3
B9
350
5B
  3
C0
350
5C
  3
C1
350
5D
  3
C2
350
5E
  3
C3
350
5F
  3
C4
350
60
  3
C5
350
61
  3
C6
350
62
  3
C7
350
63
  3
C8
350
64
  3
C9
350
65
  3
D0
350
66
  3
D1
350
67
  3
D2
350
68
  0
DICTIONARY
  5
88
102
{ACAD_REACTORS
330
C
102
}
330
C
100
AcDbDictionary
281
     1
  0
DICTIONARY
  5
69
102
{ACAD_REACTORS
330
C
102
}
330
C
100
AcDbDictionary
281
     1
  3
Standard
350
6A
  0
DICTIONARY
  5
2A
102
{ACAD_REACTORS
330
C
102
}
330
C
100
AcDbDictionary
281
     1
  3
2dWireframe
350
2F
  3
Basic
350
32
  3
Brighten
350
36
  3
ColorChange
350
3A
  3
Conceptual
350
34
  3
Dim
350
35
  3
EdgeColorOff
350
3D
  3
Facepattern
350
39
  3
Flat
350
2B
  3
FlatWithEdges
350
2C
  3
Gouraud
350
2D
  3
GouraudWithEdges
350
2E
  3
Hidden
350
31
  3
JitterOff
350
3B
  3
Linepattern
350
38
  3
OverhangOff
350
3C
  3
Realistic
350
33
  3
Shaded
350
42
  3
Shaded with edges
350
41
  3
Shades of Gray
350
3E
  3
Sketchy
350
3F
  3
Thicken
350
37
  3
Wireframe
350
30
  3
X-Ray
350
40
  0
XRECORD
  5
84
102
{ACAD_REACTORS
330
C
102
}
330
C
100
AcDbXrecord
280
     1
 90
        1
330
6A
  0
DICTIONARY
  5
80
102
{ACAD_REACTORS
330
C
102
}
330
C
100
AcDbDictionary
281
     1
  3
CANNOSCALE
350
81
  3
CENTEREXE
350
8A
  3
CENTERLTYPEFILE
350
8B
  3
CMLEADERSTYLE
350
86
  3
CTABLESTYLE
350
85
  3
WIPEOUTFRAME
350
89
  0
LAYOUT
  5
1E
102
{ACAD_REACTORS
330
1A
102
}
330
1A
100
AcDbPlotSettings
  1

  2
none_device
  4

  6

 40
0.0
 41
0.0
 42
0.0
 43
0.0
 44
0.0
 45
0.0
 46
0.0
 47
0.0
 48
0.0
 49
0.0
140
0.0
141
0.0
142
1.0
143
1.0
 70
   688
 72
     1
 73
     0
 74
     5
  7

 75
    16
 76
     0
 77
     2
 78
   300
147
1.0
148
0.0
149
0.0
100
AcDbLayout
  1
Layout1
 70
     1
 71
     1
 10
0.0
 20
0.0
 11
420.0
 21
297.0
 12
0.0
 22
0.0
 32
0.0
 14
1.000000000000000E+20
 24
1.000000000000000E+20
 34
1.000000000000000E+20
 15
-1.000000000000000E+20
 25
-1.000000000000000E+20
 35
-1.000000000000000E+20
146
0.0
 13
0.0
 23
0.0
 33
0.0
 16
1.0
 26
0.0
 36
0.0
 17
0.0
 27
1.0
 37
0.0
 76
     0
330
1B
  0
LAYOUT
  5
26
102
{ACAD_REACTORS
330
1A
102
}
330
1A
100
AcDbPlotSettings
  1

  2
none_device
  4

  6

 40
0.0
 41
0.0
 42
0.0
 43
0.0
 44
0.0
 45
0.0
 46
0.0
 47
0.0
 48
0.0
 49
0.0
140
0.0
141
0.0
142
1.0
143
1.0
 70
   688
 72
     1
 73
     0
 74
     5
  7

 75
    16
 76
     0
 77
     2
 78
   300
147
1.0
148
0.0
149
0.0
100
AcDbLayout
  1
Layout2
 70
     1
 71
     2
 10
0.0
 20
0.0
 11
0.0
 21
0.0
 12
0.0
 22
0.0
 32
0.0
 14
0.0
 24
0.0
 34
0.0
 15
0.0
 25
0.0
 35
0.0
146
0.0
 13
0.0
 23
0.0
 33
0.0
 16
1.0
 26
0.0
 36
0.0
 17
0.0
 27
1.0
 37
0.0
 76
     0
330
23
  0
LAYOUT
  5
22
102
{ACAD_REACTORS
330
1A
102
}
330
1A
100
AcDbPlotSettings
  1

  2
none_device
  4
Letter_(8.50_x_11.00_Inches)
  6

 40
6.35
 41
6.35
 42
6.35000508
 43
6.35000508
 44
215.9
 45
279.4
 46
0.0
 47
0.0
 48
0.0
 49
0.0
140
0.0
141
0.0
142
1.0
143
1.0
 70
  1712
 72
     1
 73
     0
 74
     0
  7

 75
     0
 76
     0
 77
     2
 78
   300
147
1.0
148
0.0
149
0.0
100
AcDbLayout
  1
Model
 70
     1
 71
     0
 10
0.0
 20
0.0
 11
420.0
 21
297.0
 12
0.0
 22
0.0
 32
0.0
 14
-201.89025556654
 24
-93.75
 34
0.0
 15
93.74999999999997
 25
109.375
 35
0.0
146
0.0
 13
0.0
 23
0.0
 33
0.0
 16
1.0
 26
0.0
 36
0.0
 17
0.0
 27
1.0
 37
0.0
 76
     0
330
1F
331
29
  0
MATERIAL
  5
45
102
{ACAD_REACTORS
330
43
102
}
330
43
100
AcDbMaterial
  1
ByBlock
 72
     1
 94
      127
  0
MATERIAL
  5
44
102
{ACAD_REACTORS
330
43
102
}
330
43
100
AcDbMaterial
  1
ByLayer
 72
     1
 94
      127
  0
MATERIAL
  5
46
102
{ACAD_REACTORS
330
43
102
}
330
43
100
AcDbMaterial
  1
Global
 72
     1
 94
      127
  0
MLEADERSTYLE
  5
6C
102
{ACAD_REACTORS
330
6B
102
}
330
6B
100
AcDbMLeaderStyle
179
     2
170
     2
171
     1
172
     0
 90
        2
 40
0.0
 41
0.0
173
     1
 91
-1056964608
340
14
 92
       -2
290
     1
 42
2.0
291
     1
 43
8.0
  3
Standard
341
0
 44
4.0
300

342
11
174
     1
178
     6
175
     1
176
     0
 93
-1056964608
 45
4.0
292
     0
297
     0
 46
4.0
343
0
 94
-1056964608
 47
1.0
 49
1.0
140
1.0
293
     1
141
0.0
294
     1
177
     0
142
1.0
295
     0
296
     0
143
3.75
271
     0
272
     9
273
     9
298
     0
  0
MLINESTYLE
  5
18
102
{ACAD_REACTORS
330
17
102
}
330
17
100
AcDbMlineStyle
  2
Standard
 70
     0
  3

 62
   256
 51
90.0
 52
90.0
 71
     2
 49
0.5
 62
   256
  6
BYLAYER
 49
-0.5
 62
   256
  6
BYLAYER
  0
ACDBPLACEHOLDER
  5
F
102
{ACAD_REACTORS
330
E
102
}
330
E
  0
SCALE
  5
48
102
{ACAD_REACTORS
330
47
102
}
330
47
100
AcDbScale
 70
     0
300
1:1
140
1.0
141
1.0
290
     1
  0
SCALE
  5
49
102
{ACAD_REACTORS
330
47
102
}
330
47
100
AcDbScale
 70
     0
300
1:2
140
1.0
141
2.0
290
     0
  0
SCALE
  5
4A
102
{ACAD_REACTORS
330
47
102
}
330
47
100
AcDbScale
 70
     0
300
1:4
140
1.0
141
4.0
290
     0
  0
SCALE
  5
4B
102
{ACAD_REACTORS
330
47
102
}
330
47
100
AcDbScale
 70
     0
300
1:5
140
1.0
141
5.0
290
     0
  0
SCALE
  5
4C
102
{ACAD_REACTORS
330
47
102
}
330
47
100
AcDbScale
 70
     0
300
1:8
140
1.0
141
8.0
290
     0
  0
SCALE
  5
4D
102
{ACAD_REACTORS
330
47
102
}
330
47
100
AcDbScale
 70
     0
300
1:10
140
1.0
141
10.0
290
     0
  0
SCALE
  5
4E
102
{ACAD_REACTORS
330
47
102
}
330
47
100
AcDbScale
 70
     0
300
1:16
140
1.0
141
16.0
290
     0
  0
SCALE
  5
4F
102
{ACAD_REACTORS
330
47
102
}
330
47
100
AcDbScale
 70
     0
300
1:20
140
1.0
141
20.0
290
     0
  0
SCALE
  5
50
102
{ACAD_REACTORS
330
47
102
}
330
47
100
AcDbScale
 70
     0
300
1:30
140
1.0
141
30.0
290
     0
  0
SCALE
  5
51
102
{ACAD_REACTORS
330
47
102
}
330
47
100
AcDbScale
 70
     0
300
1:40
140
1.0
141
40.0
290
     0
  0
SCALE
  5
52
102
{ACAD_REACTORS
330
47
102
}
330
47
100
AcDbScale
 70
     0
300
1:50
140
1.0
141
50.0
290
     0
  0
SCALE
  5
53
102
{ACAD_REACTORS
330
47
102
}
330
47
100
AcDbScale
 70
     0
300
1:100
140
1.0
141
100.0
290
     0
  0
SCALE
  5
54
102
{ACAD_REACTORS
330
47
102
}
330
47
100
AcDbScale
 70
     0
300
2:1
140
2.0
141
1.0
290
     0
  0
SCALE
  5
55
102
{ACAD_REACTORS
330
47
102
}
330
47
100
AcDbScale
 70
     0
300
4:1
140
4.0
141
1.0
290
     0
  0
SCALE
  5
56
102
{ACAD_REACTORS
330
47
102
}
330
47
100
AcDbScale
 70
     0
300
8:1
140
8.0
141
1.0
290
     0
  0
SCALE
  5
57
102
{ACAD_REACTORS
330
47
102
}
330
47
100
AcDbScale
 70
     0
300
10:1
140
10.0
141
1.0
290
     0
  0
SCALE
  5
58
102
{ACAD_REACTORS
330
47
102
}
330
47
100
AcDbScale
 70
     0
300
100:1
140
100.0
141
1.0
290
     0
  0
SCALE
  5
59
102
{ACAD_REACTORS
330
47
102
}
330
47
100
AcDbScale
 70
     0
300
1/128" = 1'-0"
140
0.0078125
141
12.0
290
     0
  0
SCALE
  5
5A
102
{ACAD_REACTORS
330
47
102
}
330
47
100
AcDbScale
 70
     0
300
1/64" = 1'-0"
140
0.015625
141
12.0
290
     0
  0
SCALE
  5
5B
102
{ACAD_REACTORS
330
47
102
}
330
47
100
AcDbScale
 70
     0
300
1/32" = 1'-0"
140
0.03125
141
12.0
290
     0
  0
SCALE
  5
5C
102
{ACAD_REACTORS
330
47
102
}
330
47
100
AcDbScale
 70
     0
300
1/16" = 1'-0"
140
0.0625
141
12.0
290
     0
  0
SCALE
  5
5D
102
{ACAD_REACTORS
330
47
102
}
330
47
100
AcDbScale
 70
     0
300
3/32" = 1'-0"
140
0.09375
141
12.0
290
     0
  0
SCALE
  5
5E
102
{ACAD_REACTORS
330
47
102
}
330
47
100
AcDbScale
 70
     0
300
1/8" = 1'-0"
140
0.125
141
12.0
290
     0
  0
SCALE
  5
5F
102
{ACAD_REACTORS
330
47
102
}
330
47
100
AcDbScale
 70
     0
300
3/16" = 1'-0"
140
0.1875
141
12.0
290
     0
  0
SCALE
  5
60
102
{ACAD_REACTORS
330
47
102
}
330
47
100
AcDbScale
 70
     0
300
1/4" = 1'-0"
140
0.25
141
12.0
290
     0
  0
SCALE
  5
61
102
{ACAD_REACTORS
330
47
102
}
330
47
100
AcDbScale
 70
     0
300
3/8" = 1'-0"
140
0.375
141
12.0
290
     0
  0
SCALE
  5
62
102
{ACAD_REACTORS
330
47
102
}
330
47
100
AcDbScale
 70
     0
300
1/2" = 1'-0"
140
0.5
141
12.0
290
     0
  0
SCALE
  5
63
102
{ACAD_REACTORS
330
47
102
}
330
47
100
AcDbScale
 70
     0
300
3/4" = 1'-0"
140
0.75
141
12.0
290
     0
  0
SCALE
  5
64
102
{ACAD_REACTORS
330
47
102
}
330
47
100
AcDbScale
 70
     0
300
1" = 1'-0"
140
1.0
141
12.0
290
     0
  0
SCALE
  5
65
102
{ACAD_REACTORS
330
47
102
}
330
47
100
AcDbScale
 70
     0
300
1-1/2" = 1'-0"
140
1.5
141
12.0
290
     0
  0
SCALE
  5
66
102
{ACAD_REACTORS
330
47
102
}
330
47
100
AcDbScale
 70
     0
300
3" = 1'-0"
140
3.0
141
12.0
290
     0
  0
SCALE
  5
67
102
{ACAD_REACTORS
330
47
102
}
330
47
100
AcDbScale
 70
     0
300
6" = 1'-0"
140
6.0
141
12.0
290
     0
  0
SCALE
  5
68
102
{ACAD_REACTORS
330
47
102
}
330
47
100
AcDbScale
 70
     0
300
1'-0" = 1'-0"
140
12.0
141
12.0
290
     0
  0
TABLESTYLE
  5
6A
102
{ACAD_REACTORS
330
69
102
}
102
{ACAD_XDICTIONARY
360
82
102
}
330
69
100
AcDbTableStyle
  3
Standard
 70
     0
 71
     0
 40
0.06
 41
0.06
280
     0
281
     0
  7
Standard
140
4.5
170
     2
 62
     0
 63
   257
283
     0
 90
        4
 91
        0
  1

274
    -2
284
     1
 64
     0
275
    -2
285
     1
 65
     0
276
    -2
286
     1
 66
     0
277
    -2
287
     1
 67
     0
278
    -2
288
     1
 68
     0
279
    -2
289
     1
 69
     0
  7
Standard
140
6.0
170
     5
 62
     0
 63
   257
283
     0
 90
        4
 91
        0
  1

274
    -2
284
     1
 64
     0
275
    -2
285
     1
 65
     0
276
    -2
286
     1
 66
     0
277
    -2
287
     1
 67
     0
278
    -2
288
     1
 68
     0
279
    -2
289
     1
 69
     0
  7
Standard
140
4.5
170
     5
 62
     0
 63
   257
283
     0
 90
        4
 91
        0
  1

274
    -2
284
     1
 64
     0
275
    -2
285
     1
 65
     0
276
    -2
286
     1
 66
     0
277
    -2
287
     1
 67
     0
278
    -2
288
     1
 68
     0
279
    -2
289
     1
 69
     0
  0
VISUALSTYLE
  5
2F
102
{ACAD_REACTORS
330
2A
102
}
330
2A
100
AcDbVisualStyle
  2
2dWireframe
 70
     4
177
     3
291
     0
 70
    58
 90
        0
176
     1
 90
        2
176
     1
 90
        0
176
     1
 90
        0
176
     1
 40
0.6
176
     1
 40
30.0
176
     1
 62
     7
420
 16777215
176
     1
 90
        1
176
     1
 90
        4
176
     1
 62
     7
176
     1
 62
   257
176
     1
 90
        1
176
     1
 90
        1
176
     1
 40
1.0
176
     1
 90
        0
176
     1
 62
   257
176
     1
 40
1.0
176
     1
 90
        1
176
     1
 90
        6
176
     1
 90
        2
176
     1
 62
     7
176
     1
 90
        5
176
     1
 90
        0
176
     1
 90
        0
176
     1
290
     0
176
     1
 90
        1
176
     1
 40
0.0
176
     1
 90
        0
176
     1
290
     1
176
     1
290
     1
176
     1
290
     0
176
     1
290
     0
176
     1
290
     0
176
     1
290
     0
176
     1
290
     0
176
     1
290
     0
176
     1
290
     0
176
     1
 90
       50
176
     1
 40
0.0
176
     1
 40
1.0
176
     1
 90
        0
176
     1
 62
    18
420
        0
176
     1
 90
       50
176
     1
 90
        3
176
     1
 62
     5
420
      255
176
     1
290
     0
176
     1
 90
       50
176
     1
 90
       50
176
     1
 90
       50
176
     1
290
     0
176
     1
 90
       50
176
     1
 62
   256
176
     0
 40
1.0
176
     0
 90
        2
176
     1
  1
strokes_ogs.tif
176
     1
290
     0
176
     1
 40
1.0
176
     1
 40
1.0
176
     1
  0
VISUALSTYLE
  5
32
102
{ACAD_REACTORS
330
2A
102
}
330
2A
100
AcDbVisualStyle
  2
Basic
 70
     7
177
     3
291
     1
 70
    58
 90
        1
176
     1
 90
        0
176
     1
 90
        1
176
     1
 90
        0
176
     1
 40
0.6
176
     1
 40
30.0
176
     1
 62
     7
420
 16777215
176
     1
 90
        0
176
     1
 90
        4
176
     1
 62
     7
176
     1
 62
   257
176
     1
 90
        1
176
     1
 90
        1
176
     1
 40
1.0
176
     1
 90
        8
176
     1
 62
     7
176
     1
 40
1.0
176
     1
 90
        1
176
     1
 90
        6
176
     1
 90
        2
176
     1
 62
     7
176
     1
 90
        5
176
     1
 90
        0
176
     1
 90
        0
176
     1
290
     0
176
     1
 90
        1
176
     1
 40
0.0
176
     1
 90
        0
176
     1
290
     0
176
     1
290
     1
176
     1
290
     1
176
     1
290
     0
176
     1
290
     0
176
     1
290
     0
176
     1
290
     0
176
     1
290
     0
176
     1
290
     0
176
     1
 90
       50
176
     1
 40
0.0
176
     1
 40
1.0
176
     1
 90
        0
176
     1
 62
    18
420
        0
176
     1
 90
       50
176
     1
 90
        3
176
     1
 62
     5
420
      255
176
     1
290
     0
176
     1
 90
       50
176
     1
 90
       50
176
     1
 90
       50
176
     1
290
     0
176
     1
 90
       50
176
     1
 62
   256
176
     0
 40
1.0
176
     0
 90
        2
176
     1
  1
strokes_ogs.tif
176
     1
290
     0
176
     1
 40
1.0
176
     1
 40
1.0
176
     1
  0
VISUALSTYLE
  5
36
102
{ACAD_REACTORS
330
2A
102
}
330
2A
100
AcDbVisualStyle
  2
Brighten
 70
    12
177
     3
291
     1
 70
    58
 90
        2
176
     1
 90
        2
176
     1
 90
        0
176
     1
 90
        0
176
     1
 40
0.6
176
     1
 40
30.0
176
     1
 62
     7
420
 16777215
176
     1
 90
        1
176
     1
 90
        4
176
     1
 62
     7
176
     1
 62
   257
176
     1
 90
        1
176
     1
 90
        1
176
     1
 40
1.0
176
     1
 90
        8
176
     1
 62
     7
176
     1
 40
1.0
176
     1
 90
        1
176
     1
 90
        6
176
     1
 90
        2
176
     1
 62
     7
176
     1
 90
        5
176
     1
 90
        0
176
     1
 90
        0
176
     1
290
     0
176
     1
 90
        1
176
     1
 40
50.0
176
     1
 90
        0
176
     1
290
     0
176
     1
290
     1
176
     1
290
     1
176
     1
290
     0
176
     1
290
     0
176
     1
290
     0
176
     1
290
     0
176
     1
290
     0
176
     1
290
     0
176
     1
 90
       50
176
     1
 40
0.0
176
     1
 40
1.0
176
     1
 90
        0
176
     1
 62
    18
420
        0
176
     1
 90
       50
176
     1
 90
        3
176
     1
 62
     5
420
      255
176
     1
290
     0
176
     1
 90
       50
176
     1
 90
       50
176
     1
 90
       50
176
     1
290
     0
176
     1
 90
       50
176
     1
 62
   256
176
     0
 40
1.0
176
     0
 90
        2
176
     1
  1
strokes_ogs.tif
176
     1
290
     0
176
     1
 40
1.0
176
     1
 40
1.0
176
     1
  0
VISUALSTYLE
  5
3A
102
{ACAD_REACTORS
330
2A
102
}
330
2A
100
AcDbVisualStyle
  2
ColorChange
 70
    16
177
     3
291
     1
 70
    58
 90
        2
176
     1
 90
        2
176
     1
 90
        3
176
     1
 90
        0
176
     1
 40
0.6
176
     1
 40
30.0
176
     1
 62
     8
420
  8421504
176
     1
 90
        1
176
     1
 90
        4
176
     1
 62
     7
176
     1
 62
   257
176
     1
 90
        1
176
     1
 90
        1
176
     1
 40
1.0
176
     1
 90
        8
176
     1
 62
     8
420
  8421504
176
     1
 40
1.0
176
     1
 90
        1
176
     1
 90
        6
176
     1
 90
        2
176
     1
 62
     7
176
     1
 90
        5
176
     1
 90
        0
176
     1
 90
        0
176
     1
290
     0
176
     1
 90
        1
176
     1
 40
0.0
176
     1
 90
        0
176
     1
290
     0
176
     1
290
     1
176
     1
290
     1
176
     1
290
     0
176
     1
290
     0
176
     1
290
     0
176
     1
290
     0
176
     1
290
     0
176
     1
290
     0
176
     1
 90
       50
176
     1
 40
0.0
176
     1
 40
1.0
176
     1
 90
        0
176
     1
 62
    18
420
        0
176
     1
 90
       50
176
     1
 90
        3
176
     1
 62
     5
420
      255
176
     1
290
     0
176
     1
 90
       50
176
     1
 90
       50
176
     1
 90
       50
176
     1
290
     0
176
     1
 90
       50
176
     1
 62
   256
176
     0
 40
1.0
176
     0
 90
        2
176
     1
  1
strokes_ogs.tif
176
     1
290
     0
176
     1
 40
1.0
176
     1
 40
1.0
176
     1
  0
VISUALSTYLE
  5
34
102
{ACAD_REACTORS
330
2A
102
}
330
2A
100
AcDbVisualStyle
  2
Conceptual
 70
     9
177
     3
291
     0
 70
    58
 90
        3
176
     1
 90
        2
176
     1
 90
        0
176
     1
 90
        0
176
     1
 40
0.6
176
     1
 40
30.0
176
     1
 62
     7
420
 16777215
176
     1
 90
        2
176
     1
 90
        2
176
     1
 62
     7
176
     1
 62
   257
176
     1
 90
        1
176
     1
 90
        1
176
     1
 40
179.0
176
     1
 90
        8
176
     1
 62
     7
176
     1
 40
1.0
176
     1
 90
        1
176
     1
 90
        6
176
     1
 90
        2
176
     1
 62
     7
176
     1
 90
        3
176
     1
 90
        0
176
     1
 90
        0
176
     1
290
     0
176
     1
 90
        1
176
     1
 40
0.0
176
     1
 90
        0
176
     1
290
     0
176
     1
290
     1
176
     1
290
     1
176
     1
290
     0
176
     1
290
     0
176
     1
290
     0
176
     1
290
     0
176
     1
290
     0
176
     1
290
     0
176
     1
 90
       50
176
     1
 40
0.0
176
     1
 40
1.0
176
     1
 90
        0
176
     1
 62
    18
420
        0
176
     1
 90
       50
176
     1
 90
        3
176
     1
 62
     5
420
      255
176
     1
290
     0
176
     1
 90
       50
176
     1
 90
       50
176
     1
 90
       50
176
     1
290
     0
176
     1
 90
       50
176
     1
 62
   256
176
     0
 40
1.0
176
     0
 90
        2
176
     1
  1
strokes_ogs.tif
176
     1
290
     0
176
     1
 40
1.0
176
     1
 40
1.0
176
     1
  0
VISUALSTYLE
  5
35
102
{ACAD_REACTORS
330
2A
102
}
330
2A
100
AcDbVisualStyle
  2
Dim
 70
    11
177
     3
291
     1
 70
    58
 90
        2
176
     1
 90
        2
176
     1
 90
        0
176
     1
 90
        0
176
     1
 40
0.6
176
     1
 40
30.0
176
     1
 62
     7
420
 16777215
176
     1
 90
        1
176
     1
 90
        4
176
     1
 62
     7
176
     1
 62
   257
176
     1
 90
        1
176
     1
 90
        1
176
     1
 40
1.0
176
     1
 90
        8
176
     1
 62
     7
176
     1
 40
1.0
176
     1
 90
        1
176
     1
 90
        6
176
     1
 90
        2
176
     1
 62
     7
176
     1
 90
        5
176
     1
 90
        0
176
     1
 90
        0
176
     1
290
     0
176
     1
 90
        1
176
     1
 40
-50.0
176
     1
 90
        0
176
     1
290
     0
176
     1
290
     1
176
     1
290
     1
176
     1
290
     0
176
     1
290
     0
176
     1
290
     0
176
     1
290
     0
176
     1
290
     0
176
     1
290
     0
176
     1
 90
       50
176
     1
 40
0.0
176
     1
 40
1.0
176
     1
 90
        0
176
     1
 62
    18
420
        0
176
     1
 90
       50
176
     1
 90
        3
176
     1
 62
     5
420
      255
176
     1
290
     0
176
     1
 90
       50
176
     1
 90
       50
176
     1
 90
       50
176
     1
290
     0
176
     1
 90
       50
176
     1
 62
   256
176
     0
 40
1.0
176
     0
 90
        2
176
     1
  1
strokes_ogs.tif
176
     1
290
     0
176
     1
 40
1.0
176
     1
 40
1.0
176
     1
  0
VISUALSTYLE
  5
3D
102
{ACAD_REACTORS
330
2A
102
}
330
2A
100
AcDbVisualStyle
  2
EdgeColorOff
 70
    22
177
     3
291
     1
 70
    58
 90
        2
176
     0
 90
        2
176
     0
 90
        0
176
     0
 90
        0
176
     0
 40
0.6
176
     0
 40
30.0
176
     0
 62
     7
420
 16777215
176
     0
 90
        1
176
     0
 90
        4
176
     0
 62
     7
176
     0
 62
   257
176
     0
 90
        1
176
     0
 90
        1
176
     0
 40
1.0
176
     0
 90
        8
176
     2
 62
     7
176
     0
 40
1.0
176
     0
 90
        1
176
     0
 90
        6
176
     0
 90
        2
176
     0
 62
     7
176
     0
 90
        5
176
     0
 90
        0
176
     0
 90
        0
176
     0
290
     0
176
     0
 90
        1
176
     0
 40
0.0
176
     0
 90
        0
176
     0
290
     0
176
     0
290
     1
176
     0
290
     1
176
     0
290
     0
176
     0
290
     0
176
     0
290
     0
176
     0
290
     0
176
     0
290
     0
176
     0
290
     0
176
     0
 90
       50
176
     0
 40
0.0
176
     0
 40
1.0
176
     0
 90
        0
176
     0
 62
    18
420
        0
176
     0
 90
       50
176
     0
 90
        3
176
     0
 62
     5
420
      255
176
     0
290
     0
176
     0
 90
       50
176
     0
 90
       50
176
     0
 90
       50
176
     0
290
     0
176
     0
 90
       50
176
     0
 62
   256
176
     0
 40
1.0
176
     0
 90
        2
176
     0
  1
strokes_ogs.tif
176
     0
290
     0
176
     0
 40
1.0
176
     0
 40
1.0
176
     0
  0
VISUALSTYLE
  5
39
102
{ACAD_REACTORS
330
2A
102
}
330
2A
100
AcDbVisualStyle
  2
Facepattern
 70
    15
177
     3
291
     1
 70
    58
 90
        2
176
     1
 90
        2
176
     1
 90
        0
176
     1
 90
        0
176
     1
 40
0.6
176
     1
 40
30.0
176
     1
 62
     7
420
 16777215
176
     1
 90
        1
176
     1
 90
        4
176
     1
 62
     7
176
     1
 62
   257
176
     1
 90
        1
176
     1
 90
        1
176
     1
 40
1.0
176
     1
 90
        8
176
     1
 62
     7
176
     1
 40
1.0
176
     1
 90
        1
176
     1
 90
        6
176
     1
 90
        2
176
     1
 62
     7
176
     1
 90
        5
176
     1
 90
        0
176
     1
 90
        0
176
     1
290
     0
176
     1
 90
        1
176
     1
 40
0.0
176
     1
 90
        0
176
     1
290
     0
176
     1
290
     1
176
     1
290
     1
176
     1
290
     0
176
     1
290
     0
176
     1
290
     0
176
     1
290
     0
176
     1
290
     0
176
     1
290
     0
176
     1
 90
       50
176
     1
 40
0.0
176
     1
 40
1.0
176
     1
 90
        0
176
     1
 62
    18
420
        0
176
     1
 90
       50
176
     1
 90
        3
176
     1
 62
     5
420
      255
176
     1
290
     0
176
     1
 90
       50
176
     1
 90
       50
176
     1
 90
       50
176
     1
290
     0
176
     1
 90
       50
176
     1
 62
   256
176
     0
 40
1.0
176
     0
 90
        2
176
     1
  1
strokes_ogs.tif
176
     1
290
     0
176
     1
 40
1.0
176
     1
 40
1.0
176
     1
  0
VISUALSTYLE
  5
2B
102
{ACAD_REACTORS
330
2A
102
}
330
2A
100
AcDbVisualStyle
  2
Flat
 70
     0
177
     3
291
     1
 70
    58
 90
        2
176
     1
 90
        1
176
     1
 90
        1
176
     1
 90
        2
176
     1
 40
0.6
176
     1
 40
30.0
176
     1
 62
     7
420
 16777215
176
     1
 90
        0
176
     1
 90
        0
176
     1
 62
     7
176
     1
 62
   257
176
     1
 90
        1
176
     1
 90
        1
176
     1
 40
1.0
176
     1
 90
        8
176
     1
 62
     7
176
     1
 40
1.0
176
     1
 90
        1
176
     1
 90
        6
176
     1
 90
        2
176
     1
 62
     7
176
     1
 90
        5
176
     1
 90
        0
176
     1
 90
        0
176
     1
290
     0
176
     1
 90
       13
176
     1
 40
0.0
176
     1
 90
        0
176
     1
290
     0
176
     1
290
     1
176
     1
290
     1
176
     1
290
     0
176
     1
290
     0
176
     1
290
     0
176
     1
290
     0
176
     1
290
     0
176
     1
290
     0
176
     1
 90
       50
176
     1
 40
0.0
176
     1
 40
1.0
176
     1
 90
        0
176
     1
 62
    18
420
        0
176
     1
 90
       50
176
     1
 90
        3
176
     1
 62
     5
420
      255
176
     1
290
     0
176
     1
 90
       50
176
     1
 90
       50
176
     1
 90
       50
176
     1
290
     0
176
     1
 90
       50
176
     1
 62
   256
176
     0
 40
1.0
176
     0
 90
        2
176
     1
  1
strokes_ogs.tif
176
     1
290
     0
176
     1
 40
1.0
176
     1
 40
1.0
176
     1
  0
VISUALSTYLE
  5
2C
102
{ACAD_REACTORS
330
2A
102
}
330
2A
100
AcDbVisualStyle
  2
FlatWithEdges
 70
     1
177
     3
291
     1
 70
    58
 90
        2
176
     1
 90
        1
176
     1
 90
        1
176
     1
 90
        2
176
     1
 40
0.6
176
     1
 40
30.0
176
     1
 62
     7
420
 16777215
176
     1
 90
        1
176
     1
 90
        0
176
     1
 62
     7
176
     1
 62
   257
176
     1
 90
        1
176
     1
 90
        1
176
     1
 40
1.0
176
     1
 90
        0
176
     1
 62
   257
176
     1
 40
1.0
176
     1
 90
        1
176
     1
 90
        6
176
     1
 90
        2
176
     1
 62
     7
176
     1
 90
        5
176
     1
 90
        0
176
     1
 90
        0
176
     1
290
     0
176
     1
 90
       13
176
     1
 40
0.0
176
     1
 90
        0
176
     1
290
     0
176
     1
290
     1
176
     1
290
     1
176
     1
290
     0
176
     1
290
     0
176
     1
290
     0
176
     1
290
     0
176
     1
290
     0
176
     1
290
     0
176
     1
 90
       50
176
     1
 40
0.0
176
     1
 40
1.0
176
     1
 90
        0
176
     1
 62
    18
420
        0
176
     1
 90
       50
176
     1
 90
        3
176
     1
 62
     5
420
      255
176
     1
290
     0
176
     1
 90
       50
176
     1
 90
       50
176
     1
 90
       50
176
     1
290
     0
176
     1
 90
       50
176
     1
 62
   256
176
     0
 40
1.0
176
     0
 90
        2
176
     1
  1
strokes_ogs.tif
176
     1
290
     0
176
     1
 40
1.0
176
     1
 40
1.0
176
     1
  0
VISUALSTYLE
  5
2D
102
{ACAD_REACTORS
330
2A
102
}
330
2A
100
AcDbVisualStyle
  2
Gouraud
 70
     2
177
     3
291
     1
 70
    58
 90
        2
176
     1
 90
        2
176
     1
 90
        1
176
     1
 90
        2
176
     1
 40
0.6
176
     1
 40
30.0
176
     1
 62
     7
420
 16777215
176
     1
 90
        0
176
     1
 90
        0
176
     1
 62
     7
176
     1
 62
   257
176
     1
 90
        1
176
     1
 90
        1
176
     1
 40
1.0
176
     1
 90
        0
176
     1
 62
     7
176
     1
 40
1.0
176
     1
 90
        1
176
     1
 90
        6
176
     1
 90
        2
176
     1
 62
     7
176
     1
 90
        5
176
     1
 90
        0
176
     1
 90
        0
176
     1
290
     0
176
     1
 90
       13
176
     1
 40
0.0
176
     1
 90
        0
176
     1
290
     0
176
     1
290
     1
176
     1
290
     1
176
     1
290
     0
176
     1
290
     0
176
     1
290
     0
176
     1
290
     0
176
     1
290
     0
176
     1
290
     0
176
     1
 90
       50
176
     1
 40
0.0
176
     1
 40
1.0
176
     1
 90
        0
176
     1
 62
    18
420
        0
176
     1
 90
       50
176
     1
 90
        3
176
     1
 62
     5
420
      255
176
     1
290
     0
176
     1
 90
       50
176
     1
 90
       50
176
     1
 90
       50
176
     1
290
     0
176
     1
 90
       50
176
     1
 62
   256
176
     0
 40
1.0
176
     0
 90
        2
176
     1
  1
strokes_ogs.tif
176
     1
290
     0
176
     1
 40
1.0
176
     1
 40
1.0
176
     1
  0
VISUALSTYLE
  5
2E
102
{ACAD_REACTORS
330
2A
102
}
330
2A
100
AcDbVisualStyle
  2
GouraudWithEdges
 70
     3
177
     3
291
     1
 70
    58
 90
        2
176
     1
 90
        2
176
     1
 90
        1
176
     1
 90
        2
176
     1
 40
0.6
176
     1
 40
30.0
176
     1
 62
     7
420
 16777215
176
     1
 90
        1
176
     1
 90
        0
176
     1
 62
     7
176
     1
 62
   257
176
     1
 90
        1
176
     1
 90
        1
176
     1
 40
1.0
176
     1
 90
        0
176
     1
 62
   257
176
     1
 40
1.0
176
     1
 90
        1
176
     1
 90
        6
176
     1
 90
        2
176
     1
 62
     7
176
     1
 90
        5
176
     1
 90
        0
176
     1
 90
        0
176
     1
290
     0
176
     1
 90
       13
176
     1
 40
0.0
176
     1
 90
        0
176
     1
290
     0
176
     1
290
     1
176
     1
290
     1
176
     1
290
     0
176
     1
290
     0
176
     1
290
     0
176
     1
290
     0
176
     1
290
     0
176
     1
290
     0
176
     1
 90
       50
176
     1
 40
0.0
176
     1
 40
1.0
176
     1
 90
        0
176
     1
 62
    18
420
        0
176
     1
 90
       50
176
     1
 90
        3
176
     1
 62
     5
420
      255
176
     1
290
     0
176
     1
 90
       50
176
     1
 90
       50
176
     1
 90
       50
176
     1
290
     0
176
     1
 90
       50
176
     1
 62
   256
176
     0
 40
1.0
176
     0
 90
        2
176
     1
  1
strokes_ogs.tif
176
     1
290
     0
176
     1
 40
1.0
176
     1
 40
1.0
176
     1
  0
VISUALSTYLE
  5
31
102
{ACAD_REACTORS
330
2A
102
}
330
2A
100
AcDbVisualStyle
  2
Hidden
 70
     6
177
     3
291
     0
 70
    58
 90
        1
176
     1
 90
        2
176
     1
 90
        2
176
     1
 90
        0
176
     1
 40
0.6
176
     1
 40
30.0
176
     1
 62
     7
420
 16777215
176
     1
 90
        2
176
     1
 90
        2
176
     1
 62
     7
176
     1
 62
   257
176
     1
 90
        2
176
     1
 90
        1
176
     1
 40
40.0
176
     1
 90
        0
176
     1
 62
   257
176
     1
 40
1.0
176
     1
 90
        1
176
     1
 90
        6
176
     1
 90
        2
176
     1
 62
     7
176
     1
 90
        3
176
     1
 90
        0
176
     1
 90
        0
176
     1
290
     0
176
     1
 90
        1
176
     1
 40
0.0
176
     1
 90
        0
176
     1
290
     0
176
     1
290
     1
176
     1
290
     1
176
     1
290
     0
176
     1
290
     0
176
     1
290
     0
176
     1
290
     0
176
     1
290
     0
176
     1
290
     0
176
     1
 90
       50
176
     1
 40
0.0
176
     1
 40
1.0
176
     1
 90
        0
176
     1
 62
    18
420
        0
176
     1
 90
       50
176
     1
 90
        3
176
     1
 62
     5
420
      255
176
     1
290
     0
176
     1
 90
       50
176
     1
 90
       50
176
     1
 90
       50
176
     1
290
     0
176
     1
 90
       50
176
     1
 62
   256
176
     0
 40
1.0
176
     0
 90
        2
176
     1
  1
strokes_ogs.tif
176
     1
290
     0
176
     1
 40
1.0
176
     1
 40
1.0
176
     1
  0
VISUALSTYLE
  5
3B
102
{ACAD_REACTORS
330
2A
102
}
330
2A
100
AcDbVisualStyle
  2
JitterOff
 70
    20
177
     3
291
     1
 70
    58
 90
        2
176
     0
 90
        2
176
     0
 90
        0
176
     0
 90
        0
176
     0
 40
0.6
176
     0
 40
30.0
176
     0
 62
     7
420
 16777215
176
     0
 90
        1
176
     0
 90
        4
176
     0
 62
     7
176
     0
 62
   257
176
     0
 90
        1
176
     0
 90
        1
176
     0
 40
1.0
176
     0
 90
       10
176
     2
 62
     7
176
     0
 40
1.0
176
     0
 90
        1
176
     0
 90
        6
176
     0
 90
        2
176
     0
 62
     7
176
     0
 90
        5
176
     0
 90
        0
176
     0
 90
        0
176
     0
290
     0
176
     0
 90
        1
176
     0
 40
0.0
176
     0
 90
        0
176
     0
290
     0
176
     0
290
     1
176
     0
290
     1
176
     0
290
     0
176
     0
290
     0
176
     0
290
     0
176
     0
290
     0
176
     0
290
     0
176
     0
290
     0
176
     0
 90
       50
176
     0
 40
0.0
176
     0
 40
1.0
176
     0
 90
        0
176
     0
 62
    18
420
        0
176
     0
 90
       50
176
     0
 90
        3
176
     0
 62
     5
420
      255
176
     0
290
     0
176
     0
 90
       50
176
     0
 90
       50
176
     0
 90
       50
176
     0
290
     0
176
     0
 90
       50
176
     0
 62
   256
176
     0
 40
1.0
176
     0
 90
        2
176
     0
  1
strokes_ogs.tif
176
     0
290
     0
176
     0
 40
1.0
176
     0
 40
1.0
176
     0
  0
VISUALSTYLE
  5
38
102
{ACAD_REACTORS
330
2A
102
}
330
2A
100
AcDbVisualStyle
  2
Linepattern
 70
    14
177
     3
291
     1
 70
    58
 90
        2
176
     1
 90
        2
176
     1
 90
        0
176
     1
 90
        0
176
     1
 40
0.6
176
     1
 40
30.0
176
     1
 62
     7
420
 16777215
176
     1
 90
        1
176
     1
 90
        4
176
     1
 62
     7
176
     1
 62
   257
176
     1
 90
        7
176
     1
 90
        7
176
     1
 40
1.0
176
     1
 90
        8
176
     1
 62
     7
176
     1
 40
1.0
176
     1
 90
        1
176
     1
 90
        6
176
     1
 90
        2
176
     1
 62
     7
176
     1
 90
        5
176
     1
 90
        0
176
     1
 90
        0
176
     1
290
     0
176
     1
 90
        1
176
     1
 40
0.0
176
     1
 90
        0
176
     1
290
     0
176
     1
290
     1
176
     1
290
     1
176
     1
290
     0
176
     1
290
     0
176
     1
290
     0
176
     1
290
     0
176
     1
290
     0
176
     1
290
     0
176
     1
 90
       50
176
     1
 40
0.0
176
     1
 40
1.0
176
     1
 90
        0
176
     1
 62
    18
420
        0
176
     1
 90
       50
176
     1
 90
        3
176
     1
 62
     5
420
      255
176
     1
290
     0
176
     1
 90
       50
176
     1
 90
       50
176
     1
 90
       50
176
     1
290
     0
176
     1
 90
       50
176
     1
 62
   256
176
     0
 40
1.0
176
     0
 90
        2
176
     1
  1
strokes_ogs.tif
176
     1
290
     0
176
     1
 40
1.0
176
     1
 40
1.0
176
     1
  0
VISUALSTYLE
  5
3C
102
{ACAD_REACTORS
330
2A
102
}
330
2A
100
AcDbVisualStyle
  2
OverhangOff
 70
    21
177
     3
291
     1
 70
    58
 90
        2
176
     0
 90
        2
176
     0
 90
        0
176
     0
 90
        0
176
     0
 40
0.6
176
     0
 40
30.0
176
     0
 62
     7
420
 16777215
176
     0
 90
        1
176
     0
 90
        4
176
     0
 62
     7
176
     0
 62
   257
176
     0
 90
        1
176
     0
 90
        1
176
     0
 40
1.0
176
     0
 90
        9
176
     2
 62
     7
176
     0
 40
1.0
176
     0
 90
        1
176
     0
 90
        6
176
     0
 90
        2
176
     0
 62
     7
176
     0
 90
        5
176
     0
 90
        0
176
     0
 90
        0
176
     0
290
     0
176
     0
 90
        1
176
     0
 40
0.0
176
     0
 90
        0
176
     0
290
     0
176
     0
290
     1
176
     0
290
     1
176
     0
290
     0
176
     0
290
     0
176
     0
290
     0
176
     0
290
     0
176
     0
290
     0
176
     0
290
     0
176
     0
 90
       50
176
     0
 40
0.0
176
     0
 40
1.0
176
     0
 90
        0
176
     0
 62
    18
420
        0
176
     0
 90
       50
176
     0
 90
        3
176
     0
 62
     5
420
      255
176
     0
290
     0
176
     0
 90
       50
176
     0
 90
       50
176
     0
 90
       50
176
     0
290
     0
176
     0
 90
       50
176
     0
 62
   256
176
     0
 40
1.0
176
     0
 90
        2
176
     0
  1
strokes_ogs.tif
176
     0
290
     0
176
     0
 40
1.0
176
     0
 40
1.0
176
     0
  0
VISUALSTYLE
  5
33
102
{ACAD_REACTORS
330
2A
102
}
330
2A
100
AcDbVisualStyle
  2
Realistic
 70
     8
177
     3
291
     0
 70
    58
 90
        2
176
     1
 90
        3
176
     1
 90
        0
176
     1
 90
        2
176
     1
 40
0.6
176
     1
 40
30.0
176
     1
 62
     7
420
 16777215
176
     1
 90
        0
176
     1
 90
        0
176
     1
 62
     7
176
     1
 62
   257
176
     1
 90
        1
176
     1
 90
        1
176
     1
 40
1.0
176
     1
 90
        8
176
     1
 62
   257
176
     1
 40
1.0
176
     1
 90
        1
176
     1
 90
        6
176
     1
 90
        2
176
     1
 62
     7
176
     1
 90
        3
176
     1
 90
        0
176
     1
 90
        0
176
     1
290
     0
176
     1
 90
       13
176
     1
 40
0.0
176
     1
 90
        0
176
     1
290
     0
176
     1
290
     1
176
     1
290
     1
176
     1
290
     0
176
     1
290
     0
176
     1
290
     0
176
     1
290
     0
176
     1
290
     0
176
     1
290
     0
176
     1
 90
       50
176
     1
 40
0.0
176
     1
 40
1.0
176
     1
 90
        0
176
     1
 62
    18
420
        0
176
     1
 90
       50
176
     1
 90
        3
176
     1
 62
     5
420
      255
176
     1
290
     0
176
     1
 90
       50
176
     1
 90
       50
176
     1
 90
       50
176
     1
290
     0
176
     1
 90
       50
176
     1
 62
   256
176
     0
 40
1.0
176
     0
 90
        2
176
     1
  1
strokes_ogs.tif
176
     1
290
     0
176
     1
 40
1.0
176
     1
 40
1.0
176
     1
  0
VISUALSTYLE
  5
42
102
{ACAD_REACTORS
330
2A
102
}
330
2A
100
AcDbVisualStyle
  2
Shaded
 70
    27
177
     3
291
     0
 70
    58
 90
        2
176
     1
 90
        2
176
     1
 90
        1
176
     1
 90
        2
176
     1
 40
0.6
176
     1
 40
30.0
176
     1
 62
     7
420
 16777215
176
     1
 90
        0
176
     1
 90
        4
176
     1
 62
     7
176
     1
 62
   257
176
     1
 90
        1
176
     1
 90
        1
176
     1
 40
1.0
176
     1
 90
        8
176
     1
 62
   257
176
     1
 40
1.0
176
     1
 90
        1
176
     1
 90
        6
176
     1
 90
        2
176
     1
 62
     8
420
  7895160
176
     1
 90
        3
176
     1
 90
        0
176
     1
 90
        0
176
     1
290
     0
176
     1
 90
        5
176
     1
 40
0.0
176
     1
 90
        0
176
     1
290
     0
176
     1
290
     1
176
     1
290
     1
176
     1
290
     0
176
     1
290
     0
176
     1
290
     0
176
     1
290
     0
176
     1
290
     0
176
     1
290
     0
176
     1
 90
       50
176
     1
 40
0.0
176
     1
 40
1.0
176
     1
 90
        0
176
     1
 62
    18
420
        0
176
     1
 90
       50
176
     1
 90
        3
176
     1
 62
     5
420
      255
176
     1
290
     0
176
     1
 90
       50
176
     1
 90
       50
176
     1
 90
       50
176
     1
290
     0
176
     1
 90
       50
176
     1
 62
   256
176
     0
 40
1.0
176
     0
 90
        2
176
     1
  1
strokes_ogs.tif
176
     1
290
     0
176
     1
 40
1.0
176
     1
 40
1.0
176
     1
  0
VISUALSTYLE
  5
41
102
{ACAD_REACTORS
330
2A
102
}
330
2A
100
AcDbVisualStyle
  2
Shaded with edges
 70
    26
177
     3
291
     0
 70
    58
 90
        2
176
     1
 90
        2
176
     1
 90
        1
176
     1
 90
        2
176
     1
 40
0.6
176
     1
 40
30.0
176
     1
 62
     7
420
 16777215
176
     1
 90
        1
176
     1
 90
       10
176
     1
 62
     7
176
     1
 62
   257
176
     1
 90
        2
176
     1
 90
        1
176
     1
 40
1.0
176
     1
 90
        8
176
     1
 62
   257
176
     1
 40
1.0
176
     1
 90
        1
176
     1
 90
        6
176
     1
 90
        2
176
     1
 62
     7
176
     1
 90
        3
176
     1
 90
        0
176
     1
 90
        0
176
     1
290
     0
176
     1
 90
        5
176
     1
 40
0.0
176
     1
 90
        0
176
     1
290
     0
176
     1
290
     1
176
     1
290
     1
176
     1
290
     0
176
     1
290
     0
176
     1
290
     0
176
     1
290
     0
176
     1
290
     0
176
     1
290
     0
176
     1
 90
       50
176
     1
 40
0.0
176
     1
 40
1.0
176
     1
 90
        0
176
     1
 62
    18
420
        0
176
     1
 90
       50
176
     1
 90
        3
176
     1
 62
     5
420
      255
176
     1
290
     0
176
     1
 90
       50
176
     1
 90
       50
176
     1
 90
       50
176
     1
290
     0
176
     1
 90
       50
176
     1
 62
   256
176
     0
 40
1.0
176
     0
 90
        2
176
     1
  1
strokes_ogs.tif
176
     1
290
     0
176
     1
 40
1.0
176
     1
 40
1.0
176
     1
  0
VISUALSTYLE
  5
3E
102
{ACAD_REACTORS
330
2A
102
}
330
2A
100
AcDbVisualStyle
  2
Shades of Gray
 70
    23
177
     3
291
     0
 70
    58
 90
        2
176
     1
 90
        2
176
     1
 90
        3
176
     1
 90
        0
176
     1
 40
0.6
176
     1
 40
30.0
176
     1
 62
     7
420
 16777215
176
     1
 90
        2
176
     1
 90
        2
176
     1
 62
     7
176
     1
 62
     7
176
     1
 90
        1
176
     1
 90
        1
176
     1
 40
40.0
176
     1
 90
        8
176
     1
 62
     7
176
     1
 40
1.0
176
     1
 90
        1
176
     1
 90
        6
176
     1
 90
        2
176
     1
 62
     7
176
     1
 90
        3
176
     1
 90
        0
176
     1
 90
        0
176
     1
290
     0
176
     1
 90
        1
176
     1
 40
0.0
176
     1
 90
        0
176
     1
290
     0
176
     1
290
     1
176
     1
290
     1
176
     1
290
     0
176
     1
290
     0
176
     1
290
     0
176
     1
290
     0
176
     1
290
     0
176
     1
290
     0
176
     1
 90
       50
176
     1
 40
0.0
176
     1
 40
1.0
176
     1
 90
        0
176
     1
 62
    18
420
        0
176
     1
 90
       50
176
     1
 90
        3
176
     1
 62
     5
420
      255
176
     1
290
     0
176
     1
 90
       50
176
     1
 90
       50
176
     1
 90
       50
176
     1
290
     0
176
     1
 90
       50
176
     1
 62
   256
176
     0
 40
1.0
176
     0
 90
        2
176
     1
  1
strokes_ogs.tif
176
     1
290
     0
176
     1
 40
1.0
176
     1
 40
1.0
176
     1
  0
VISUALSTYLE
  5
3F
102
{ACAD_REACTORS
330
2A
102
}
330
2A
100
AcDbVisualStyle
  2
Sketchy
 70
    24
177
     3
291
     0
 70
    58
 90
        1
176
     1
 90
        2
176
     1
 90
        2
176
     1
 90
        0
176
     1
 40
0.6
176
     1
 40
30.0
176
     1
 62
     7
420
 16777215
176
     1
 90
        2
176
     1
 90
        2
176
     1
 62
     7
176
     1
 62
     7
176
     1
 90
        1
176
     1
 90
        1
176
     1
 40
40.0
176
     1
 90
       11
176
     1
 62
     7
176
     1
 40
1.0
176
     1
 90
        1
176
     1
 90
        6
176
     1
 90
        2
176
     1
 62
     7
176
     1
 90
        6
176
     1
 90
        0
176
     1
 90
        0
176
     1
290
     0
176
     1
 90
        1
176
     1
 40
0.0
176
     1
 90
        0
176
     1
290
     0
176
     1
290
     1
176
     1
290
     1
176
     1
290
     0
176
     1
290
     0
176
     1
290
     0
176
     1
290
     0
176
     1
290
     0
176
     1
290
     0
176
     1
 90
       50
176
     1
 40
0.0
176
     1
 40
1.0
176
     1
 90
        0
176
     1
 62
    18
420
        0
176
     1
 90
       50
176
     1
 90
        3
176
     1
 62
     5
420
      255
176
     1
290
     0
176
     1
 90
       50
176
     1
 90
       50
176
     1
 90
       50
176
     1
290
     0
176
     1
 90
       50
176
     1
 62
   256
176
     0
 40
1.0
176
     0
 90
        2
176
     1
  1
strokes_ogs.tif
176
     1
290
     0
176
     1
 40
1.0
176
     1
 40
1.0
176
     1
  0
VISUALSTYLE
  5
37
102
{ACAD_REACTORS
330
2A
102
}
330
2A
100
AcDbVisualStyle
  2
Thicken
 70
    13
177
     3
291
     1
 70
    58
 90
        2
176
     1
 90
        2
176
     1
 90
        0
176
     1
 90
        0
176
     1
 40
0.6
176
     1
 40
30.0
176
     1
 62
     7
420
 16777215
176
     1
 90
        1
176
     1
 90
        4
176
     1
 62
     7
176
     1
 62
   257
176
     1
 90
        1
176
     1
 90
        1
176
     1
 40
1.0
176
     1
 90
       12
176
     1
 62
     7
176
     1
 40
1.0
176
     1
 90
        1
176
     1
 90
        6
176
     1
 90
        2
176
     1
 62
     7
176
     1
 90
        5
176
     1
 90
        0
176
     1
 90
        0
176
     1
290
     0
176
     1
 90
        1
176
     1
 40
0.0
176
     1
 90
        0
176
     1
290
     0
176
     1
290
     1
176
     1
290
     1
176
     1
290
     0
176
     1
290
     0
176
     1
290
     0
176
     1
290
     0
176
     1
290
     0
176
     1
290
     0
176
     1
 90
       50
176
     1
 40
0.0
176
     1
 40
1.0
176
     1
 90
        0
176
     1
 62
    18
420
        0
176
     1
 90
       50
176
     1
 90
        3
176
     1
 62
     5
420
      255
176
     1
290
     0
176
     1
 90
       50
176
     1
 90
       50
176
     1
 90
       50
176
     1
290
     0
176
     1
 90
       50
176
     1
 62
   256
176
     0
 40
1.0
176
     0
 90
        2
176
     1
  1
strokes_ogs.tif
176
     1
290
     0
176
     1
 40
1.0
176
     1
 40
1.0
176
     1
  0
VISUALSTYLE
  5
30
102
{ACAD_REACTORS
330
2A
102
}
330
2A
100
AcDbVisualStyle
  2
Wireframe
 70
     5
177
     3
291
     0
 70
    58
 90
        0
176
     1
 90
        2
176
     1
 90
        0
176
     1
 90
        0
176
     1
 40
0.6
176
     1
 40
30.0
176
     1
 62
     7
420
 16777215
176
     1
 90
        1
176
     1
 90
        4
176
     1
 62
     7
176
     1
 62
   257
176
     1
 90
        1
176
     1
 90
        1
176
     1
 40
1.0
176
     1
 90
        0
176
     1
 62
   257
176
     1
 40
1.0
176
     1
 90
        1
176
     1
 90
        6
176
     1
 90
        2
176
     1
 62
     7
176
     1
 90
        3
176
     1
 90
        0
176
     1
 90
        0
176
     1
290
     0
176
     1
 90
        1
176
     1
 40
0.0
176
     1
 90
        0
176
     1
290
     0
176
     1
290
     1
176
     1
290
     1
176
     1
290
     0
176
     1
290
     0
176
     1
290
     0
176
     1
290
     0
176
     1
290
     0
176
     1
290
     0
176
     1
 90
       50
176
     1
 40
0.0
176
     1
 40
1.0
176
     1
 90
        0
176
     1
 62
    18
420
        0
176
     1
 90
       50
176
     1
 90
        3
176
     1
 62
     5
420
      255
176
     1
290
     0
176
     1
 90
       50
176
     1
 90
       50
176
     1
 90
       50
176
     1
290
     0
176
     1
 90
       50
176
     1
 62
   256
176
     0
 40
1.0
176
     0
 90
        2
176
     1
  1
strokes_ogs.tif
176
     1
290
     0
176
     1
 40
1.0
176
     1
 40
1.0
176
     1
  0
VISUALSTYLE
  5
40
102
{ACAD_REACTORS
330
2A
102
}
330
2A
100
AcDbVisualStyle
  2
X-Ray
 70
    25
177
     3
291
     0
 70
    58
 90
        2
176
     1
 90
        2
176
     1
 90
        1
176
     1
 90
        1
176
     1
 40
0.5
176
     1
 40
30.0
176
     1
 62
     7
420
 16777215
176
     1
 90
        1
176
     1
 90
        0
176
     1
 62
     7
176
     1
 62
   257
176
     1
 90
        1
176
     1
 90
        1
176
     1
 40
1.0
176
     1
 90
        8
176
     1
 62
     7
176
     1
 40
1.0
176
     1
 90
        1
176
     1
 90
        6
176
     1
 90
        2
176
     1
 62
     7
176
     1
 90
        3
176
     1
 90
        0
176
     1
 90
        0
176
     1
290
     0
176
     1
 90
       13
176
     1
 40
0.0
176
     1
 90
        0
176
     1
290
     0
176
     1
290
     1
176
     1
290
     1
176
     1
290
     0
176
     1
290
     0
176
     1
290
     0
176
     1
290
     0
176
     1
290
     0
176
     1
290
     0
176
     1
 90
       50
176
     1
 40
0.0
176
     1
 40
1.0
176
     1
 90
        0
176
     1
 62
    18
420
        0
176
     1
 90
       50
176
     1
 90
        3
176
     1
 62
     5
420
      255
176
     1
290
     0
176
     1
 90
       50
176
     1
 90
       50
176
     1
 90
       50
176
     1
290
     0
176
     1
 90
       50
176
     1
 62
   256
176
     0
 40
1.0
176
     0
 90
        2
176
     1
  1
strokes_ogs.tif
176
     1
290
     0
176
     1
 40
1.0
176
     1
 40
1.0
176
     1
  0
DICTIONARYVAR
  5
81
102
{ACAD_REACTORS
330
80
102
}
330
80
100
DictionaryVariables
280
     0
  1
1:1
  0
DICTIONARYVAR
  5
8A
102
{ACAD_REACTORS
330
80
102
}
330
80
100
DictionaryVariables
280
     0
  1
3.500000
  0
DICTIONARYVAR
  5
8B
102
{ACAD_REACTORS
330
80
102
}
330
80
100
DictionaryVariables
280
     0
  1
acadiso.lin
  0
DICTIONARYVAR
  5
86
102
{ACAD_REACTORS
330
80
102
}
330
80
100
DictionaryVariables
280
     0
  1
Standard
  0
DICTIONARYVAR
  5
85
102
{ACAD_REACTORS
330
80
102
}
330
80
100
DictionaryVariables
280
     0
  1
Standard
  0
DICTIONARYVAR
  5
89
102
{ACAD_REACTORS
330
80
102
}
330
80
100
DictionaryVariables
280
     0
  1
0
  0
DICTIONARY
  5
82
330
6A
100
AcDbDictionary
280
     1
281
     1
  3
ACAD_ROUNDTRIP_2008_TABLESTYLE_CELLSTYLEMAP
360
83
  0
CELLSTYLEMAP
  5
83
102
{ACAD_REACTORS
330
82
102
}
330
82
100
AcDbCellStyleMap
 90
        3
300
CELLSTYLE
  1
TABLEFORMAT_BEGIN
 90
        5
170
     1
 91
        0
 92
    32768
 62
   257
 93
        1
300
CONTENTFORMAT
  1
CONTENTFORMAT_BEGIN
 90
        0
 91
        0
 92
        4
 93
        0
300

 40
0.0
140
1.0
 94
        5
 62
     0
340
11
144
6.0
309
CONTENTFORMAT_END
171
     1
301
MARGIN
  1
CELLMARGIN_BEGIN
 40
1.5
 40
1.5
 40
1.5
 40
1.5
 40
1.5
 40
1.5
309
CELLMARGIN_END
 94
        6
 95
        1
302
GRIDFORMAT
  1
GRIDFORMAT_BEGIN
 90
        0
 91
        1
 62
     0
 92
       -2
340
14
 93
        0
 40
0.045
309
GRIDFORMAT_END
 95
        2
302
GRIDFORMAT
  1
GRIDFORMAT_BEGIN
 90
        0
 91
        1
 62
     0
 92
       -2
340
14
 93
        0
 40
0.045
309
GRIDFORMAT_END
 95
        4
302
GRIDFORMAT
  1
GRIDFORMAT_BEGIN
 90
        0
 91
        1
 62
     0
 92
       -2
340
14
 93
        0
 40
0.045
309
GRIDFORMAT_END
 95
        8
302
GRIDFORMAT
  1
GRIDFORMAT_BEGIN
 90
        0
 91
        1
 62
     0
 92
       -2
340
14
 93
        0
 40
0.045
309
GRIDFORMAT_END
 95
       16
302
GRIDFORMAT
  1
GRIDFORMAT_BEGIN
 90
        0
 91
        1
 62
     0
 92
       -2
340
14
 93
        0
 40
0.045
309
GRIDFORMAT_END
 95
       32
302
GRIDFORMAT
  1
GRIDFORMAT_BEGIN
 90
        0
 91
        1
 62
     0
 92
       -2
340
14
 93
        0
 40
0.045
309
GRIDFORMAT_END
309
TABLEFORMAT_END
  1
CELLSTYLE_BEGIN
 90
        1
 91
        1
300
_TITLE
309
CELLSTYLE_END
300
CELLSTYLE
  1
TABLEFORMAT_BEGIN
 90
        5
170
     1
 91
        0
 92
        0
 62
   257
 93
        1
300
CONTENTFORMAT
  1
CONTENTFORMAT_BEGIN
 90
        0
 91
        0
 92
        4
 93
        0
300

 40
0.0
140
1.0
 94
        5
 62
     0
340
11
144
4.5
309
CONTENTFORMAT_END
171
     1
301
MARGIN
  1
CELLMARGIN_BEGIN
 40
1.5
 40
1.5
 40
1.5
 40
1.5
 40
1.5
 40
1.5
309
CELLMARGIN_END
 94
        6
 95
        1
302
GRIDFORMAT
  1
GRIDFORMAT_BEGIN
 90
        0
 91
        1
 62
     0
 92
       -2
340
14
 93
        0
 40
0.045
309
GRIDFORMAT_END
 95
        2
302
GRIDFORMAT
  1
GRIDFORMAT_BEGIN
 90
        0
 91
        1
 62
     0
 92
       -2
340
14
 93
        0
 40
0.045
309
GRIDFORMAT_END
 95
        4
302
GRIDFORMAT
  1
GRIDFORMAT_BEGIN
 90
        0
 91
        1
 62
     0
 92
       -2
340
14
 93
        0
 40
0.045
309
GRIDFORMAT_END
 95
        8
302
GRIDFORMAT
  1
GRIDFORMAT_BEGIN
 90
        0
 91
        1
 62
     0
 92
       -2
340
14
 93
        0
 40
0.045
309
GRIDFORMAT_END
 95
       16
302
GRIDFORMAT
  1
GRIDFORMAT_BEGIN
 90
        0
 91
        1
 62
     0
 92
       -2
340
14
 93
        0
 40
0.045
309
GRIDFORMAT_END
 95
       32
302
GRIDFORMAT
  1
GRIDFORMAT_BEGIN
 90
        0
 91
        1
 62
     0
 92
       -2
340
14
 93
        0
 40
0.045
309
GRIDFORMAT_END
309
TABLEFORMAT_END
  1
CELLSTYLE_BEGIN
 90
        2
 91
        1
300
_HEADER
309
CELLSTYLE_END
300
CELLSTYLE
  1
TABLEFORMAT_BEGIN
 90
        5
170
     1
 91
        0
 92
        0
 62
   257
 93
        1
300
CONTENTFORMAT
  1
CONTENTFORMAT_BEGIN
 90
        0
 91
        0
 92
        4
 93
        0
300

 40
0.0
140
1.0
 94
        2
 62
     0
340
11
144
4.5
309
CONTENTFORMAT_END
171
     1
301
MARGIN
  1
CELLMARGIN_BEGIN
 40
1.5
 40
1.5
 40
1.5
 40
1.5
 40
1.5
 40
1.5
309
CELLMARGIN_END
 94
        6
 95
        1
302
GRIDFORMAT
  1
GRIDFORMAT_BEGIN
 90
        0
 91
        1
 62
     0
 92
       -2
340
14
 93
        0
 40
0.045
309
GRIDFORMAT_END
 95
        2
302
GRIDFORMAT
  1
GRIDFORMAT_BEGIN
 90
        0
 91
        1
 62
     0
 92
       -2
340
14
 93
        0
 40
0.045
309
GRIDFORMAT_END
 95
        4
302
GRIDFORMAT
  1
GRIDFORMAT_BEGIN
 90
        0
 91
        1
 62
     0
 92
       -2
340
14
 93
        0
 40
0.045
309
GRIDFORMAT_END
 95
        8
302
GRIDFORMAT
  1
GRIDFORMAT_BEGIN
 90
        0
 91
        1
 62
     0
 92
       -2
340
14
 93
        0
 40
0.045
309
GRIDFORMAT_END
 95
       16
302
GRIDFORMAT
  1
GRIDFORMAT_BEGIN
 90
        0
 91
        1
 62
     0
 92
       -2
340
14
 93
        0
 40
0.045
309
GRIDFORMAT_END
 95
       32
302
GRIDFORMAT
  1
GRIDFORMAT_BEGIN
 90
        0
 91
        1
 62
     0
 92
       -2
340
14
 93
        0
 40
0.045
309
GRIDFORMAT_END
309
TABLEFORMAT_END
  1
CELLSTYLE_BEGIN
 90
        3
 91
        2
300
_DATA
309
CELLSTYLE_END
  0
ENDSEC
  0
EOF
