G04 #@! TF.GenerationSoftware,KiCad,Pcbnew,(5.1.2)-1*
G04 #@! TF.CreationDate,2020-05-19T21:26:11+03:00*
G04 #@! TF.ProjectId,switch_controller,73776974-6368-45f6-936f-6e74726f6c6c,rev?*
G04 #@! TF.SameCoordinates,Original*
G04 #@! TF.FileFunction,Soldermask,Bot*
G04 #@! TF.FilePolarity,Negative*
%FSLAX46Y46*%
G04 Gerber Fmt 4.6, Leading zero omitted, Abs format (unit mm)*
G04 Created by KiCad (PCBNEW (5.1.2)-1) date 2020-05-19 21:26:11*
%MOMM*%
%LPD*%
G04 APERTURE LIST*
%ADD10C,0.150000*%
%ADD11C,4.400000*%
%ADD12R,2.400000X2.000000*%
%ADD13O,2.400000X2.000000*%
%ADD14R,2.127200X2.127200*%
%ADD15O,2.127200X2.127200*%
%ADD16R,2.100000X2.100000*%
%ADD17O,2.100000X2.100000*%
%ADD18C,2.400000*%
%ADD19C,6.400000*%
%ADD20O,2.000000X2.700000*%
%ADD21R,1.900000X1.650000*%
%ADD22C,3.400000*%
%ADD23R,1.650000X1.900000*%
%ADD24C,2.500000*%
%ADD25C,2.150000*%
G04 APERTURE END LIST*
D10*
X204000000Y-140000000D02*
X207000000Y-140000000D01*
X204000000Y-143000000D02*
G75*
G02X204000000Y-140000000I0J1500000D01*
G01*
X204000000Y-143000000D02*
X207000000Y-143000000D01*
X207000000Y-140000000D02*
G75*
G02X207000000Y-143000000I0J-1500000D01*
G01*
X204000000Y-60000000D02*
X207000000Y-60000000D01*
X204000000Y-57000000D02*
X207000000Y-57000000D01*
X204000000Y-60000000D02*
G75*
G02X204000000Y-57000000I0J1500000D01*
G01*
X207000000Y-57000000D02*
G75*
G02X207000000Y-60000000I0J-1500000D01*
G01*
X65000000Y-150000000D02*
X65000000Y-50000000D01*
X210000000Y-150000000D02*
X65000000Y-150000000D01*
X210000000Y-50000000D02*
X210000000Y-150000000D01*
X65000000Y-50000000D02*
X210000000Y-50000000D01*
D11*
X204600000Y-116650000D03*
X204600000Y-83350000D03*
D12*
X203330000Y-90305000D03*
D13*
X203330000Y-93075000D03*
X203330000Y-95845000D03*
X203330000Y-98615000D03*
X203330000Y-101385000D03*
X203330000Y-104155000D03*
X203330000Y-106925000D03*
X203330000Y-109695000D03*
X205870000Y-91690000D03*
X205870000Y-94460000D03*
X205870000Y-97230000D03*
X205870000Y-100000000D03*
X205870000Y-102770000D03*
X205870000Y-105540000D03*
X205870000Y-108310000D03*
D14*
X110000000Y-85625000D03*
D15*
X107460000Y-85625000D03*
X110000000Y-83085000D03*
X107460000Y-83085000D03*
X110000000Y-80545000D03*
X107460000Y-80545000D03*
X110000000Y-78005000D03*
X107460000Y-78005000D03*
X110000000Y-75465000D03*
X107460000Y-75465000D03*
D16*
X71050000Y-70400000D03*
D17*
X71050000Y-72940000D03*
D18*
X203200000Y-134000000D03*
X200600000Y-136600000D03*
X200600000Y-131400000D03*
X205800000Y-131400000D03*
X205800000Y-136600000D03*
D19*
X69000000Y-54000000D03*
X69000000Y-146000000D03*
D20*
X174400000Y-58400000D03*
X171860000Y-58400000D03*
X169320000Y-58400000D03*
X166780000Y-58400000D03*
X164240000Y-58400000D03*
X161700000Y-58400000D03*
X159160000Y-58400000D03*
X156620000Y-58400000D03*
X156620000Y-66020000D03*
X159160000Y-66020000D03*
X161700000Y-66020000D03*
X164240000Y-66020000D03*
X166780000Y-66020000D03*
X169320000Y-66020000D03*
X171860000Y-66020000D03*
X174400000Y-66020000D03*
D14*
X84060000Y-60960000D03*
D15*
X84060000Y-58420000D03*
X86600000Y-60960000D03*
X86600000Y-58420000D03*
X89140000Y-60960000D03*
X89140000Y-58420000D03*
X91680000Y-60960000D03*
X91680000Y-58420000D03*
X94220000Y-60960000D03*
X94220000Y-58420000D03*
D20*
X174280000Y-116800000D03*
X171740000Y-116800000D03*
X169200000Y-116800000D03*
X166660000Y-116800000D03*
X164120000Y-116800000D03*
X161580000Y-116800000D03*
X159040000Y-116800000D03*
X156500000Y-116800000D03*
X156500000Y-124420000D03*
X159040000Y-124420000D03*
X161580000Y-124420000D03*
X164120000Y-124420000D03*
X166660000Y-124420000D03*
X169200000Y-124420000D03*
X171740000Y-124420000D03*
X174280000Y-124420000D03*
D21*
X171150000Y-62300000D03*
X168650000Y-62300000D03*
D20*
X174300000Y-131400000D03*
X171760000Y-131400000D03*
X169220000Y-131400000D03*
X166680000Y-131400000D03*
X164140000Y-131400000D03*
X161600000Y-131400000D03*
X159060000Y-131400000D03*
X156520000Y-131400000D03*
X156520000Y-139020000D03*
X159060000Y-139020000D03*
X161600000Y-139020000D03*
X164140000Y-139020000D03*
X166680000Y-139020000D03*
X169220000Y-139020000D03*
X171760000Y-139020000D03*
X174300000Y-139020000D03*
D16*
X69250000Y-138440000D03*
D17*
X69250000Y-135900000D03*
D22*
X128000000Y-139300000D03*
X107000000Y-139300000D03*
D16*
X203250000Y-126450000D03*
D17*
X203250000Y-123910000D03*
D21*
X171300000Y-135550000D03*
X168800000Y-135550000D03*
X171300000Y-121650000D03*
X168800000Y-121650000D03*
X171050000Y-106500000D03*
X168550000Y-106500000D03*
X171250000Y-92000000D03*
X168750000Y-92000000D03*
X171550000Y-77500000D03*
X169050000Y-77500000D03*
D23*
X86150000Y-74140000D03*
X86150000Y-76640000D03*
D20*
X174300000Y-73000000D03*
X171760000Y-73000000D03*
X169220000Y-73000000D03*
X166680000Y-73000000D03*
X164140000Y-73000000D03*
X161600000Y-73000000D03*
X159060000Y-73000000D03*
X156520000Y-73000000D03*
X156520000Y-80620000D03*
X159060000Y-80620000D03*
X161600000Y-80620000D03*
X164140000Y-80620000D03*
X166680000Y-80620000D03*
X169220000Y-80620000D03*
X171760000Y-80620000D03*
X174300000Y-80620000D03*
X174300000Y-87600000D03*
X171760000Y-87600000D03*
X169220000Y-87600000D03*
X166680000Y-87600000D03*
X164140000Y-87600000D03*
X161600000Y-87600000D03*
X159060000Y-87600000D03*
X156520000Y-87600000D03*
X156520000Y-95220000D03*
X159060000Y-95220000D03*
X161600000Y-95220000D03*
X164140000Y-95220000D03*
X166680000Y-95220000D03*
X169220000Y-95220000D03*
X171760000Y-95220000D03*
X174300000Y-95220000D03*
X174300000Y-102200000D03*
X171760000Y-102200000D03*
X169220000Y-102200000D03*
X166680000Y-102200000D03*
X164140000Y-102200000D03*
X161600000Y-102200000D03*
X159060000Y-102200000D03*
X156520000Y-102200000D03*
X156520000Y-109820000D03*
X159060000Y-109820000D03*
X161600000Y-109820000D03*
X164140000Y-109820000D03*
X166680000Y-109820000D03*
X169220000Y-109820000D03*
X171760000Y-109820000D03*
X174300000Y-109820000D03*
D24*
X205310000Y-71460000D03*
D25*
X207800000Y-70200000D03*
X207800000Y-65700000D03*
D24*
X205310000Y-64450000D03*
M02*
