M48
; DRILL file {KiCad (5.1.2)-1} date 19.05.2020 21:26:13
; FORMAT={-:-/ absolute / inch / decimal}
; #@! TF.CreationDate,2020-05-19T21:26:13+03:00
; #@! TF.GenerationSoftware,Kicad,Pcbnew,(5.1.2)-1
FMAT,2
INCH
T1C0.0157
T2C0.0315
T3C0.0354
T4C0.0390
T5C0.0394
T6C0.0400
T7C0.0512
T8C0.0709
T9C0.1181
%
G90
G05
T1
X2.7362Y-3.7303
X2.7362Y-3.7894
X2.7421Y-3.8445
X2.7421Y-3.9035
X2.7421Y-3.9626
X2.7421Y-4.0217
X2.7421Y-4.0807
X2.7461Y-4.1398
X2.7461Y-4.1988
X2.7461Y-4.2579
X2.7559Y-4.3209
X2.7717Y-2.3445
X2.7854Y-3.6713
X2.8012Y-4.4606
X2.811Y-4.3465
X2.8248Y-2.563
X2.8386Y-3.624
X2.8543Y-4.4606
X2.8701Y-4.3465
X2.874Y-2.2461
X2.9094Y-2.4705
X2.9094Y-3.5886
X2.9154Y-3.186
X2.9291Y-4.3465
X2.9626Y-4.813
X2.9626Y-4.8819
X2.9626Y-4.9508
X2.9882Y-4.3465
X3.0217Y-5.2953
X3.0295Y-4.0748
X3.0295Y-4.1516
X3.0374Y-3.5886
X3.0472Y-4.3465
X3.0827Y-3.0118
X3.0925Y-3.5906
X3.1024Y-2.6437
X3.1063Y-4.3465
X3.1073Y-2.4291
X3.122Y-3.0492
X3.122Y-3.1142
X3.1313Y-2.9543
X3.1319Y-5.2874
X3.1457Y-3.5906
X3.1614Y-4.1732
X3.1654Y-4.3465
X3.2037Y-3.5906
X3.2244Y-4.3465
X3.2579Y-5.2854
X3.2677Y-3.6014
X3.2677Y-3.9232
X3.2697Y-3.8406
X3.2717Y-3.7697
X3.2736Y-3.5098
X3.2795Y-3.9961
X3.2835Y-4.3465
X3.313Y-3.0232
X3.3169Y-5.2854
X3.3228Y-3.628
X3.3533Y-2.5581
X3.3602Y-3.2264
X3.376Y-5.2854
X3.3819Y-3.628
X3.3917Y-2.7185
X3.3996Y-2.498
X3.4409Y-3.6476
X3.4439Y-3.3701
X3.4646Y-3.7067
X3.4646Y-3.7657
X3.4646Y-3.8248
X3.4646Y-3.8839
X3.4646Y-3.9429
X3.4646Y-4.002
X3.4665Y-2.8829
X3.4705Y-4.061
X3.4705Y-4.1201
X3.4705Y-4.1791
X3.4705Y-4.2382
X3.4705Y-4.2972
X3.4833Y-3.0482
X3.5039Y-4.3957
X3.563Y-4.3957
X3.5689Y-2.6457
X3.5925Y-3.6378
X3.6181Y-2.5591
X3.6185Y-2.8091
X3.622Y-4.3957
X3.6299Y-2.9547
X3.6516Y-3.6378
X3.6713Y-4.9409
X3.6722Y-2.5974
X3.6811Y-4.3957
X3.7087Y-3.188
X3.7106Y-3.6378
X3.7402Y-4.3957
X3.748Y-3.2717
X3.7677Y-4.124
X3.7697Y-3.6378
X3.7697Y-4.2008
X3.7904Y-2.6673
X3.7992Y-4.3957
X3.8238Y-2.7234
X3.8287Y-3.6378
X3.8583Y-4.3957
X3.8898Y-2.6299
X3.9094Y-4.2205
X3.9173Y-4.3957
X3.9469Y-3.6378
X3.9764Y-4.3957
X4.0059Y-3.6378
X4.0079Y-3.8169
X4.0079Y-3.8957
X4.0118Y-3.9724
X4.0217Y-4.0472
X4.0226Y-5.7224
X4.0354Y-4.3957
X4.065Y-3.6378
X4.0719Y-2.7234
X4.1083Y-3.1004
X4.124Y-3.6378
X4.128Y-2.6683
X4.1654Y-2.627
X4.1732Y-4.3858
X4.1831Y-3.6378
X4.1831Y-3.7362
X4.1831Y-3.7953
X4.1831Y-3.8543
X4.1831Y-3.9134
X4.1831Y-3.9724
X4.1831Y-4.0315
X4.1831Y-4.0906
X4.1831Y-4.1496
X4.1831Y-4.2087
X4.1831Y-4.2677
X4.1831Y-4.3268
X4.3012Y-3.9921
X4.4382Y-4.1449
X4.5787Y-4.1988
X4.689Y-4.3484
X4.6909Y-4.4961
X4.7264Y-5.1102
X4.7382Y-4.7165
X4.7598Y-4.0906
X4.8376Y-3.0866
X4.8681Y-3.8248
X4.8917Y-2.6289
X4.9596Y-2.8671
X4.9606Y-4.8602
X4.9646Y-5.0591
X4.9852Y-3.2274
X4.9941Y-4.3602
X5.0079Y-2.8681
X5.0138Y-5.0098
X5.063Y-2.627
X5.0706Y-4.9587
X5.0768Y-3.8071
X5.1142Y-3.6083
X5.124Y-4.3406
X5.126Y-4.7638
X5.127Y-2.9429
X5.1496Y-4.811
X5.1526Y-3.6542
X5.1803Y-4.8595
X5.2082Y-3.7083
X5.2224Y-2.498
X5.2539Y-4.9114
X5.2677Y-2.4469
X5.3169Y-4.311
X5.3189Y-2.3937
X5.3287Y-5.0236
X5.3307Y-5.4094
X5.3504Y-3.2559
X5.3693Y-4.2098
X5.373Y-4.5138
X5.378Y-5.5246
X5.3839Y-2.5472
X5.3858Y-2.3504
X5.3959Y-4.762
X5.4014Y-3.9073
X5.4016Y-3.7559
X5.4016Y-4.9626
X5.4016Y-5.3602
X5.4075Y-3.1024
X5.4094Y-2.8031
X5.4114Y-2.9961
X5.4134Y-3.9921
X5.4705Y-3.4469
X5.5177Y-2.8169
X5.5236Y-2.0748
X5.5276Y-5.1102
X5.5276Y-5.2244
X5.5335Y-4.1594
X5.5354Y-2.6986
X5.5394Y-2.3091
X5.5405Y-2.9497
X5.5413Y-4.0315
X5.5591Y-4.6614
X5.5709Y-3.4469
X5.5945Y-2.3799
X5.6043Y-2.0748
X5.626Y-4.5197
X5.6358Y-3.6181
X5.6575Y-2.3504
X5.7185Y-2.8287
X5.7638Y-4.0551
X5.7772Y-4.3598
X5.7785Y-2.3986
X5.7827Y-4.2098
X5.7858Y-5.5606
X5.7909Y-3.1472
X5.7913Y-5.311
X5.7933Y-5.4094
X5.7953Y-2.998
X5.7953Y-3.6122
X5.8031Y-4.815
X5.811Y-4.5984
X5.8189Y-4.3091
X5.8268Y-4.7559
X5.8346Y-3.0984
X5.8346Y-5.5079
X5.8396Y-3.31
X5.8425Y-3.4449
X5.8467Y-4.862
X5.8543Y-2.1575
X5.8622Y-3.6575
X5.8858Y-2.4488
X5.8904Y-4.962
X5.8957Y-4.7559
X5.9064Y-2.3102
X5.9291Y-5.063
X5.9331Y-3.5591
X5.9331Y-3.7559
X5.9528Y-2.5472
X5.9567Y-3.9764
X5.9646Y-5.6791
X5.9921Y-2.8071
X6.0Y-4.2126
X6.0039Y-3.1024
X6.0236Y-5.6791
X6.0827Y-5.6791
X6.2598Y-3.0394
X6.2598Y-3.6102
X6.2638Y-4.1772
X6.2638Y-4.7559
X6.2638Y-5.3209
X6.3622Y-4.8031
X6.3622Y-3.6575
X6.3622Y-4.2283
X6.3642Y-5.3701
X6.3661Y-2.5039
X6.3661Y-3.0866
X6.4331Y-2.3898
X6.622Y-4.4941
X6.628Y-4.435
X6.6299Y-4.9902
X6.6339Y-2.6929
X6.6339Y-3.2608
X6.6378Y-3.8425
X6.6693Y-3.311
X6.6772Y-2.7441
X6.6811Y-3.8996
X6.7106Y-4.5157
X6.7323Y-5.0413
X6.8563Y-5.6083
X6.8563Y-5.6634
X7.0039Y-2.7441
X7.0098Y-4.4587
X7.0157Y-2.3465
X7.0177Y-5.0433
X7.0197Y-2.5079
X7.0197Y-2.5541
X7.1063Y-3.311
X7.1083Y-3.8819
X7.2618Y-5.5335
X7.2815Y-4.565
X7.3563Y-2.2539
X7.3563Y-3.935
X7.3563Y-5.0886
X7.3602Y-2.6949
X7.3602Y-3.8346
X7.3602Y-4.376
X7.3602Y-4.9862
X7.3622Y-2.7933
X7.3622Y-4.5709
X7.3642Y-3.2598
X7.3642Y-3.3661
X7.6201Y-3.5906
X7.6201Y-4.1713
X7.6201Y-4.7579
X7.6201Y-5.3228
X7.622Y-3.0217
X7.8071Y-4.6181
X8.1673Y-3.5039
T2
X6.1661Y-2.2992
X6.1661Y-2.5992
X6.2661Y-2.2992
X6.2661Y-2.5992
X6.3661Y-2.2992
X6.3661Y-2.5992
X6.4661Y-2.2992
X6.4661Y-2.5992
X6.5661Y-2.2992
X6.5661Y-2.5992
X6.6661Y-2.2992
X6.6661Y-2.5992
X6.7661Y-2.2992
X6.7661Y-2.5992
X6.8661Y-2.2992
X6.8661Y-2.5992
X6.1622Y-4.0236
X6.1622Y-4.3236
X6.2622Y-4.0236
X6.2622Y-4.3236
X6.3622Y-4.0236
X6.3622Y-4.3236
X6.4622Y-4.0236
X6.4622Y-4.3236
X6.5622Y-4.0236
X6.5622Y-4.3236
X6.6622Y-4.0236
X6.6622Y-4.3236
X6.7622Y-4.0236
X6.7622Y-4.3236
X6.8622Y-4.0236
X6.8622Y-4.3236
X6.1622Y-5.1732
X6.1622Y-5.4732
X6.2622Y-5.1732
X6.2622Y-5.4732
X6.3622Y-5.1732
X6.3622Y-5.4732
X6.4622Y-5.1732
X6.4622Y-5.4732
X6.5622Y-5.1732
X6.5622Y-5.4732
X6.6622Y-5.1732
X6.6622Y-5.4732
X6.7622Y-5.1732
X6.7622Y-5.4732
X6.8622Y-5.1732
X6.8622Y-5.4732
X6.1622Y-3.4488
X6.1622Y-3.7488
X6.2622Y-3.4488
X6.2622Y-3.7488
X6.3622Y-3.4488
X6.3622Y-3.7488
X6.4622Y-3.4488
X6.4622Y-3.7488
X6.5622Y-3.4488
X6.5622Y-3.7488
X6.6622Y-3.4488
X6.6622Y-3.7488
X6.7622Y-3.4488
X6.7622Y-3.7488
X6.8622Y-3.4488
X6.8622Y-3.7488
X6.1614Y-4.5984
X6.1614Y-4.8984
X6.2614Y-4.5984
X6.2614Y-4.8984
X6.3614Y-4.5984
X6.3614Y-4.8984
X6.4614Y-4.5984
X6.4614Y-4.8984
X6.5614Y-4.5984
X6.5614Y-4.8984
X6.6614Y-4.5984
X6.6614Y-4.8984
X6.7614Y-4.5984
X6.7614Y-4.8984
X6.8614Y-4.5984
X6.8614Y-4.8984
X6.1622Y-2.874
X6.1622Y-3.174
X6.2622Y-2.874
X6.2622Y-3.174
X6.3622Y-2.874
X6.3622Y-3.174
X6.4622Y-2.874
X6.4622Y-3.174
X6.5622Y-2.874
X6.5622Y-3.174
X6.6622Y-2.874
X6.6622Y-3.174
X6.7622Y-2.874
X6.7622Y-3.174
X6.8622Y-2.874
X6.8622Y-3.174
T3
X8.0051Y-3.5553
X8.0051Y-3.6644
X8.0051Y-3.7734
X8.0051Y-3.8825
X8.0051Y-3.9915
X8.0051Y-4.1006
X8.0051Y-4.2096
X8.0051Y-4.3187
X8.1051Y-3.6098
X8.1051Y-3.7189
X8.1051Y-3.828
X8.1051Y-3.937
X8.1051Y-4.0461
X8.1051Y-4.1551
X8.1051Y-4.2642
T4
X8.1811Y-2.5866
X8.1811Y-2.7638
T5
X8.002Y-4.8783
X8.002Y-4.9783
X2.7264Y-5.3504
X2.7264Y-5.4504
X7.8976Y-5.1732
X7.8976Y-5.378
X8.0Y-5.2756
X8.1024Y-5.1732
X8.1024Y-5.378
X2.7972Y-2.7717
X2.7972Y-2.8717
T6
X4.2307Y-2.9711
X4.2307Y-3.0711
X4.2307Y-3.1711
X4.2307Y-3.2711
X4.2307Y-3.3711
X4.3307Y-2.9711
X4.3307Y-3.0711
X4.3307Y-3.1711
X4.3307Y-3.2711
X4.3307Y-3.3711
X3.3094Y-2.3
X3.3094Y-2.4
X3.4094Y-2.3
X3.4094Y-2.4
X3.5094Y-2.3
X3.5094Y-2.4
X3.6094Y-2.3
X3.6094Y-2.4
X3.7094Y-2.3
X3.7094Y-2.4
T7
X8.0831Y-2.5374
X8.0831Y-2.8134
T8
X4.2126Y-5.4843
X5.0394Y-5.4843
T9
X8.0551Y-3.2815
X8.0551Y-4.5925
X2.7165Y-5.748
X2.7165Y-2.126
T0
M30
