G04 #@! TF.GenerationSoftware,KiCad,Pcbnew,(5.1.2)-1*
G04 #@! TF.CreationDate,2020-05-19T21:26:11+03:00*
G04 #@! TF.ProjectId,switch_controller,73776974-6368-45f6-936f-6e74726f6c6c,rev?*
G04 #@! TF.SameCoordinates,Original*
G04 #@! TF.FileFunction,Soldermask,Top*
G04 #@! TF.FilePolarity,Negative*
%FSLAX46Y46*%
G04 Gerber Fmt 4.6, Leading zero omitted, Abs format (unit mm)*
G04 Created by KiCad (PCBNEW (5.1.2)-1) date 2020-05-19 21:26:11*
%MOMM*%
%LPD*%
G04 APERTURE LIST*
%ADD10C,0.150000*%
%ADD11C,4.400000*%
%ADD12R,2.400000X2.000000*%
%ADD13O,2.400000X2.000000*%
%ADD14R,2.127200X2.127200*%
%ADD15O,2.127200X2.127200*%
%ADD16R,1.900000X1.700000*%
%ADD17R,1.700000X1.900000*%
%ADD18R,1.650000X1.900000*%
%ADD19R,2.100000X2.100000*%
%ADD20O,2.100000X2.100000*%
%ADD21R,1.200000X1.000000*%
%ADD22R,2.900000X2.400000*%
%ADD23C,2.400000*%
%ADD24R,1.543000X0.908000*%
%ADD25R,2.560000X3.200000*%
%ADD26R,2.900000X1.900000*%
%ADD27R,1.900000X2.900000*%
%ADD28C,6.400000*%
%ADD29O,2.000000X2.700000*%
%ADD30R,1.620000X1.050000*%
%ADD31R,0.800000X1.900000*%
%ADD32R,1.900000X0.800000*%
%ADD33R,1.600000X1.300000*%
%ADD34R,1.900000X1.650000*%
%ADD35R,3.100000X4.150000*%
%ADD36R,2.000000X1.400000*%
%ADD37R,1.300000X1.600000*%
%ADD38R,2.000000X2.400000*%
%ADD39R,1.310000X1.620000*%
%ADD40C,3.400000*%
%ADD41R,2.100000X2.400000*%
%ADD42R,2.600000X1.600000*%
%ADD43R,6.800000X6.200000*%
%ADD44R,5.000000X1.500000*%
%ADD45R,9.800000X11.200000*%
%ADD46R,4.150000X3.100000*%
%ADD47R,0.908000X1.543000*%
%ADD48R,1.200100X1.200100*%
%ADD49R,1.620000X1.310000*%
%ADD50C,2.500000*%
%ADD51C,2.150000*%
G04 APERTURE END LIST*
D10*
X204000000Y-140000000D02*
X207000000Y-140000000D01*
X204000000Y-143000000D02*
G75*
G02X204000000Y-140000000I0J1500000D01*
G01*
X204000000Y-143000000D02*
X207000000Y-143000000D01*
X207000000Y-140000000D02*
G75*
G02X207000000Y-143000000I0J-1500000D01*
G01*
X204000000Y-60000000D02*
X207000000Y-60000000D01*
X204000000Y-57000000D02*
X207000000Y-57000000D01*
X204000000Y-60000000D02*
G75*
G02X204000000Y-57000000I0J1500000D01*
G01*
X207000000Y-57000000D02*
G75*
G02X207000000Y-60000000I0J-1500000D01*
G01*
X65000000Y-150000000D02*
X65000000Y-50000000D01*
X210000000Y-150000000D02*
X65000000Y-150000000D01*
X210000000Y-50000000D02*
X210000000Y-150000000D01*
X65000000Y-50000000D02*
X210000000Y-50000000D01*
D11*
X204600000Y-116650000D03*
X204600000Y-83350000D03*
D12*
X203330000Y-90305000D03*
D13*
X203330000Y-93075000D03*
X203330000Y-95845000D03*
X203330000Y-98615000D03*
X203330000Y-101385000D03*
X203330000Y-104155000D03*
X203330000Y-106925000D03*
X203330000Y-109695000D03*
X205870000Y-91690000D03*
X205870000Y-94460000D03*
X205870000Y-97230000D03*
X205870000Y-100000000D03*
X205870000Y-102770000D03*
X205870000Y-105540000D03*
X205870000Y-108310000D03*
D14*
X110000000Y-85625000D03*
D15*
X107460000Y-85625000D03*
X110000000Y-83085000D03*
X107460000Y-83085000D03*
X110000000Y-80545000D03*
X107460000Y-80545000D03*
X110000000Y-78005000D03*
X107460000Y-78005000D03*
X110000000Y-75465000D03*
X107460000Y-75465000D03*
D16*
X95350000Y-69650000D03*
X92650000Y-69650000D03*
D17*
X78800000Y-69075000D03*
X78800000Y-71775000D03*
X117500000Y-74700000D03*
X117500000Y-77400000D03*
X117525000Y-82575000D03*
X117525000Y-79875000D03*
X124125000Y-71775000D03*
X124125000Y-69075000D03*
D18*
X122025000Y-69150000D03*
X122025000Y-71650000D03*
D17*
X115600000Y-69075000D03*
X115600000Y-71775000D03*
X117775000Y-69100000D03*
X117775000Y-71800000D03*
X71050000Y-79000000D03*
X71050000Y-76300000D03*
X73925000Y-78925000D03*
X73925000Y-76225000D03*
D19*
X71050000Y-70400000D03*
D20*
X71050000Y-72940000D03*
D21*
X73875000Y-71425000D03*
X73875000Y-73125000D03*
D22*
X193550000Y-137950000D03*
X189050000Y-137950000D03*
X193550000Y-108750000D03*
X189050000Y-108750000D03*
X185100000Y-94000000D03*
X180600000Y-94000000D03*
X185050000Y-59700000D03*
X180550000Y-59700000D03*
X193550000Y-59650000D03*
X189050000Y-59650000D03*
X185050000Y-74300000D03*
X180550000Y-74300000D03*
X193550000Y-74300000D03*
X189050000Y-74300000D03*
X185100000Y-88500000D03*
X180600000Y-88500000D03*
X193550000Y-88500000D03*
X189050000Y-88500000D03*
X185050000Y-103250000D03*
X180550000Y-103250000D03*
X193550000Y-103250000D03*
X189050000Y-103250000D03*
X185050000Y-118450000D03*
X180550000Y-118450000D03*
X193550000Y-118450000D03*
X189050000Y-118450000D03*
X185000000Y-132450000D03*
X180500000Y-132450000D03*
X193550000Y-132450000D03*
X189050000Y-132450000D03*
X185050000Y-64700000D03*
X180550000Y-64700000D03*
X193550000Y-64700000D03*
X189050000Y-64700000D03*
X185050000Y-79300000D03*
X180550000Y-79300000D03*
X193550000Y-79300000D03*
X189050000Y-79300000D03*
X193550000Y-94000000D03*
X189050000Y-94000000D03*
X185050000Y-108750000D03*
X180550000Y-108750000D03*
X185050000Y-123400000D03*
X180550000Y-123400000D03*
X193550000Y-123450000D03*
X189050000Y-123450000D03*
X185000000Y-137950000D03*
X180500000Y-137950000D03*
X185100000Y-113650000D03*
X180600000Y-113650000D03*
X193550000Y-113600000D03*
X189050000Y-113600000D03*
D17*
X79550000Y-136250000D03*
X79550000Y-138950000D03*
D23*
X203200000Y-134000000D03*
X200600000Y-136600000D03*
X200600000Y-131400000D03*
X205800000Y-131400000D03*
X205800000Y-136600000D03*
D24*
X114525000Y-114245000D03*
X114525000Y-111705000D03*
X114525000Y-110435000D03*
X114525000Y-109165000D03*
X114525000Y-107895000D03*
X114525000Y-106625000D03*
X114525000Y-105355000D03*
X120875000Y-105355000D03*
X120875000Y-106625000D03*
X120875000Y-107895000D03*
X120875000Y-109165000D03*
X120875000Y-110435000D03*
X120875000Y-111705000D03*
X120875000Y-112975000D03*
X120875000Y-114245000D03*
X114525000Y-112975000D03*
D25*
X85280000Y-97600000D03*
X80820000Y-97600000D03*
X104080000Y-98950000D03*
X99620000Y-98950000D03*
D26*
X75600000Y-93100000D03*
X75600000Y-100100000D03*
D27*
X77150000Y-116550000D03*
X84150000Y-116550000D03*
D26*
X94500000Y-94500000D03*
X94500000Y-101500000D03*
D28*
X69000000Y-54000000D03*
X69000000Y-146000000D03*
D29*
X174400000Y-58400000D03*
X171860000Y-58400000D03*
X169320000Y-58400000D03*
X166780000Y-58400000D03*
X164240000Y-58400000D03*
X161700000Y-58400000D03*
X159160000Y-58400000D03*
X156620000Y-58400000D03*
X156620000Y-66020000D03*
X159160000Y-66020000D03*
X161700000Y-66020000D03*
X164240000Y-66020000D03*
X166780000Y-66020000D03*
X169320000Y-66020000D03*
X171860000Y-66020000D03*
X174400000Y-66020000D03*
D30*
X78990000Y-102500000D03*
X78990000Y-103450000D03*
X78990000Y-104400000D03*
X81610000Y-104400000D03*
X81610000Y-103450000D03*
X81610000Y-102500000D03*
X97940000Y-103800000D03*
X97940000Y-104750000D03*
X97940000Y-105700000D03*
X100560000Y-105700000D03*
X100560000Y-104750000D03*
X100560000Y-103800000D03*
D14*
X84060000Y-60960000D03*
D15*
X84060000Y-58420000D03*
X86600000Y-60960000D03*
X86600000Y-58420000D03*
X89140000Y-60960000D03*
X89140000Y-58420000D03*
X91680000Y-60960000D03*
X91680000Y-58420000D03*
X94220000Y-60960000D03*
X94220000Y-58420000D03*
D31*
X88550000Y-70940000D03*
X87750000Y-70940000D03*
X86950000Y-70940000D03*
X86150000Y-70940000D03*
X85350000Y-70940000D03*
X84550000Y-70940000D03*
X83750000Y-70940000D03*
X82950000Y-70940000D03*
D32*
X81250000Y-72640000D03*
X81250000Y-73440000D03*
X81250000Y-74240000D03*
X81250000Y-75040000D03*
X81250000Y-75840000D03*
X81250000Y-76640000D03*
X81250000Y-77440000D03*
X81250000Y-78240000D03*
D31*
X82950000Y-79940000D03*
X83750000Y-79940000D03*
X84550000Y-79940000D03*
X85350000Y-79940000D03*
X86150000Y-79940000D03*
X86950000Y-79940000D03*
X87750000Y-79940000D03*
X88550000Y-79940000D03*
D32*
X90250000Y-78240000D03*
X90250000Y-77440000D03*
X90250000Y-76640000D03*
X90250000Y-75840000D03*
X90250000Y-75040000D03*
X90250000Y-74240000D03*
X90250000Y-73440000D03*
X90250000Y-72640000D03*
D16*
X98850000Y-80875000D03*
X101550000Y-80875000D03*
X98825000Y-78725000D03*
X101525000Y-78725000D03*
D12*
X180450000Y-143150000D03*
X176450000Y-143150000D03*
D17*
X109250000Y-99200000D03*
X109250000Y-96500000D03*
D33*
X85820000Y-87050000D03*
X85820000Y-90350000D03*
D16*
X86350000Y-67150000D03*
X89050000Y-67150000D03*
D24*
X138898000Y-134890000D03*
X138898000Y-136160000D03*
X138898000Y-137430000D03*
X138898000Y-138700000D03*
X138898000Y-139970000D03*
X138898000Y-141240000D03*
X138898000Y-142510000D03*
X145248000Y-142510000D03*
X145248000Y-141240000D03*
X145248000Y-138700000D03*
X145248000Y-137430000D03*
X145248000Y-136160000D03*
X145248000Y-134890000D03*
X145248000Y-139970000D03*
D34*
X124250000Y-118100000D03*
X121750000Y-118100000D03*
D24*
X139098000Y-73590000D03*
X139098000Y-74860000D03*
X139098000Y-76130000D03*
X139098000Y-77400000D03*
X139098000Y-78670000D03*
X139098000Y-79940000D03*
X139098000Y-81210000D03*
X145448000Y-81210000D03*
X145448000Y-79940000D03*
X145448000Y-77400000D03*
X145448000Y-76130000D03*
X145448000Y-74860000D03*
X145448000Y-73590000D03*
X145448000Y-78670000D03*
D34*
X125225000Y-86675000D03*
X122725000Y-86675000D03*
D35*
X71550000Y-116625000D03*
X71550000Y-124175000D03*
D29*
X174280000Y-116800000D03*
X171740000Y-116800000D03*
X169200000Y-116800000D03*
X166660000Y-116800000D03*
X164120000Y-116800000D03*
X161580000Y-116800000D03*
X159040000Y-116800000D03*
X156500000Y-116800000D03*
X156500000Y-124420000D03*
X159040000Y-124420000D03*
X161580000Y-124420000D03*
X164120000Y-124420000D03*
X166660000Y-124420000D03*
X169200000Y-124420000D03*
X171740000Y-124420000D03*
X174280000Y-124420000D03*
X174300000Y-131400000D03*
X171760000Y-131400000D03*
X169220000Y-131400000D03*
X166680000Y-131400000D03*
X164140000Y-131400000D03*
X161600000Y-131400000D03*
X159060000Y-131400000D03*
X156520000Y-131400000D03*
X156520000Y-139020000D03*
X159060000Y-139020000D03*
X161600000Y-139020000D03*
X164140000Y-139020000D03*
X166680000Y-139020000D03*
X169220000Y-139020000D03*
X171760000Y-139020000D03*
X174300000Y-139020000D03*
D17*
X69250000Y-129300000D03*
X69250000Y-132000000D03*
X94950000Y-125400000D03*
X94950000Y-122700000D03*
D19*
X69250000Y-138440000D03*
D20*
X69250000Y-135900000D03*
D36*
X98250000Y-125500000D03*
X98250000Y-122500000D03*
X73800000Y-141600000D03*
X73800000Y-138600000D03*
D37*
X76700000Y-144050000D03*
X80000000Y-144050000D03*
D18*
X76650000Y-138800000D03*
X76650000Y-136300000D03*
D38*
X102150000Y-139350000D03*
X102150000Y-143350000D03*
D39*
X74935000Y-105400000D03*
X71665000Y-105400000D03*
D16*
X72000000Y-108150000D03*
X74700000Y-108150000D03*
X77950000Y-108150000D03*
X80650000Y-108150000D03*
D38*
X85350000Y-105500000D03*
X85350000Y-101500000D03*
D34*
X74550000Y-102650000D03*
X72050000Y-102650000D03*
D12*
X81000000Y-94250000D03*
X85000000Y-94250000D03*
D16*
X83450000Y-108500000D03*
X86150000Y-108500000D03*
D40*
X128000000Y-139300000D03*
X107000000Y-139300000D03*
D41*
X126675000Y-70725000D03*
X126675000Y-66725000D03*
D16*
X111550000Y-107200000D03*
X108850000Y-107200000D03*
X126450000Y-106100000D03*
X123750000Y-106100000D03*
X123650000Y-112725000D03*
X126350000Y-112725000D03*
X111550000Y-113000000D03*
X108850000Y-113000000D03*
X120175000Y-85375000D03*
X117475000Y-85375000D03*
D17*
X119925000Y-69100000D03*
X119925000Y-71800000D03*
D16*
X122575000Y-84175000D03*
X125275000Y-84175000D03*
X96250000Y-109200000D03*
X98950000Y-109200000D03*
X90650000Y-109800000D03*
X93350000Y-109800000D03*
X101550000Y-76550000D03*
X98850000Y-76550000D03*
X101545000Y-83035000D03*
X98845000Y-83035000D03*
X101550000Y-109750000D03*
X104250000Y-109750000D03*
D42*
X101750000Y-122620000D03*
X101750000Y-127180000D03*
D43*
X108050000Y-124900000D03*
D19*
X203250000Y-126450000D03*
D20*
X203250000Y-123910000D03*
D44*
X84675000Y-136110000D03*
X84675000Y-141190000D03*
D45*
X93825000Y-138650000D03*
D34*
X126250000Y-108500000D03*
X123750000Y-108500000D03*
X108950000Y-110500000D03*
X111450000Y-110500000D03*
D12*
X99750000Y-95600000D03*
X103750000Y-95600000D03*
D34*
X93200000Y-104150000D03*
X90700000Y-104150000D03*
D46*
X90395000Y-88700000D03*
X97945000Y-88700000D03*
D18*
X126625000Y-77075000D03*
X126625000Y-79575000D03*
X123650000Y-92200000D03*
X123650000Y-94700000D03*
D12*
X145250000Y-55400000D03*
X141250000Y-55400000D03*
D34*
X142950000Y-118500000D03*
X145450000Y-118500000D03*
D38*
X104100000Y-106700000D03*
X104100000Y-102700000D03*
D34*
X143450000Y-87600000D03*
X145950000Y-87600000D03*
X136300000Y-68500000D03*
X133800000Y-68500000D03*
X116600000Y-118050000D03*
X119100000Y-118050000D03*
D46*
X86125000Y-124350000D03*
X78575000Y-124350000D03*
D34*
X133800000Y-142500000D03*
X136300000Y-142500000D03*
X141050000Y-114700000D03*
X138550000Y-114700000D03*
X143250000Y-84025000D03*
X145750000Y-84025000D03*
D39*
X93535000Y-107000000D03*
X90265000Y-107000000D03*
D29*
X174300000Y-73000000D03*
X171760000Y-73000000D03*
X169220000Y-73000000D03*
X166680000Y-73000000D03*
X164140000Y-73000000D03*
X161600000Y-73000000D03*
X159060000Y-73000000D03*
X156520000Y-73000000D03*
X156520000Y-80620000D03*
X159060000Y-80620000D03*
X161600000Y-80620000D03*
X164140000Y-80620000D03*
X166680000Y-80620000D03*
X169220000Y-80620000D03*
X171760000Y-80620000D03*
X174300000Y-80620000D03*
X174300000Y-87600000D03*
X171760000Y-87600000D03*
X169220000Y-87600000D03*
X166680000Y-87600000D03*
X164140000Y-87600000D03*
X161600000Y-87600000D03*
X159060000Y-87600000D03*
X156520000Y-87600000D03*
X156520000Y-95220000D03*
X159060000Y-95220000D03*
X161600000Y-95220000D03*
X164140000Y-95220000D03*
X166680000Y-95220000D03*
X169220000Y-95220000D03*
X171760000Y-95220000D03*
X174300000Y-95220000D03*
X174300000Y-102200000D03*
X171760000Y-102200000D03*
X169220000Y-102200000D03*
X166680000Y-102200000D03*
X164140000Y-102200000D03*
X161600000Y-102200000D03*
X159060000Y-102200000D03*
X156520000Y-102200000D03*
X156520000Y-109820000D03*
X159060000Y-109820000D03*
X161600000Y-109820000D03*
X164140000Y-109820000D03*
X166680000Y-109820000D03*
X169220000Y-109820000D03*
X171760000Y-109820000D03*
X174300000Y-109820000D03*
D24*
X138798000Y-104390000D03*
X138798000Y-105660000D03*
X138798000Y-106930000D03*
X138798000Y-108200000D03*
X138798000Y-109470000D03*
X138798000Y-110740000D03*
X138798000Y-112010000D03*
X145148000Y-112010000D03*
X145148000Y-110740000D03*
X145148000Y-108200000D03*
X145148000Y-106930000D03*
X145148000Y-105660000D03*
X145148000Y-104390000D03*
X145148000Y-109470000D03*
D47*
X120270000Y-75250000D03*
X121540000Y-75250000D03*
X122810000Y-75250000D03*
X124080000Y-75250000D03*
X124080000Y-81600000D03*
X122810000Y-81600000D03*
X121540000Y-81600000D03*
X120270000Y-81600000D03*
D48*
X131550760Y-78350000D03*
X131550760Y-76450000D03*
X129551780Y-77400000D03*
D47*
X113290000Y-99202000D03*
X114560000Y-99202000D03*
X115830000Y-99202000D03*
X117100000Y-99202000D03*
X118370000Y-99202000D03*
X119640000Y-99202000D03*
X120910000Y-99202000D03*
X120910000Y-92852000D03*
X119640000Y-92852000D03*
X117100000Y-92852000D03*
X115830000Y-92852000D03*
X114560000Y-92852000D03*
X113290000Y-92852000D03*
X118370000Y-92852000D03*
D24*
X138925000Y-68545000D03*
X138925000Y-66005000D03*
X138925000Y-64735000D03*
X138925000Y-63465000D03*
X138925000Y-62195000D03*
X138925000Y-60925000D03*
X138925000Y-59655000D03*
X145275000Y-59655000D03*
X145275000Y-60925000D03*
X145275000Y-62195000D03*
X145275000Y-63465000D03*
X145275000Y-64735000D03*
X145275000Y-66005000D03*
X145275000Y-67275000D03*
X145275000Y-68545000D03*
X138925000Y-67275000D03*
X138825000Y-99245000D03*
X138825000Y-96705000D03*
X138825000Y-95435000D03*
X138825000Y-94165000D03*
X138825000Y-92895000D03*
X138825000Y-91625000D03*
X138825000Y-90355000D03*
X145175000Y-90355000D03*
X145175000Y-91625000D03*
X145175000Y-92895000D03*
X145175000Y-94165000D03*
X145175000Y-95435000D03*
X145175000Y-96705000D03*
X145175000Y-97975000D03*
X145175000Y-99245000D03*
X138825000Y-97975000D03*
X138725000Y-129845000D03*
X138725000Y-127305000D03*
X138725000Y-126035000D03*
X138725000Y-124765000D03*
X138725000Y-123495000D03*
X138725000Y-122225000D03*
X138725000Y-120955000D03*
X145075000Y-120955000D03*
X145075000Y-122225000D03*
X145075000Y-123495000D03*
X145075000Y-124765000D03*
X145075000Y-126035000D03*
X145075000Y-127305000D03*
X145075000Y-128575000D03*
X145075000Y-129845000D03*
X138725000Y-128575000D03*
X124325000Y-120905000D03*
X124325000Y-123445000D03*
X124325000Y-124715000D03*
X124325000Y-125985000D03*
X124325000Y-127255000D03*
X124325000Y-128525000D03*
X124325000Y-129795000D03*
X117975000Y-129795000D03*
X117975000Y-128525000D03*
X117975000Y-127255000D03*
X117975000Y-125985000D03*
X117975000Y-124715000D03*
X117975000Y-123445000D03*
X117975000Y-122175000D03*
X117975000Y-120905000D03*
X124325000Y-122175000D03*
D49*
X76950000Y-61685000D03*
X76950000Y-58415000D03*
D50*
X205310000Y-71460000D03*
D51*
X207800000Y-70200000D03*
X207800000Y-65700000D03*
D50*
X205310000Y-64450000D03*
M02*
